<svg width="32" height="32" viewBox="0 0 32 32" fill="none" xmlns="http://www.w3.org/2000/svg">
<path d="M3.20001 7.19999C3.20001 6.56347 3.45287 5.95302 3.90296 5.50293C4.35304 5.05284 4.96349 4.79999 5.60001 4.79999H23.2C23.8365 4.79999 24.447 5.05284 24.8971 5.50293C25.3472 5.95302 25.6 6.56347 25.6 7.19999V12.8H20.8C19.9513 12.8 19.1374 13.1371 18.5373 13.7372C17.9372 14.3374 17.6 15.1513 17.6 16V20.8H5.60001C4.96349 20.8 4.35304 20.5471 3.90296 20.097C3.45287 19.647 3.20001 19.0365 3.20001 18.4V7.19999ZM6.40001 11.2C7.2487 11.2 8.06264 10.8628 8.66275 10.2627C9.26287 9.66261 9.60001 8.84868 9.60001 7.99999V6.39999H8.00001V7.99999C8.00001 8.42433 7.83144 8.8313 7.53138 9.13136C7.23132 9.43142 6.82436 9.59999 6.40001 9.59999H4.80001V11.2H6.40001ZM11.6 12.8C11.6 13.5426 11.895 14.2548 12.4201 14.7799C12.9452 15.305 13.6574 15.6 14.4 15.6C15.1426 15.6 15.8548 15.305 16.3799 14.7799C16.905 14.2548 17.2 13.5426 17.2 12.8C17.2 12.0574 16.905 11.3452 16.3799 10.8201C15.8548 10.295 15.1426 9.99999 14.4 9.99999C13.6574 9.99999 12.9452 10.295 12.4201 10.8201C11.895 11.3452 11.6 12.0574 11.6 12.8ZM4.80001 14.4V16H6.40001C6.82436 16 7.23132 16.1686 7.53138 16.4686C7.83144 16.7687 8.00001 17.1756 8.00001 17.6V19.2H9.60001V17.6C9.60001 16.7513 9.26287 15.9374 8.66275 15.3372C8.06264 14.7371 7.2487 14.4 6.40001 14.4H4.80001ZM24 11.2V9.59999H22.4C21.9757 9.59999 21.5687 9.43142 21.2686 9.13136C20.9686 8.8313 20.8 8.42433 20.8 7.99999V6.39999H19.2V7.99999C19.2 8.84868 19.5372 9.66261 20.1373 10.2627C20.7374 10.8628 21.5513 11.2 22.4 11.2H24ZM27.2 12.8V8.13599C27.6681 8.3015 28.0734 8.60812 28.36 9.0136C28.6465 9.41909 28.8003 9.90347 28.8 10.4V12.8H27.2ZM17.6 22.4V24H8.80001C8.30349 24.0002 7.81911 23.8465 7.41363 23.5599C7.00814 23.2734 6.70152 22.8681 6.53601 22.4H17.6ZM21.6 14.4C20.9635 14.4 20.353 14.6528 19.903 15.1029C19.4529 15.553 19.2 16.1635 19.2 16.8V28C19.2 28.6365 19.4529 29.247 19.903 29.697C20.353 30.1471 20.9635 30.4 21.6 30.4H28C28.6365 30.4 29.247 30.1471 29.6971 29.697C30.1472 29.247 30.4 28.6365 30.4 28V16.8C30.4 16.1635 30.1472 15.553 29.6971 15.1029C29.247 14.6528 28.6365 14.4 28 14.4H21.6ZM21.6 20.8H23.2C23.4122 20.8 23.6157 20.8843 23.7657 21.0343C23.9157 21.1843 24 21.3878 24 21.6C24 21.8122 23.9157 22.0156 23.7657 22.1657C23.6157 22.3157 23.4122 22.4 23.2 22.4H21.6C21.3878 22.4 21.1844 22.3157 21.0343 22.1657C20.8843 22.0156 20.8 21.8122 20.8 21.6C20.8 21.3878 20.8843 21.1843 21.0343 21.0343C21.1844 20.8843 21.3878 20.8 21.6 20.8ZM26.4 20.8H28C28.2122 20.8 28.4157 20.8843 28.5657 21.0343C28.7157 21.1843 28.8 21.3878 28.8 21.6C28.8 21.8122 28.7157 22.0156 28.5657 22.1657C28.4157 22.3157 28.2122 22.4 28 22.4H26.4C26.1878 22.4 25.9844 22.3157 25.8343 22.1657C25.6843 22.0156 25.6 21.8122 25.6 21.6C25.6 21.3878 25.6843 21.1843 25.8343 21.0343C25.9844 20.8843 26.1878 20.8 26.4 20.8ZM21.6 24H23.2C23.4122 24 23.6157 24.0843 23.7657 24.2343C23.9157 24.3843 24 24.5878 24 24.8C24 25.0122 23.9157 25.2156 23.7657 25.3657C23.6157 25.5157 23.4122 25.6 23.2 25.6H21.6C21.3878 25.6 21.1844 25.5157 21.0343 25.3657C20.8843 25.2156 20.8 25.0122 20.8 24.8C20.8 24.5878 20.8843 24.3843 21.0343 24.2343C21.1844 24.0843 21.3878 24 21.6 24ZM26.4 24H28C28.2122 24 28.4157 24.0843 28.5657 24.2343C28.7157 24.3843 28.8 24.5878 28.8 24.8C28.8 25.0122 28.7157 25.2156 28.5657 25.3657C28.4157 25.5157 28.2122 25.6 28 25.6H26.4C26.1878 25.6 25.9844 25.5157 25.8343 25.3657C25.6843 25.2156 25.6 25.0122 25.6 24.8C25.6 24.5878 25.6843 24.3843 25.8343 24.2343C25.9844 24.0843 26.1878 24 26.4 24ZM21.6 27.2H23.2C23.4122 27.2 23.6157 27.2843 23.7657 27.4343C23.9157 27.5843 24 27.7878 24 28C24 28.2122 23.9157 28.4156 23.7657 28.5657C23.6157 28.7157 23.4122 28.8 23.2 28.8H21.6C21.3878 28.8 21.1844 28.7157 21.0343 28.5657C20.8843 28.4156 20.8 28.2122 20.8 28C20.8 27.7878 20.8843 27.5843 21.0343 27.4343C21.1844 27.2843 21.3878 27.2 21.6 27.2ZM26.4 27.2H28C28.2122 27.2 28.4157 27.2843 28.5657 27.4343C28.7157 27.5843 28.8 27.7878 28.8 28C28.8 28.2122 28.7157 28.4156 28.5657 28.5657C28.4157 28.7157 28.2122 28.8 28 28.8H26.4C26.1878 28.8 25.9844 28.7157 25.8343 28.5657C25.6843 28.4156 25.6 28.2122 25.6 28C25.6 27.7878 25.6843 27.5843 25.8343 27.4343C25.9844 27.2843 26.1878 27.2 26.4 27.2ZM20.8 16.8C20.8 16.5878 20.8843 16.3843 21.0343 16.2343C21.1844 16.0843 21.3878 16 21.6 16H28C28.2122 16 28.4157 16.0843 28.5657 16.2343C28.7157 16.3843 28.8 16.5878 28.8 16.8V18.4C28.8 18.6122 28.7157 18.8156 28.5657 18.9657C28.4157 19.1157 28.2122 19.2 28 19.2H21.6C21.3878 19.2 21.1844 19.1157 21.0343 18.9657C20.8843 18.8156 20.8 18.6122 20.8 18.4V16.8Z" fill="white"/>
</svg>
