<svg width="32" height="32" viewBox="0 0 32 32" fill="none" xmlns="http://www.w3.org/2000/svg">
<g clip-path="url(#clip0_17_302)">
<path d="M29.4188 0.617163C29.6063 0.816478 29.75 1.04593 29.85 1.29107C29.9438 1.53621 29.9438 1.80423 30 2.08532V8.36743C30 9.52449 29.1063 10.4593 28 10.4593C26.8937 10.4593 26 9.52449 26 8.36743V7.145L19.4125 14.0285C18.675 14.8064 17.4938 14.8522 16.7 14.1396L10.9438 9.02767L5.30125 14.1396C4.46313 14.8914 3.2 14.7868 2.48125 13.9109C1.7625 13.0349 1.86 11.7144 2.69812 10.9626L9.7 4.68707C10.45 4.01571 11.55 4.01571 12.3 4.68707L17.8937 9.70099L23.1688 4.18371H22C20.8937 4.18371 20 3.24695 20 2.09186C20 0.93676 20.8937 0 22 0H27.9438C28.55 0 29.05 0.232327 29.4125 0.608273L29.4188 0.617163ZM0 19.8726C0 18.1403 1.34312 16.7349 3 16.7349H29C30.6562 16.7349 32 18.1403 32 19.8726V30.3319C32 32.0642 30.6562 33.4697 29 33.4697H3C1.34312 33.4697 0 32.0642 0 30.3319V19.8726ZM3 30.3319H6C6 28.5996 4.65688 27.1941 3 27.1941V30.3319ZM3 19.8726V23.0104C4.65688 23.0104 6 21.605 6 19.8726H3ZM29 27.1941C27.3438 27.1941 26 28.5996 26 30.3319H29V27.1941ZM26 19.8726C26 21.605 27.3438 23.0104 29 23.0104V19.8726H26ZM16 20.9186C13.7937 20.9186 12 22.7947 12 25.1023C12 27.4099 13.7937 29.286 16 29.286C18.2062 29.286 20 27.4099 20 25.1023C20 22.7947 18.2062 20.9186 16 20.9186Z" fill="white"/>
</g>
<defs>
<clipPath id="clip0_17_302">
<rect width="32" height="32" fill="white"/>
</clipPath>
</defs>
</svg>
