<svg width="32" height="32" viewBox="0 0 32 32" fill="none" xmlns="http://www.w3.org/2000/svg">
<path d="M4.79999 5.60004C4.79999 4.96352 5.05284 4.35307 5.50293 3.90299C5.95302 3.4529 6.56347 3.20004 7.19999 3.20004H18.4C19.0365 3.20004 19.647 3.4529 20.097 3.90299C20.5471 4.35307 20.8 4.96352 20.8 5.60004V8.46884L26.0288 13.6976C26.7785 14.4475 27.1998 15.4645 27.2 16.5248V28C27.2 28.2122 27.1157 28.4157 26.9657 28.5657C26.8156 28.7158 26.6122 28.8 26.4 28.8C26.1878 28.8 25.9843 28.7158 25.8343 28.5657C25.6843 28.4157 25.6 28.2122 25.6 28V16.5248C25.5994 15.8885 25.3462 15.2785 24.896 14.8288L20.8 10.7328V15.6688L22.1664 17.0336C22.3164 17.1839 22.4006 17.3875 22.4004 17.5998C22.4003 17.8121 22.3158 18.0156 22.1656 18.1656C22.0912 18.2399 22.0029 18.2988 21.9058 18.339C21.8086 18.3791 21.7045 18.3998 21.5994 18.3997C21.3871 18.3995 21.1836 18.3151 21.0336 18.1648L16.2336 13.3648C15.5584 12.6896 15.1824 12.7184 15.0176 12.76C14.7408 12.8272 14.496 13.048 14.1536 13.3776C13.9936 13.5312 13.9264 13.6816 13.9584 13.9056C14 14.1856 14.2192 14.6864 14.9664 15.4336L16.9072 17.3744L17.3648 17.8336C17.4393 17.9079 17.4985 17.9962 17.5388 18.0934C17.5792 18.1906 17.6 18.2948 17.6 18.4C17.6 19.6384 17.6096 20.8848 17.952 21.8256C18.1152 22.2752 18.3376 22.6032 18.6304 22.8224C18.9168 23.0368 19.3392 23.2 20 23.2C20.2122 23.2 20.4156 23.2843 20.5657 23.4344C20.7157 23.5844 20.8 23.7879 20.8 24V26.4C20.8 27.0366 20.5471 27.647 20.097 28.0971C19.647 28.5472 19.0365 28.8 18.4 28.8H7.19999C6.56347 28.8 5.95302 28.5472 5.50293 28.0971C5.05284 27.647 4.79999 27.0366 4.79999 26.4V5.60004ZM12.8 12C12.1281 12 11.467 12.1691 10.8777 12.4919C10.2885 12.8147 9.79001 13.2807 9.42835 13.847C9.0667 14.4132 8.8535 15.0614 8.80844 15.7318C8.76339 16.4022 8.88792 17.0731 9.17055 17.6826C9.45318 18.2922 9.8848 18.8207 10.4256 19.2195C10.9663 19.6182 11.5988 19.8743 12.2647 19.9641C12.9306 20.054 13.6083 19.9746 14.2354 19.7334C14.8625 19.4922 15.4187 19.0969 15.8528 18.584L15.7728 18.504L13.8336 16.5648C12.9808 15.712 12.4896 14.9104 12.376 14.1392C12.3208 13.7888 12.3533 13.4303 12.4706 13.0955C12.5879 12.7607 12.7862 12.4602 13.048 12.2208L13.1024 12.168L13.2528 12.024C13.1024 12.0076 12.9513 11.9996 12.8 12ZM16 26.4V27.2H17.6V26.4C17.6 26.1879 17.6843 25.9844 17.8343 25.8344C17.9843 25.6843 18.1878 25.6 18.4 25.6H19.2V24.736C18.6505 24.6525 18.1291 24.438 17.68 24.1104C17.1928 24.2637 16.7671 24.5683 16.465 24.9801C16.1629 25.3919 16 25.8893 16 26.4ZM6.39999 8.00004H7.19999C7.83651 8.00004 8.44696 7.74719 8.89704 7.2971C9.34713 6.84701 9.59999 6.23656 9.59999 5.60004V4.80004H7.99999V5.60004C7.99999 5.81222 7.9157 6.0157 7.76567 6.16573C7.61564 6.31576 7.41216 6.40004 7.19999 6.40004H6.39999V8.00004ZM16 5.60004C16 6.23656 16.2528 6.84701 16.7029 7.2971C17.153 7.74719 17.7635 8.00004 18.4 8.00004H19.2V6.40004H18.4C18.1878 6.40004 17.9843 6.31576 17.8343 6.16573C17.6843 6.0157 17.6 5.81222 17.6 5.60004V4.80004H16V5.60004ZM9.59999 26.4C9.59999 25.7635 9.34713 25.1531 8.89704 24.703C8.44696 24.2529 7.83651 24 7.19999 24H6.39999V25.6H7.19999C7.41216 25.6 7.61564 25.6843 7.76567 25.8344C7.9157 25.9844 7.99999 26.1879 7.99999 26.4V27.2H9.59999V26.4Z" fill="white"/>
</svg>
