<svg width="64" height="62" viewBox="0 0 64 62" fill="none" xmlns="http://www.w3.org/2000/svg">
<path d="M35.8459 24.2183H28.3592C27.881 25.0954 27.5638 25.7584 27.4742 25.9231H36.5553C36.3502 25.3369 36.1145 24.7694 35.8459 24.2183Z" fill="white"/>
<path d="M24.5643 28.4414C23.8448 28.4414 23.2181 28.5303 22.2436 28.7696L21.9887 30.1736L22.1507 30.133L22.4295 30.0649C22.8465 29.9574 23.4731 29.8926 24.0306 29.8926C24.9348 29.8926 25.2838 30.0462 25.2838 30.458C25.2838 30.5721 25.2601 30.6577 25.2136 30.863C24.9122 30.8323 24.6334 30.8147 24.4249 30.8147C22.2674 30.8147 21.0142 31.7028 21.0142 33.2176C21.0142 34.2253 21.7337 34.9202 22.7785 34.9202C23.6601 34.9202 24.3343 34.6798 24.8204 34.1672L24.7739 34.8127H26.3977L26.4204 34.6436L26.4442 34.4295L26.4906 34.1133L26.5598 33.7182L26.9779 31.5029C27.0946 30.8092 27.1173 30.5754 27.1173 30.268C27.1173 29.0758 26.2357 28.4414 24.5643 28.4414ZM23.5909 33.5985C23.1501 33.5985 22.8952 33.3482 22.8952 32.9629C22.8952 32.3329 23.4527 32.0145 24.5428 32.0145C24.6822 32.0145 24.7751 32.0178 24.9847 32.0387C24.9371 32.9607 24.3796 33.5985 23.5909 33.5985Z" fill="white"/>
<path d="M18.4623 27.1492L16.3037 31.8969L16.1643 27.1492H13.1241L11.6147 34.8158H13.3779L14.5383 28.9582L14.8635 34.8158H16.6278L19.2963 28.9209L18.136 34.8158H20.085L21.617 27.1492H18.4623Z" fill="white"/>
<path d="M53.9015 34.2419C53.9003 34.2002 53.8777 34.1574 53.855 34.1343C53.8085 34.1123 53.7621 34.1101 53.7394 34.1101H53.5536V34.5404H53.6465V34.3725H53.7156L53.7859 34.5404H53.9015L53.8323 34.3538C53.8788 34.3352 53.9015 34.2891 53.9015 34.2419ZM53.7621 34.2902C53.7394 34.299 53.7156 34.299 53.7156 34.299H53.6454V34.187H53.6941C53.7168 34.187 53.7632 34.187 53.7632 34.1969C53.787 34.2056 53.787 34.2233 53.787 34.2397C53.787 34.2583 53.7847 34.2803 53.7621 34.2902Z" fill="white"/>
<path d="M57.9762 39.7237C57.9739 39.6809 57.9524 39.638 57.9286 39.6161C57.8822 39.5941 57.8357 39.5919 57.8119 39.5919H57.6272V40.0222H57.7201V39.8532H57.7892L57.8595 40.0222H57.9762L57.906 39.8346C57.9524 39.8181 57.9762 39.772 57.9762 39.7237ZM57.8357 39.772C57.8119 39.7807 57.7892 39.7807 57.7892 39.7807H57.719V39.6699H57.7654C57.7892 39.6699 57.8357 39.6699 57.8357 39.6787C57.8595 39.6874 57.8595 39.7061 57.8595 39.7215C57.8595 39.7412 57.8595 39.761 57.8357 39.772Z" fill="white"/>
<path d="M62.3524 10.9103H1.64759C0.736544 10.9103 0 11.6249 0 12.5064V49.4945C0 50.376 0.736544 51.0907 1.64759 51.0907H62.3524C63.2635 51.0907 64 50.376 64 49.4945V12.5064C64 11.6249 63.2635 10.9103 62.3524 10.9103ZM58.2538 40.087C58.2062 40.1704 58.1416 40.2341 58.0578 40.2791C57.9739 40.3241 57.8856 40.3471 57.7949 40.3471C57.702 40.3471 57.6136 40.3241 57.5297 40.2791C57.447 40.2341 57.3813 40.1704 57.3326 40.087C57.2861 40.0068 57.2623 39.9212 57.2623 39.8323C57.2623 39.7434 57.2861 39.6588 57.3337 39.5754C57.3802 39.492 57.4482 39.4294 57.532 39.3844C57.617 39.3416 57.7031 39.3186 57.7938 39.3186C57.8833 39.3186 57.9694 39.3416 58.0533 39.3844C58.1382 39.4294 58.2051 39.492 58.2516 39.5754C58.2992 39.6588 58.3218 39.7445 58.3218 39.8323C58.3218 39.9201 58.3014 40.009 58.2538 40.087ZM59.4414 31.001C59.4436 39.7883 52.0941 46.9149 43.0221 46.9171C38.7796 46.9181 34.911 45.3605 31.9966 42.8016C29.0822 45.356 25.2215 46.9126 20.9858 46.9126C11.9195 46.9126 4.56091 39.785 4.56091 31.001C4.56091 22.2521 11.8618 15.1454 20.8805 15.0883C20.9156 15.0883 20.9507 15.0883 20.9858 15.0883C25.2215 15.0883 29.0833 16.6449 31.9977 19.1993C34.911 16.6437 38.7751 15.0861 43.0142 15.085C52.0861 15.0817 59.4414 22.2048 59.4436 30.9933C59.4414 30.9955 59.4414 30.9966 59.4414 31.001Z" fill="white"/>
<path d="M33.6237 20.8428H30.5031C30.0838 21.3917 29.6895 21.9756 29.3325 22.5465H34.8997C34.5133 21.9515 34.0861 21.3829 33.6237 20.8428Z" fill="white"/>
<path d="M37.0753 29.9131C37.4708 29.9131 37.9807 29.9461 38.4918 30.0043L38.7705 28.5629C38.2595 28.4949 37.4935 28.4399 37.0289 28.4399C34.8487 28.4399 34.0804 29.3994 34.0816 30.5465C34.0816 31.3325 34.5462 31.8759 35.5898 32.2842C36.3773 32.5949 36.4952 32.6871 36.4952 32.9725C36.4952 33.3589 36.1484 33.5345 35.3824 33.5345C34.7773 33.5345 34.2447 33.4577 33.617 33.2886L33.3394 34.7266L33.4323 34.7431L33.7801 34.8046C33.8957 34.8266 34.0816 34.8452 34.3139 34.8606C34.7773 34.8936 35.1241 34.9122 35.3801 34.9122C37.4697 34.9122 38.4215 34.2547 38.4215 32.8331C38.4215 31.9768 38.0272 31.4774 37.0289 31.0976C36.2164 30.7826 36.1235 30.7112 36.1235 30.4192C36.1235 30.0844 36.4476 29.9131 37.0753 29.9131Z" fill="white"/>
<path d="M47.2442 28.5665C47.1501 28.5445 47.0799 28.5325 47.0799 28.5292C47.0107 28.5193 46.9405 28.5138 46.8702 28.5138C46.2425 28.5138 45.779 28.7904 45.1762 29.527L45.362 28.5807H43.5977L42.4136 34.8159H44.3637C45.0606 31.0035 45.3609 30.3338 46.2889 30.3338C46.3592 30.3338 46.4283 30.3393 46.5212 30.3492L46.7535 30.3953L47.4527 28.6345C47.2906 28.5741 47.2668 28.5741 47.2442 28.5665Z" fill="white"/>
<path d="M41.3915 30.0968H42.3898L42.6685 28.5796H41.6714L41.9501 27.1482H40.0238L39.1184 31.908L39.0255 32.4009L38.9088 33.0145C38.885 33.2121 38.8623 33.3987 38.8623 33.5732C38.8623 34.458 39.396 34.9432 40.3943 34.9432C40.8351 34.9432 41.2532 34.8817 41.7869 34.7402L42.0419 33.357C41.9048 33.3976 41.7416 33.4174 41.532 33.4174C41.0685 33.4174 40.8578 33.279 40.8578 32.9563C40.8578 32.8993 40.8578 32.8126 40.8816 32.6984L41.3915 30.0968Z" fill="white"/>
<path d="M53.7156 33.8409C53.4369 33.8409 53.2046 34.0594 53.2046 34.3262C53.2046 34.5962 53.4369 34.8146 53.7156 34.8146C53.9944 34.8146 54.2267 34.5962 54.2267 34.3262C54.2267 34.0605 53.9944 33.8409 53.7156 33.8409ZM53.7156 34.6983C53.5071 34.6983 53.3213 34.5325 53.3213 34.3262C53.3213 34.122 53.5071 33.9573 53.7156 33.9573C53.9264 33.9573 54.0873 34.122 54.0873 34.3262C54.0873 34.5325 53.9264 34.6983 53.7156 34.6983Z" fill="white"/>
<path d="M50.4668 28.4026C48.1462 28.4026 46.6379 29.901 46.6379 32.1085C46.6379 33.6904 47.5184 34.9835 49.7258 34.9835C51.7201 34.9835 53.2056 34.0625 53.5082 31.9901C53.5547 31.6277 53.5547 31.6026 53.5547 31.2161C53.5547 29.6332 52.4872 28.4026 50.4668 28.4026ZM51.4187 31.9362C51.2566 32.9078 50.3524 33.4643 49.9343 33.4643C49.2374 33.4775 48.8204 32.9078 48.8204 32.0614C48.8204 31.0603 49.4232 29.9241 50.4215 29.9241C51.2102 29.9241 51.4878 30.5421 51.4878 31.192C51.4878 31.462 51.4651 31.7079 51.4187 31.9362Z" fill="white"/>
<path d="M33.243 32.2305C33.4074 31.5982 33.4776 31.1503 33.4776 30.6893C33.4776 29.3072 32.4555 28.4258 30.8555 28.4258C28.9054 28.4258 27.4674 30.001 27.4674 32.1383C27.4663 33.977 28.604 34.9332 30.7853 34.9332C31.4583 34.9332 32.1076 34.8508 32.7581 34.6818L33.0821 33.1207C32.3864 33.3952 31.7598 33.517 31.0629 33.517C29.949 33.517 29.3688 33.1493 29.3688 32.427C29.3688 32.3688 29.3688 32.326 29.3926 32.2305H33.243ZM30.8317 29.8528C31.4119 29.8528 31.7371 30.1481 31.7371 30.6542C31.7371 30.7376 31.7371 30.8408 31.7371 30.9747L29.5785 30.9725C29.7643 30.248 30.2062 29.8528 30.8317 29.8528Z" fill="white"/>
<path d="M28.1224 37.7202C28.4069 38.3108 28.7389 38.8739 29.0924 39.424H34.9202C35.2737 38.8761 35.5933 38.3086 35.8765 37.7202H28.1224Z" fill="white"/>
<path d="M30.3151 41.0583C30.8352 41.6764 31.3859 42.2659 31.9944 42.7972C32.008 42.785 32.0227 42.7753 32.0363 42.7621H32.0386C32.6369 42.234 33.1955 41.6654 33.7066 41.0583H30.3151Z" fill="white"/>
</svg>
