<svg width="64" height="42" viewBox="0 0 64 42" fill="none" xmlns="http://www.w3.org/2000/svg">
<g clip-path="url(#clip0_16_207)">
<path d="M62 0.656128H2C0.89543 0.656128 0 1.52358 0 2.59363V39.4061C0 40.4762 0.89543 41.3436 2 41.3436H62C63.1046 41.3436 64 40.4762 64 39.4061V2.59363C64 1.52358 63.1046 0.656128 62 0.656128Z" fill="white"/>
<path d="M27.4111 30.9504C27.3198 30.702 27.1542 30.5326 27.0343 30.3125C26.7432 29.9343 26.4006 29.6069 26.0581 29.2796C25.9382 29.24 25.8868 29.1271 25.7727 29.0819C25.6984 28.986 25.5786 28.9352 25.4815 28.8618C25.2874 28.7151 25.0762 28.5909 24.8592 28.4667C24.4482 28.2071 23.9401 28.0433 23.4377 27.874C22.8954 27.7442 22.3245 27.6482 21.7308 27.5691C21.1428 27.4845 20.5548 27.4055 20.1095 27.1741C19.8526 27.1006 19.6642 26.9595 19.4416 26.8466C19.236 26.7111 19.0134 26.5983 18.8421 26.4289C18.6309 26.3047 18.4996 26.0959 18.334 25.9265C18.2769 25.8137 18.1799 25.746 18.1342 25.6218C18.0771 25.5992 18.06 25.5314 18.0258 25.4918C17.9858 25.4467 17.9858 25.3564 17.9173 25.3395C17.883 25.5709 17.8945 25.8475 17.9173 26.0846C17.9458 26.1862 17.9572 26.3103 17.9858 26.412C18.0029 26.5024 18.0886 26.6491 18.0543 26.7168C16.2731 26.6264 14.9715 26.0677 13.8412 25.3338C13.2817 24.9669 12.8022 24.521 12.3569 24.0411C12.1628 23.7759 11.9515 23.5219 11.7803 23.2284C11.6033 22.9405 11.4549 22.613 11.295 22.3082C11.0324 21.6478 10.7869 20.9704 10.6956 20.1407C10.5757 19.3673 10.6043 18.3795 10.7812 17.6626C10.844 17.2675 10.9753 16.9344 11.0895 16.5901C11.1637 16.432 11.2436 16.274 11.3122 16.1103C11.4092 15.9748 11.4606 15.7886 11.5805 15.67C11.9059 15.066 12.3911 14.6144 12.8878 14.1798C13.4244 13.7903 14.0353 13.4742 14.7717 13.2822C15.4796 13.1242 16.4444 13.096 17.2094 13.2596C18.7622 13.5757 19.9325 14.2644 20.9144 15.145C21.9078 16.0087 22.6728 17.1037 23.198 18.436C23.7403 19.7004 23.9287 21.6704 23.4435 23.1042C23.2436 22.9912 23.0438 22.884 22.844 22.7767C22.6043 22.709 22.3702 22.63 22.0905 22.6018C21.7536 22.5962 21.4225 22.6018 21.2056 22.709C21.6452 22.6639 21.9991 22.7824 22.2731 22.884C22.433 22.9461 22.5243 22.9856 22.6499 23.059C22.8954 23.2001 23.1123 23.33 23.295 23.5219C23.8145 23.9734 24.1856 24.5718 24.3626 25.362C24.3626 25.3846 24.3911 25.379 24.3854 25.3395C24.4082 25.3338 24.4197 25.3169 24.4311 25.2943C24.4596 25.2604 24.4939 25.2266 24.5224 25.1871C24.5795 25.1194 24.6366 25.0515 24.6766 24.9669C24.7965 24.8258 24.8935 24.6677 24.9848 24.504C25.1961 24.1992 25.3559 23.8492 25.5386 23.5162C25.8526 22.805 26.1095 22.0373 26.2693 21.168C26.589 19.2375 26.2065 17.4086 25.5386 16.0595C24.8535 14.6991 23.8945 13.6096 22.6556 12.7911C21.4054 11.9783 19.9439 11.38 17.9344 11.3235C17.923 11.284 17.9059 11.3292 17.8659 11.3235C16.8041 11.2897 15.9477 11.4364 15.0971 11.6509C14.7032 11.7807 14.2922 11.8936 13.9439 12.0687C13.5443 12.1985 13.2246 12.4129 12.8592 12.571C12.7279 12.6952 12.5281 12.7573 12.3911 12.8758C12.2141 12.9605 12.0828 13.096 11.9059 13.1807C11.6204 13.429 11.3179 13.6492 11.0381 13.9032C10.7641 14.1516 10.5243 14.4338 10.2617 14.6935C10.2218 14.7838 10.1533 14.8459 10.0847 14.9136C10.0391 14.9983 9.98199 15.0717 9.90777 15.1338C9.87923 15.2353 9.78789 15.2748 9.75363 15.3765C9.67942 15.4329 9.66229 15.5458 9.57666 15.5966C9.50245 15.7772 9.37114 15.907 9.28551 16.0764C9.18275 16.2401 9.10283 16.4208 9.00007 16.5788C8.84022 16.9457 8.66895 17.3014 8.53765 17.6965C8.40064 18.0803 8.28646 18.4867 8.20654 18.927C8.1209 19.3391 8.04098 19.8753 8.0524 20.31C7.99531 20.468 8.04098 20.7615 8.0524 20.9478C8.0524 20.9817 8.02956 20.993 8.02956 21.0155C8.02956 21.2244 8.08665 21.4784 8.09807 21.6083C8.14374 22.088 8.22937 22.5341 8.36638 22.9235C8.45202 23.3582 8.6347 23.6969 8.766 24.0864C8.96581 24.4137 9.10283 24.8033 9.3426 25.0968C9.51957 25.4411 9.77076 25.712 10.0105 25.9942C10.2674 26.2652 10.5243 26.5418 10.8326 26.762C11.3978 27.2474 12.06 27.6369 12.785 27.9699C14.138 28.6191 16.159 29.0424 17.9744 28.9352C18.4368 28.8731 18.9049 28.8167 19.3274 28.7151C19.7156 28.5739 20.1666 28.4893 20.6347 28.4328C21.7023 28.3651 22.6271 28.4611 23.4492 28.6981C24.2827 28.9182 25.002 29.2513 25.6242 29.686C25.9553 29.8779 26.2294 30.1262 26.5091 30.3633C26.7945 30.6061 27.0229 30.9052 27.2855 31.1762C27.3198 31.2778 27.3883 31.3511 27.4396 31.4415C27.5082 31.5149 27.4739 31.6842 27.6395 31.6616C27.7422 31.56 27.6223 31.4132 27.6166 31.289C27.5139 31.1818 27.491 31.0407 27.4111 30.9504Z" fill="#FF7124"/>
<path d="M23.2655 24.9442C23.2427 24.9442 23.237 24.9611 23.2198 24.9668C23.1799 25.0515 23.197 25.1869 23.2198 25.2716C23.3397 25.5144 23.3797 25.8305 23.6423 25.932C23.7679 25.8926 23.7565 25.7119 23.7508 25.5369C23.6937 25.3224 23.6137 25.1304 23.4824 24.9894C23.3911 24.9555 23.3283 24.899 23.2655 24.9442ZM21.7127 25.5595C21.7127 25.5482 21.6956 25.5369 21.6899 25.5595C21.4729 25.5312 21.3987 25.6498 21.2902 25.7345C21.1018 26.2255 21.4044 26.7053 21.9353 26.6997C22.1466 26.649 22.2779 26.5134 22.3121 26.282C22.2836 25.87 22.1066 25.6047 21.7127 25.5595Z" fill="#FF7124"/>
<path d="M34.5119 23.996C34.5975 24.3517 34.7802 24.6057 34.9857 24.8427C35.1912 25.0798 35.431 25.2774 35.7222 25.4242C35.9962 25.5935 36.293 25.7346 36.6356 25.8305C36.8011 25.887 36.961 25.9547 37.1665 25.9773C37.3092 26.0564 37.4805 26.0959 37.4919 26.299C37.4862 26.5418 37.3206 26.6321 37.1094 26.6772C36.8982 26.6321 36.6356 26.6378 36.4586 26.5588C36.0133 26.5079 35.6536 26.3668 35.2769 26.237C34.5575 25.9604 33.9524 25.5596 33.45 25.0685C33.3473 24.8992 33.2046 24.7637 33.0961 24.6C32.9876 24.4363 32.9134 24.2387 32.7992 24.0751C31.9201 23.9621 31.3206 23.5671 30.7954 23.1098C30.3102 22.5623 29.922 21.9075 29.7621 21.0381C29.5737 20.2027 29.6308 19.1585 29.8535 18.3512C30.3387 16.7877 31.3549 15.7491 33.2731 15.6079C33.804 15.6249 34.2664 15.687 34.6889 15.845C35.117 15.9973 35.5223 16.2796 35.842 16.5732C35.8706 16.5957 35.882 16.6014 35.8991 16.6296C35.9676 16.7256 36.1332 16.861 36.2245 16.9796C36.2417 17.0021 36.236 17.0417 36.2531 17.0698C36.2873 17.1207 36.3387 17.1433 36.373 17.1884C36.3901 17.2166 36.3844 17.2505 36.4015 17.2731C36.4243 17.307 36.4529 17.3578 36.4871 17.4199C36.4986 17.4424 36.5385 17.4594 36.5442 17.4763C36.5956 17.5722 36.6184 17.6908 36.6641 17.7981C36.7098 17.9109 36.7726 18.0069 36.8125 18.1198C36.9267 18.4528 37.0009 18.848 37.0466 19.2544C37.1608 20.4285 36.9267 21.4784 36.4871 22.2574C36.2816 22.6639 35.9962 22.9969 35.6594 23.2792C35.3511 23.6009 34.9286 23.7928 34.5119 23.996ZM33.0961 16.6465C32.8392 16.6635 32.685 16.782 32.4738 16.8498C32.3368 16.9739 32.1655 17.0698 32.0628 17.2279C31.8915 17.3239 31.8458 17.5384 31.7088 17.6626C31.5947 17.9448 31.4862 18.2609 31.412 18.6279C31.3435 18.9891 31.2978 19.3955 31.2921 19.7963C31.2864 20.8011 31.5033 21.8002 31.9086 22.3929C32.1484 22.6808 32.4396 22.9179 32.7935 23.0929C32.999 23.1098 33.1589 23.1775 33.3815 23.1831C33.5071 23.138 33.7126 23.1831 33.7926 23.0929C33.9752 23.1041 34.0152 22.9856 34.1751 22.9743C34.2607 22.8896 34.352 22.8219 34.4719 22.7711C34.5804 22.6526 34.6831 22.534 34.7973 22.4211C34.8544 22.3365 34.8887 22.2179 34.9743 22.1558C35.4881 21.1849 35.5452 19.4069 35.2084 18.2779C35.0828 17.8658 34.9058 17.5327 34.706 17.2561C34.489 17.036 34.2321 16.8498 33.941 16.703C33.7069 16.6522 33.4843 16.5901 33.176 16.6183C33.1589 16.6183 33.1418 16.6239 33.1475 16.6465C33.136 16.6465 33.1189 16.6465 33.0961 16.6465ZM39.3244 15.828C39.7869 15.845 40.3292 15.7885 40.7402 15.8563C40.8316 15.9973 40.7973 16.1667 40.7973 16.3248C40.8316 18.4642 40.7973 20.7616 40.7973 22.9461C40.7973 23.1211 40.803 23.3017 40.7973 23.4711C40.7916 23.6178 40.8316 23.7758 40.7402 23.9114C40.5347 23.9621 40.2379 23.9395 39.9752 23.9395C39.6955 23.9395 39.4215 23.9791 39.2388 23.8832C39.1874 21.2979 39.1874 18.5093 39.2388 15.9184C39.2502 15.8732 39.2788 15.845 39.3244 15.828ZM42.8639 15.828H44.2512C44.3768 15.9973 44.4167 16.2514 44.4567 16.4997C44.8734 18.069 45.2845 19.6439 45.667 21.2526C45.7583 21.264 45.7298 21.1567 45.7583 21.1059C45.7983 21.0664 45.7754 20.9704 45.8154 20.9309C45.8325 20.8011 45.9125 20.7334 45.9067 20.5809C46.0095 20.3834 46.0438 20.1124 46.1408 19.9092C46.2607 19.4351 46.4205 18.9948 46.5576 18.5375C46.6889 18.0634 46.8658 17.6343 46.9686 17.1377C47.1627 16.7369 47.2084 16.1893 47.4424 15.828H48.0304C48.2417 16.2232 48.3216 16.7481 48.5043 17.1715C48.6242 17.6457 48.7897 18.0746 48.9153 18.5431C49.2065 19.452 49.509 20.3495 49.7716 21.2865C49.8915 21.1116 49.8915 20.818 49.9772 20.6148C50.0285 20.3834 50.0742 20.1463 50.1541 19.9431C50.3825 19.0173 50.5994 18.086 50.862 17.1998C50.9591 16.7369 51.0561 16.2627 51.216 15.8563C51.5585 15.8054 52.0837 15.8054 52.4263 15.8563C52.4548 16.2006 52.2949 16.5732 52.1922 16.8779C52.1351 17.2505 51.9981 17.5384 51.9239 17.8997C51.7126 18.5601 51.5528 19.2601 51.3359 19.9149C51.1703 20.6148 50.9477 21.2583 50.7764 21.9583C50.6622 22.28 50.5823 22.6356 50.4795 22.98C50.3654 23.2961 50.3254 23.6855 50.1541 23.9453H49.3263C49.1151 23.5783 49.0409 23.0815 48.8525 22.6921C48.4415 21.4051 47.9848 20.1689 47.5851 18.8706C47.4481 19.0117 47.4481 19.2995 47.3511 19.4802C47.2883 19.7004 47.2255 19.9205 47.1456 20.1237C47.0314 20.5697 46.8601 20.9479 46.7631 21.4051C46.5975 21.8059 46.4776 22.2518 46.352 22.6921C46.1808 23.0759 46.118 23.5671 45.9067 23.917C45.6898 23.9847 45.3473 23.9283 45.079 23.9453C44.8734 23.7137 44.8506 23.2961 44.725 22.98C44.628 22.6526 44.5595 22.2913 44.4339 21.9865C44.274 21.2752 44.0342 20.6487 43.8744 19.9431C43.6632 19.2883 43.4805 18.6052 43.2864 17.9279C43.1779 17.6061 43.098 17.2619 42.9895 16.9344C42.9381 16.5844 42.6984 16.2683 42.784 15.8845C42.7954 15.8563 42.8297 15.8393 42.8639 15.828ZM54.5157 15.828C54.9781 15.845 55.5147 15.7885 55.9315 15.8563C56.0342 16.1611 55.9886 16.4885 55.9886 16.8158V22.9405C55.9886 23.2735 56.0285 23.5953 55.9315 23.9057C55.6118 23.9395 55.1437 23.9565 54.7498 23.9339C54.6356 23.9283 54.4986 23.9621 54.4243 23.8774C54.3216 23.5727 54.3673 23.2509 54.3673 22.9122V16.8498C54.3673 16.4828 54.333 16.1273 54.4243 15.8845C54.4472 15.8563 54.4814 15.8393 54.5157 15.828Z" fill="#FF7124"/>
</g>
<defs>
<clipPath id="clip0_16_207">
<rect width="64" height="40.6875" fill="white" transform="translate(0 0.656128)"/>
</clipPath>
</defs>
</svg>
