<svg width="124" height="122" viewBox="0 0 124 122" fill="none" xmlns="http://www.w3.org/2000/svg">
<path d="M56.2669 52.986C56.3228 52.7966 56.3788 52.5934 57.1758 52.5934C59.65 52.5934 60.1247 54.2586 60.1247 55.6265C60.1247 56.4523 59.6635 60.6226 55.2607 60.6226C54.6039 60.6226 54.2681 60.5417 54.2681 60.0948C54.2681 59.878 54.4502 59.2822 54.5756 58.8353L56.2669 52.986ZM53.7097 52.4034C54.4225 52.4575 54.786 52.5254 54.786 52.986C54.786 53.2571 54.6741 53.6765 54.6322 53.8255L52.9133 59.8106C52.676 60.6501 52.4662 60.6905 51.7811 60.8121V61.029H55.3173C59.4267 61.029 61.677 58.5237 61.677 55.7892C61.677 54.3676 60.8105 52.1871 57.5959 52.1871H53.7104V52.4034H53.7097ZM64.5693 59.6342C64.0244 60.4332 63.4094 61.1779 62.6265 61.1779C61.9697 61.1779 61.9697 60.5821 61.9697 60.3385C61.9697 59.7022 63.0736 56.3438 63.0736 55.9649C63.0736 55.6808 62.9617 55.6127 62.1929 55.6127V55.3959C62.7243 55.3691 63.8842 55.1522 64.429 55.0576L64.4709 55.0843L63.2409 59.4442C63.1849 59.6336 63.017 60.1752 63.017 60.3378C63.017 60.4326 63.1148 60.541 63.2409 60.541C63.4088 60.541 63.814 60.2699 64.3872 59.4847L64.5693 59.6342ZM64.2901 53.6086C63.9408 53.6086 63.6191 53.378 63.6191 52.9044C63.6191 52.4308 63.9408 52.1734 64.2759 52.1734C64.7372 52.1734 64.9746 52.6202 64.9746 52.9181C64.9746 53.1885 64.7507 53.6086 64.2901 53.6086ZM71.0968 59.6206C70.3982 60.5279 69.9087 61.1505 69.1541 61.1505C68.5108 61.1505 68.4831 60.7442 68.4831 60.3516C68.4831 60.0269 69.5175 56.7227 69.5175 56.1811C69.5175 55.9375 69.4339 55.748 69.1682 55.748C68.4973 55.748 67.6166 56.9128 67.1135 57.6706C66.4709 58.6047 66.2888 59.1874 65.7163 61.0284H64.6684C65.1013 59.4984 66.0379 56.3301 66.0379 56.0453C66.0379 55.8422 65.8983 55.6932 65.1437 55.6932V55.4763C65.8983 55.3411 66.6529 55.2059 67.4082 55.0569L67.45 55.0837L66.5551 57.9136L66.5828 57.9405C67.2396 56.9383 68.5256 55.0563 69.6854 55.0563C70.3287 55.0563 70.6497 55.3809 70.6497 55.95C70.6497 56.532 69.5317 59.8767 69.5317 60.283C69.5317 60.4861 69.7273 60.5136 69.7556 60.5136C70.0354 60.5136 70.3847 60.0804 70.9019 59.4436L71.0968 59.6206ZM72.8859 57.6163C73.4031 56.4111 74.3532 55.3691 75.1085 55.3691C75.4578 55.3691 75.5974 55.6265 75.5974 55.9106C75.5974 56.0191 75.5279 57.6438 72.6485 58.2128L72.8859 57.6163ZM75.7646 59.5527C75.066 60.1079 74.4787 60.5684 73.7241 60.5684C73.1367 60.5684 72.4105 60.2568 72.4105 59.3358C72.4105 59.0647 72.4806 58.7942 72.5501 58.51L72.9412 58.4558C75.2056 58.1442 76.5192 57.0474 76.5192 55.978C76.5192 55.3822 76.0856 55.0569 75.3729 55.0569C73.4024 55.0569 71.194 57.3316 71.194 59.2678C71.194 60.121 71.6411 61.1767 73.1091 61.1767C74.507 61.1767 75.7788 59.931 75.9325 59.714L75.7646 59.5527ZM76.6176 61.0284L77.7498 57.0748C77.8894 56.5738 77.9731 56.1139 77.9731 55.9917C77.9731 55.8022 77.9036 55.586 77.47 55.586C77.3163 55.586 77.1625 55.6265 77.0088 55.6533V55.4234C77.7215 55.3286 78.5463 55.1522 79.1754 55.0576L79.2172 55.0843L78.5327 57.779L78.5604 57.8058L78.6723 57.5348C79.1336 56.6411 80.1963 55.0569 81.0763 55.0569C81.398 55.0569 81.7473 55.26 81.7473 55.72C81.7473 56.4242 81.2443 56.4242 81.0905 56.4242C80.4897 56.4242 80.6994 55.9369 80.3636 55.9369C79.9306 55.9369 79.0918 57.44 78.9798 57.6432C78.4485 58.6178 78.2529 59.2274 77.6797 61.0284H76.6176ZM81.0339 59.0516C81.1317 59.6474 81.3555 60.8931 82.4877 60.8931C83.27 60.8931 83.4939 60.2431 83.4939 59.7963C83.4939 58.9026 81.8309 57.6027 81.8309 56.5601C81.8309 56.1406 82.0265 55.0569 83.508 55.0569C84.1372 55.0569 84.4164 55.2874 84.8358 55.2874C85.0738 55.2874 85.1574 55.1522 85.2269 55.0432H85.4225L85.1426 56.9259H84.9188C84.8493 56.1537 84.5135 55.3685 83.6052 55.3685C83.2977 55.3685 82.8506 55.49 82.8506 56.1537C82.8506 57.0069 84.5553 58.2121 84.5553 59.3626C84.5553 60.8383 83.2552 61.1773 82.473 61.1773C82.0535 61.1773 81.4945 60.9199 81.0892 60.9199C80.8937 60.9199 80.8377 61.0552 80.7541 61.2048H80.5302L80.81 59.0516H81.0339ZM96.9819 54.6917C96.9543 54.3128 96.8282 52.498 94.8294 52.498C92.0343 52.498 90.6081 55.7748 90.6081 57.7653C90.6081 59.5396 91.3769 60.6631 93.0404 60.6631C94.6197 60.6631 95.5982 59.7016 96.2692 59.0653L96.5065 59.2548C95.9893 59.8505 94.7452 61.272 92.7046 61.272C91.0829 61.272 89.043 60.3242 89.043 57.6163C89.043 55.0033 91.5165 52.0107 94.7175 52.0107C95.7236 52.0107 96.5767 52.3354 96.8977 52.3354C97.3029 52.3354 97.3866 52.1727 97.4567 52.0375H97.75L97.2328 54.7323L96.9819 54.6917ZM99.5532 59.4847C98.8404 60.5273 98.2949 61.1773 97.4284 61.1773C96.8134 61.1773 96.7574 60.7168 96.7574 60.3378C96.7574 60.053 98.7845 52.9854 98.7845 52.7012C98.7845 52.3497 98.1971 52.3497 97.8337 52.3628V52.146C98.5606 52.0649 99.2875 51.9428 100.014 51.7808L100.084 51.8481L97.9733 59.6879C97.9456 59.8101 97.8337 60.1752 97.8337 60.3242C97.8337 60.4052 97.8337 60.5952 98.0434 60.5952C98.3927 60.5952 98.6867 60.2163 99.3711 59.3626L99.5532 59.4847ZM106.011 59.5663C105.13 60.7984 104.767 61.1505 104.068 61.1505C103.439 61.1505 103.411 60.6495 103.411 60.4463C103.411 60.2026 103.691 59.0653 104.012 57.9548H103.97C103.019 59.4847 101.986 61.1773 100.727 61.1773C100.224 61.1773 99.9585 60.9741 99.9585 60.3783C99.9585 59.7826 101.021 56.3699 101.021 56.0048C101.021 55.6122 100.755 55.6122 100.182 55.6122V55.4234C100.888 55.3407 101.588 55.2186 102.279 55.0576L102.321 55.0843L101.048 59.9994C101.006 60.1752 101.048 60.4594 101.342 60.4594C101.943 60.4594 102.824 59.1869 103.299 58.4826C103.984 57.4805 104.292 56.6273 104.837 55.1785H105.871L104.767 59.2274C104.684 59.4984 104.501 60.0942 104.501 60.2973C104.501 60.3647 104.515 60.5142 104.669 60.5142C104.935 60.5142 105.326 60.0399 105.816 59.4442L106.011 59.5663ZM111.084 56.8716C111.084 58.009 109.757 60.8663 107.841 60.8663C107.185 60.8663 107.185 60.5142 107.185 60.4195C107.185 58.9979 108.527 55.7206 110.064 55.7206C110.945 55.7206 111.084 56.4523 111.084 56.8716ZM107.199 52.3223C108.009 52.3361 108.107 52.4034 108.107 52.7149C108.107 52.9044 107.982 53.2428 107.884 53.6223L105.983 60.4058V60.46C105.983 60.7579 107.059 61.1779 107.8 61.1779C109.939 61.1779 112.273 58.8353 112.273 56.6959C112.273 55.7075 111.588 55.0576 110.61 55.0576C109.352 55.0576 108.471 56.317 108.01 57.0206L107.982 57.0075C108.458 55.4769 109.1 52.9586 109.408 51.8487L109.338 51.7813C108.611 51.9166 107.899 52.0113 107.2 52.093V52.3223H107.199ZM51.7856 71.3628C52.4707 71.2406 52.6805 71.2001 52.9178 70.3607L54.6367 64.3756C54.7204 64.1044 54.7905 63.7798 54.7905 63.5361C54.7905 63.0624 54.4135 63.0219 53.812 62.954V62.7371H57.2646V62.954C56.5801 63.0762 56.3563 63.1029 56.1183 63.9561L54.3994 69.9544C54.3157 70.2255 54.2456 70.4959 54.2456 70.8213C54.2456 71.2544 54.5949 71.2955 55.1964 71.3628V71.5797H51.7856V71.3628Z" fill="white"/>
<path d="M61.9189 70.1717C61.2197 71.079 60.7308 71.7022 59.9755 71.7022C59.3329 71.7022 59.3046 71.2959 59.3046 70.9033C59.3046 70.5786 60.339 67.2744 60.339 66.7329C60.339 66.4892 60.2554 66.2998 59.9897 66.2998C59.3187 66.2998 58.438 67.4645 57.935 68.2223C57.2917 69.1565 57.1103 69.7385 56.5371 71.5801H55.4891C55.9221 70.0502 56.8587 66.8812 56.8587 66.597C56.8587 66.3938 56.7191 66.2449 55.9645 66.2449V66.028C56.7191 65.8928 57.4737 65.757 58.229 65.608L58.2708 65.6354L57.3766 68.4653L57.4042 68.4927C58.0611 67.4906 59.347 65.6086 60.5069 65.6086C61.1502 65.6086 61.4718 65.9339 61.4718 66.5029C61.4718 67.0849 60.3538 70.4296 60.3538 70.836C60.3538 71.0392 60.5493 71.0659 60.5776 71.0659C60.8575 71.0659 61.2068 70.6328 61.7234 69.9965L61.9189 70.1717ZM65.6507 66.2174H64.4767L63.2467 70.7263C63.2326 70.7668 63.2326 70.7936 63.2326 70.8348C63.2326 70.9563 63.302 71.0647 63.4564 71.0647C63.7363 71.0647 64.2252 70.4284 64.5745 69.9953L64.7559 70.09C64.0431 71.1327 63.4982 71.7284 62.7713 71.7284C62.4915 71.7284 62.1003 71.5932 62.1003 71.1868C62.1003 70.9837 62.366 70.1579 62.422 69.9411L63.4281 66.2174H62.3937C62.3802 66.1364 62.3802 66.0685 62.422 66.0006C62.5056 65.8785 62.8967 65.7837 63.1348 65.6622C63.596 65.4316 64.267 64.8227 64.6581 64.3485C64.7141 64.2812 64.77 64.159 64.8955 64.1864C64.9933 64.159 65.0216 64.2812 64.9933 64.3896L64.6021 65.7844H65.7202L65.6507 66.2174ZM66.8942 68.1674C67.4114 66.9622 68.3622 65.9196 69.1168 65.9196C69.4661 65.9196 69.6064 66.1769 69.6064 66.4612C69.6064 66.5696 69.5363 68.1943 66.6575 68.7632L66.8942 68.1674ZM69.7736 70.1038C69.075 70.659 68.4877 71.1189 67.7331 71.1189C67.1458 71.1189 66.4195 70.8074 66.4195 69.8869C66.4195 69.6158 66.4889 69.3453 66.5591 69.0611L66.9502 69.0069C69.2146 68.6953 70.5282 67.5985 70.5282 66.5285C70.5282 65.9327 70.0947 65.6074 69.3819 65.6074C67.4114 65.6074 65.2023 67.882 65.2023 69.8183C65.2023 70.6714 65.6494 71.7272 67.1175 71.7272C68.5153 71.7272 69.7872 70.4814 69.9409 70.2652L69.7736 70.1038ZM70.9059 71.5795L72.0381 67.6259C72.1777 67.1249 72.2619 66.6643 72.2619 66.5428C72.2619 66.3533 72.1918 66.1364 71.7589 66.1364C71.6051 66.1364 71.4514 66.1769 71.2976 66.2043V65.9738C72.0104 65.879 72.8351 65.7027 73.4643 65.608L73.5061 65.6354L72.8216 68.3301L72.8493 68.3569L72.9612 68.0859C73.4225 67.1922 74.4845 65.6074 75.3652 65.6074C75.6869 65.6074 76.0362 65.8105 76.0362 66.2711C76.0362 66.9753 75.5331 66.9753 75.3794 66.9753C74.7785 66.9753 74.9882 66.4879 74.6531 66.4879C74.2195 66.4879 73.3806 67.9911 73.2693 68.1943C72.738 69.1689 72.5424 69.7785 71.9692 71.5795H70.9059Z" fill="white"/>
<path d="M81.64 70.1714C80.9414 71.0789 80.4519 71.7021 79.6973 71.7021C79.0539 71.7021 79.0263 71.2957 79.0263 70.903C79.0263 70.5784 80.0607 67.2742 80.0607 66.7326C80.0607 66.4889 79.9771 66.2994 79.7114 66.2994C79.0411 66.2994 78.1597 67.4643 77.6567 68.222C77.014 69.1563 76.832 69.7383 76.2588 71.5799H75.2108C75.6444 70.05 76.5804 66.8809 76.5804 66.5968C76.5804 66.3936 76.4408 66.2446 75.6856 66.2446V66.0277C76.4402 65.8925 77.1954 65.7567 77.95 65.6077L77.9918 65.6352L77.097 68.4651L77.1247 68.4925C77.7815 67.4904 79.0675 65.6083 80.228 65.6083C80.8713 65.6083 81.1923 65.9336 81.1923 66.5026C81.1923 67.0847 80.0742 70.4294 80.0742 70.8358C80.0742 71.039 80.2698 71.0658 80.2981 71.0658C80.5779 71.0658 80.9273 70.6327 81.4445 69.9963L81.64 70.1714Z" fill="white"/>
<path d="M82.7163 70.1035C82.7163 68.8845 83.9746 65.9063 85.6099 65.9063C86.0151 65.9063 86.4069 66.1636 86.4069 66.8136C86.4069 68.1404 85.0373 71.0651 83.5552 71.0651C83.1776 71.0651 82.7163 70.8214 82.7163 70.1035ZM87.79 70.0897C87.1609 70.6855 86.881 71.0246 86.6719 71.0246C86.56 71.0246 86.4764 70.9435 86.4764 70.8482C86.4764 70.4288 87.7623 65.8109 87.8042 65.6489L87.7064 65.6084L86.854 65.7031L86.8122 65.7436L86.6726 66.34H86.6449C86.6031 65.9604 86.1419 65.6084 85.541 65.6084C83.6819 65.6084 81.5436 68.1404 81.5436 70.1309C81.5436 70.5236 81.5854 71.7282 82.9833 71.7282C83.8221 71.7282 84.5626 71.3218 85.7224 69.6704L85.7501 69.6971C85.5262 70.5229 85.4568 70.8208 85.4568 71.1324C85.4568 71.3623 85.4568 71.7144 86.0441 71.7144C86.6449 71.7144 87.1203 71.2271 87.9592 70.225L87.79 70.0897ZM91.9412 66.2173H90.7672L89.5372 70.726C89.5231 70.7665 89.5231 70.7934 89.5231 70.8345C89.5231 70.956 89.5932 71.0644 89.7469 71.0644C90.0268 71.0644 90.5157 70.4281 90.865 69.995L91.0464 70.0897C90.3336 71.1324 89.7887 71.7282 89.0618 71.7282C88.782 71.7282 88.3908 71.593 88.3908 71.1866C88.3908 70.9834 88.6565 70.1577 88.7125 69.9409L89.7186 66.2173H88.6842C88.6707 66.1362 88.6707 66.0683 88.7125 66.0004C88.7961 65.8782 89.1872 65.7835 89.4253 65.662C89.8865 65.4314 90.5575 64.8226 90.9486 64.3483C91.0046 64.2809 91.0605 64.1589 91.1866 64.1863C91.2844 64.1589 91.3121 64.2809 91.2844 64.3894L90.8933 65.7841H92.0113L91.9412 66.2173ZM94.6251 70.1851C94.0795 70.9841 93.4652 71.7288 92.6823 71.7288C92.0255 71.7288 92.0255 71.133 92.0255 70.8893C92.0255 70.2531 93.1294 66.8953 93.1294 66.5157C93.1294 66.2309 93.0174 66.1636 92.2487 66.1636V65.9468C92.7794 65.92 93.9393 65.7032 94.4848 65.6084L94.5266 65.6358L93.2966 69.9957C93.2407 70.1851 93.0728 70.7267 93.0728 70.8893C93.0728 70.9841 93.1706 71.0925 93.2966 71.0925C93.4645 71.0925 93.8698 70.8214 94.4424 70.0362L94.6251 70.1851ZM94.3452 64.1594C93.9959 64.1594 93.6743 63.9295 93.6743 63.4553C93.6743 62.9816 93.9959 62.7242 94.3311 62.7242C94.7923 62.7242 95.0297 63.171 95.0297 63.4689C95.0303 63.7394 94.8065 64.1594 94.3452 64.1594ZM99.1957 65.8925C99.866 65.8925 100.174 66.4883 100.174 67.1925C100.174 68.6415 99.0702 71.444 97.4768 71.444C96.7782 71.444 96.3587 70.9566 96.3587 70.1845C96.3581 68.5872 97.6299 65.8925 99.1957 65.8925ZM99.2935 65.6077C97.2529 65.6077 95.1841 67.7883 95.1841 69.7782C95.1841 70.9018 95.8132 71.7275 97.2947 71.7275C99.4331 71.7275 101.348 69.2772 101.348 67.6113C101.348 66.7183 100.915 65.6077 99.2935 65.6077Z" fill="white"/>
<path d="M107.442 70.1718C106.743 71.0792 106.254 71.7024 105.499 71.7024C104.856 71.7024 104.828 71.2961 104.828 70.9035C104.828 70.5787 105.863 67.2745 105.863 66.733C105.863 66.4894 105.779 66.2999 105.513 66.2999C104.843 66.2999 103.962 67.4646 103.459 68.2224C102.815 69.1566 102.634 69.7387 102.061 71.5802H101.013C101.447 70.0503 102.383 66.8813 102.383 66.5972C102.383 66.3939 102.243 66.245 101.488 66.245V66.0281C102.242 65.8929 102.998 65.7571 103.752 65.6081L103.794 65.6355L102.899 68.4655L102.927 68.4929C103.584 67.4908 104.87 65.6088 106.03 65.6088C106.673 65.6088 106.994 65.9341 106.994 66.503C106.994 67.0851 105.876 70.4298 105.876 70.8361C105.876 71.0393 106.072 71.0661 106.1 71.0661C106.38 71.0661 106.729 70.633 107.247 69.9967L107.442 70.1718ZM108.798 70.1039C108.798 68.8849 110.056 65.9067 111.691 65.9067C112.096 65.9067 112.488 66.1641 112.488 66.814C112.488 68.1408 111.118 71.0654 109.636 71.0654C109.259 71.0654 108.798 70.8218 108.798 70.1039ZM113.871 70.0902C113.242 70.686 112.962 71.0249 112.753 71.0249C112.641 71.0249 112.558 70.944 112.558 70.8486C112.558 70.4292 113.844 65.8113 113.885 65.6493L113.788 65.6088L112.935 65.7035L112.893 65.744L112.753 66.3404H112.726C112.684 65.9608 112.222 65.6088 111.622 65.6088C109.762 65.6088 107.624 68.1408 107.624 70.1313C107.624 70.5239 107.666 71.7285 109.064 71.7285C109.902 71.7285 110.643 71.3223 111.803 69.6707L111.831 69.6976C111.607 70.5233 111.537 70.8212 111.537 71.1328C111.537 71.3628 111.537 71.7149 112.124 71.7149C112.726 71.7149 113.2 71.2275 114.039 70.2254L113.871 70.0902ZM117.044 70.0359C116.331 71.0785 115.786 71.7285 114.92 71.7285C114.305 71.7285 114.249 71.2687 114.249 70.8891C114.249 70.6049 116.275 63.5366 116.275 63.2525C116.275 62.9003 115.688 62.9003 115.324 62.914V62.6972C116.058 62.6149 116.786 62.4928 117.505 62.3314L117.575 62.3993L115.464 70.2391C115.436 70.3607 115.324 70.7265 115.324 70.8754C115.324 70.9565 115.324 71.1465 115.534 71.1465C115.883 71.1465 116.177 70.7676 116.862 69.9145L117.044 70.0359ZM119.004 62.6367H119.148C119.281 62.6367 119.389 62.7009 119.389 62.8941C119.389 63.0735 119.323 63.2019 119.151 63.2019H119.004V62.6367ZM118.613 62.623C118.784 62.6398 118.781 62.6367 118.781 62.7856V63.5945C118.781 63.7398 118.784 63.7398 118.613 63.7572V63.8077H119.172V63.7572C118.998 63.7404 119.004 63.7404 119.004 63.5945V63.263H119.168C119.388 63.5778 119.476 63.8077 119.588 63.8077H119.808V63.7771C119.741 63.7298 119.637 63.6152 119.546 63.493L119.346 63.2287C119.504 63.1783 119.622 63.0492 119.622 62.8773C119.622 62.6672 119.43 62.5725 119.224 62.5725H118.612V62.623H118.613ZM120.353 63.2088C120.353 62.5687 119.84 62.0477 119.175 62.0477C119.018 62.0473 118.862 62.0772 118.717 62.1354C118.572 62.1937 118.44 62.2794 118.329 62.3873C118.219 62.4953 118.131 62.6236 118.072 62.7645C118.012 62.9056 117.983 63.0566 117.984 63.2088C117.984 63.8482 118.505 64.3629 119.175 64.3629C119.84 64.3629 120.353 63.8482 120.353 63.2088ZM120.161 63.2088C120.161 63.7466 119.724 64.2208 119.175 64.2208C118.616 64.2208 118.176 63.7466 118.176 63.2088C118.176 62.6703 118.613 62.1898 119.175 62.1898C119.728 62.1898 120.161 62.6672 120.161 63.2088Z" fill="white"/>
<path d="M34.4191 75.1484C42.4147 75.1863 48.9712 68.8341 48.9153 61.1052C48.9706 53.165 42.4147 46.8134 34.4191 46.8159H18.3977C10.3063 46.8141 3.74978 53.165 3.64685 61.1052C3.74978 68.8341 10.3063 75.1858 18.3971 75.1484H34.4191Z" fill="white"/>
<path d="M4.66455 61.1052C4.74432 53.6973 10.855 47.7768 18.3977 47.8018C25.9321 47.7768 32.0434 53.6973 32.1303 61.1059C32.0434 68.3031 25.9321 74.2235 18.3977 74.1631C10.855 74.2235 4.74432 68.3025 4.66455 61.1052Z" fill="#FF7124"/>
<path d="M15.3453 53.2216C12.1847 54.6032 9.81353 57.5571 9.75049 61.1051C9.81353 64.5195 12.0715 67.5271 15.3453 68.7423V53.2216ZM21.4489 68.743C24.715 67.5277 26.9723 64.5195 27.0437 61.1056C26.9723 57.4812 24.7143 54.473 21.4489 53.2221V68.743Z" fill="white"/>
</svg>
