<svg width="64" height="62" viewBox="0 0 64 62" fill="none" xmlns="http://www.w3.org/2000/svg">
<path d="M62.3524 10.9103H1.64759C0.736544 10.9103 0 11.6249 0 12.5064V49.4935C0 50.3749 0.736544 51.0907 1.64759 51.0907H62.3524C63.2635 51.0907 64 50.376 64 49.4945V12.5064C64 11.6249 63.2635 10.9103 62.3524 10.9103ZM41.6782 32.7969H48.8669V34.472H43.6816V36.4622H48.4442V38.1352H43.6816V40.5886H49.0969V42.2626H41.6782V32.7969ZM37.6646 22.7889C37.9309 22.4739 38.0872 22.1159 38.2629 21.7823C38.4544 21.4529 38.5688 21.1148 38.664 20.7965C38.7547 20.4781 38.8895 20.1895 38.9235 19.9194C38.9677 19.6482 39.0085 19.4122 39.038 19.2179C39.1037 18.8238 39.1399 18.5989 39.1399 18.5989C39.1399 18.5989 39.1547 18.826 39.1785 19.2234C39.1921 19.4243 39.2045 19.6702 39.2238 19.9502C39.2487 20.2333 39.1853 20.5462 39.1626 20.8975C39.1377 21.2488 39.098 21.6318 38.9745 22.0226C38.8703 22.4179 38.7819 22.8515 38.5734 23.2576C38.4827 23.4684 38.3875 23.6813 38.2912 23.8975C38.1881 24.1116 38.0453 24.306 37.9207 24.5145C37.6759 24.9426 37.3564 25.3225 37.0266 25.7034C36.7082 26.0985 36.3116 26.4081 35.9513 26.7583C35.5513 27.0492 35.1739 27.384 34.7649 27.6222C34.3649 27.8835 33.9683 28.1194 33.5762 28.3148C33.1909 28.5311 32.8068 28.6826 32.4567 28.845C31.9139 29.068 31.4334 29.2414 31.0357 29.3665C31.2159 29.7617 31.3722 30.1733 31.4924 30.6135C31.6147 31.0669 31.7258 31.5301 31.753 32.0593C31.2204 31.9319 30.7728 31.7376 30.3388 31.5334C29.9048 31.3259 29.5059 31.091 29.1331 30.8385C28.383 30.3347 27.7371 29.7452 27.1479 29.1118C26.7014 28.631 26.6414 27.9449 26.9473 27.4093L27.0108 27.3028C27.5071 26.441 28.1031 25.6363 28.834 24.9108C29.1955 24.5463 29.5955 24.2049 30.0397 23.8877C30.2674 23.7307 30.5009 23.5792 30.7433 23.4332C30.9938 23.2916 31.2601 23.1588 31.5513 23.0414C31.5807 23.3443 31.5864 23.6352 31.5705 23.9152C31.5513 24.1917 31.5229 24.4629 31.489 24.7308C31.4074 25.2587 31.2839 25.7615 31.1195 26.2423C31.1014 26.2939 31.0799 26.3423 31.0629 26.3938C31.2363 26.3685 31.4176 26.34 31.6136 26.306C31.9207 26.2336 32.2686 26.1809 32.6153 26.0711C32.9745 25.9822 33.3394 25.8603 33.7088 25.7176C34.0963 25.5947 34.4408 25.3905 34.834 25.2247C35.1751 25.0052 35.5796 24.8218 35.9014 24.5562C36.2425 24.3037 36.587 24.0468 36.8623 23.7351C37.0074 23.5837 37.1728 23.4443 37.2997 23.2839C37.421 23.1182 37.5422 22.9547 37.6646 22.7889ZM24.5042 23.9558C24.5405 23.6045 24.5904 23.2236 24.7263 22.8361C24.8431 22.4442 24.9439 22.0139 25.1649 21.6132C25.2635 21.4068 25.3632 21.1949 25.4663 20.982C25.5762 20.7724 25.7258 20.5824 25.8572 20.3771C26.1133 19.9556 26.4465 19.5856 26.7875 19.2146C27.1173 18.8271 27.5252 18.5308 27.8958 18.1904C28.3025 17.9116 28.6901 17.5889 29.106 17.3617C29.5139 17.1113 29.9173 16.8863 30.3161 16.703C30.7071 16.4988 31.0969 16.3583 31.4516 16.2058C32 15.9994 32.4873 15.8391 32.8884 15.725C32.7207 15.3254 32.5768 14.9094 32.4691 14.4659C32.3603 14.0092 32.264 13.5427 32.2527 13.0125C32.7796 13.1552 33.2227 13.3637 33.651 13.58C34.0782 13.7995 34.4691 14.0443 34.834 14.31C35.5683 14.8358 36.196 15.4439 36.766 16.0938C37.1977 16.5867 37.2351 17.275 36.9133 17.8008L36.8476 17.9061C36.3229 18.7536 35.7009 19.5396 34.9507 20.2443C34.5768 20.5988 34.1643 20.9293 33.7133 21.2334C33.481 21.3816 33.2419 21.5264 32.9938 21.6659C32.7388 21.8009 32.4691 21.925 32.1745 22.0347C32.1552 21.7296 32.1586 21.4387 32.1813 21.1598C32.2108 20.8832 32.247 20.6132 32.2901 20.3464C32.3887 19.8217 32.5269 19.3222 32.706 18.8458C32.7252 18.7953 32.7467 18.747 32.7671 18.6965C32.5926 18.7163 32.4113 18.7393 32.2142 18.7679C31.9048 18.8316 31.5547 18.8754 31.2045 18.9743C30.8431 19.0533 30.4759 19.1641 30.1008 19.2959C29.7088 19.4067 29.3575 19.601 28.9598 19.7558C28.6096 19.9655 28.204 20.1378 27.872 20.3936C27.5241 20.6373 27.1728 20.8832 26.8861 21.1873C26.7399 21.3343 26.57 21.4683 26.4374 21.6264C26.3105 21.7877 26.1847 21.9491 26.0612 22.1072C25.7858 22.4146 25.6181 22.768 25.4323 23.0974C25.2272 23.42 25.1048 23.7548 24.9983 24.071C24.8975 24.3861 24.7547 24.6715 24.7116 24.9404C24.6595 25.2093 24.613 25.4442 24.5756 25.6375C24.4997 26.0304 24.4567 26.2544 24.4567 26.2544C24.4567 26.2544 24.4487 26.0271 24.4351 25.6287C24.4295 25.4267 24.4215 25.1819 24.4125 24.9009C24.3943 24.6177 24.4691 24.307 24.5042 23.9558ZM18.6119 44.3154H17.2045V48.0225H16.2357V44.3154H14.8306V43.5173H18.613L18.6119 44.3154ZM17.1524 42.2626L14.3898 32.7947H16.5654C17.8176 37.9793 17.9422 38.6379 18.119 39.7181H18.1462C18.3229 38.7291 18.4714 37.7664 19.5071 32.7947H21.6714C22.8136 37.9925 22.911 38.493 23.1275 39.7181H23.1547C23.3178 38.8212 23.4799 38.0034 24.7479 32.7947H26.817L24.0657 42.2626H22.1065C21.0992 37.6214 20.9201 36.6982 20.5949 34.8782H20.5688C20.2674 36.6994 20.1065 37.3832 19.0572 42.2626H17.1524ZM22.0113 48.0192C21.9467 47.8074 21.9093 47.5757 21.9093 47.1103C21.9093 46.4977 21.8697 46.2574 21.1501 46.2574H20.1473V48.0203H19.1932V43.5141H21.5456C22.783 43.5141 23.0085 44.401 23.0085 44.7896C23.0085 45.2858 22.749 45.7118 22.289 45.8633C22.6708 46.0246 22.8793 46.164 22.8793 47.0048C22.8793 47.6624 22.8793 47.8271 23.0856 47.9007L23.0867 48.0192H22.0113ZM26.7445 48.0225L26.4453 47.0938H24.7297L24.4068 48.0225H23.3824L25.0402 43.5173H26.162L27.7994 48.0225H26.7445ZM27.8992 32.7947H29.9399V42.2626H27.8992V32.7947ZM31.1977 48.0225L29.3008 44.8105H29.2873V48.0225H28.3819V43.5173H29.404L31.2521 46.6536H31.2635V43.5173H32.17L32.1711 48.0225H31.1977ZM34.8578 48.1432C33.1603 48.1432 32.8703 47.1948 32.8703 46.6371H33.7994C33.8062 46.8885 33.9365 47.3649 34.7864 47.3649C35.2442 47.3649 35.7575 47.2585 35.7575 46.782C35.7575 46.4297 35.4085 46.3364 34.9144 46.2233L34.417 46.1102C33.6646 45.9412 32.9405 45.7776 32.9405 44.7852C32.9405 44.2836 33.217 43.3989 34.7263 43.3989C36.1518 43.3989 36.5326 44.3022 36.5394 44.8544H35.6102C35.5807 44.6547 35.506 44.1771 34.6561 44.1771C34.289 44.1771 33.8459 44.3078 33.8459 44.7161C33.8459 45.0685 34.145 45.1431 34.3399 45.187L35.4708 45.4571C36.1076 45.6086 36.6901 45.86 36.6901 46.6679C36.6901 48.0225 35.2646 48.1432 34.8578 48.1432ZM35.9569 38.5568H33.8482V42.2626H31.8448V32.7936H36.7841C39.3847 32.7936 39.8629 34.6532 39.8629 35.471C39.8629 36.5139 39.319 37.4096 38.3513 37.7258C39.1547 38.0693 39.5898 38.3614 39.5898 40.1276C39.5898 41.5118 39.5898 41.8555 40.0261 42.0124V42.2626H37.7688C37.6329 41.8148 37.5513 41.3274 37.5513 40.3504C37.5513 39.0584 37.4686 38.5578 35.9569 38.5568ZM40.7411 44.3154H38.4045V45.3319H40.4499V46.1289H38.4045V48.0236H37.4334V43.5185H40.7411V44.3154ZM44.9246 48.0203H41.3949V43.5141H44.8147V44.3133H42.3467V45.2606H44.613V46.0575H42.3467V47.2245H44.9246V48.0203ZM49.6113 48.0203H48.5382C48.4737 47.8074 48.4363 47.5757 48.4363 47.1103C48.4363 46.4977 48.3943 46.2574 47.6771 46.2574H46.6742V48.0203H45.7201V43.5141H48.0703C49.3077 43.5141 49.5354 44.401 49.5354 44.7896C49.5354 45.2858 49.2725 45.7118 48.8147 45.8633C49.1955 46.0246 49.4051 46.164 49.4051 47.0048C49.4051 47.6624 49.4051 47.8271 49.6102 47.9007H49.6113V48.0203Z" fill="white"/>
<path d="M36.3932 34.4313H33.8505V36.9626H36.2425C37.3054 36.9626 37.8233 36.607 37.8233 35.6706C37.8233 35.17 37.5932 34.4313 36.3932 34.4313Z" fill="white"/>
<path d="M47.881 44.2966H46.6731V45.5019H47.8108C48.3173 45.5019 48.5632 45.3317 48.5632 44.8861C48.5632 44.6468 48.4533 44.2966 47.881 44.2966Z" fill="white"/>
<path d="M25.5955 44.535H25.5864L24.9893 46.3167H26.1757L25.5955 44.535Z" fill="white"/>
<path d="M21.3564 44.2966H20.1462V45.5019H21.2839C21.7904 45.5019 22.0363 45.3329 22.0363 44.8861C22.0363 44.6468 21.9253 44.2966 21.3564 44.2966Z" fill="white"/>
</svg>
