<svg width="111" height="26" viewBox="0 0 111 26" fill="none" xmlns="http://www.w3.org/2000/svg">
<g clip-path="url(#clip0_16_230)">
<path d="M0 13.7428L2.41371 0.757324H7.6045C11.4149 0.757324 13.569 3.10594 12.7758 7.37992C11.8658 12.2696 8.88597 13.7428 5.09183 13.7428H0Z" fill="white"/>
<path d="M4.4397 10.7148H5.26049C7.06753 10.7148 8.24681 9.66955 8.70425 7.21513C9.2071 4.50902 8.53555 3.7876 6.46735 3.7876H5.72604L4.4397 10.7148Z" fill="#FF7124"/>
<path d="M25.9684 7.17932C25.146 11.5976 21.9748 14.0873 18.4759 14.0873C14.7645 14.0873 12.753 11.5623 13.5755 7.14405C14.3314 3.06725 17.3388 0.415649 21.0177 0.415649C25.2385 0.415649 26.6059 3.7518 25.9684 7.17932Z" fill="white"/>
<path d="M17.4443 7.17981C17.1361 8.83908 17.2107 10.9136 19.0664 10.9136C20.7421 10.9136 21.6943 9.32643 22.0933 7.17981C22.421 5.41155 22.1128 3.53747 20.3949 3.59198C18.6366 3.59037 17.7493 5.5382 17.4443 7.17981Z" fill="#FF7124"/>
<path d="M37.7808 7.93224H37.8132L40.7363 0.759766H44.2271L38.5188 13.7437H34.7085L34.3403 6.20566H34.3078L31.1561 13.7437H27.4965L26.7163 0.759766H30.259L30.7051 7.93224H30.7392L33.7433 0.759766H37.2504L37.7808 7.93224Z" fill="white"/>
<path d="M92.6603 12.0544C93.481 11.681 93.9531 10.9691 94.2061 9.6145C95.0853 4.89003 88.0599 6.0988 88.4217 4.15098C88.5092 3.68126 88.9375 3.41193 89.7907 3.41193C90.1687 3.41193 90.5012 3.48407 90.7494 3.64599C90.9992 3.8095 91.1614 4.08044 91.1436 4.53092H94.8225C94.9637 2.25446 93.812 0.415649 90.5272 0.415649C87.5717 0.415649 84.84 1.45288 84.3274 4.2135C83.4061 9.17364 90.1411 7.93761 90.1411 9.93512C90.1411 10.9371 88.3405 10.703 88.3405 10.703C86.1101 10.703 86.308 8.93637 86.308 8.93637H82.595C82.5285 10.2814 82.741 11.1246 83.1676 11.6521C82.6788 11.641 82.19 11.6308 81.7012 11.6216L81.8618 10.3103H77.3393L77.7189 8.07228H82.1911L82.6015 5.39342H78.2802L78.6257 3.33498H83.2763L83.7386 0.75712H75.3149L73.3051 11.5751L71.5808 11.588L73.7447 0.75712H70.4891L69.1671 7.19535L66.416 0.758723H62.7857L60.6639 12.1699C59.6955 12.2693 58.7369 12.3831 57.7847 12.505C59.2446 11.3315 60.346 9.52793 60.7824 7.17932C61.4215 3.7518 60.0524 0.415649 55.8317 0.415649C52.1527 0.415649 49.1469 3.06725 48.3894 7.14245C47.7762 10.4433 48.743 12.6862 50.8177 13.6096C48.962 13.959 47.1517 14.3406 45.3917 14.7494C46.3552 13.2184 46.7397 10.8313 47.1306 8.72956L48.6132 0.75712H44.9391L42.8904 11.5784C42.8904 11.5784 42.5676 13.5085 41.4029 13.5085H39.6283L38.5301 16.5289C26.3026 19.3279 15.0938 25.5819 15.0938 25.5819H21.4817C21.4817 25.5819 57.2689 5.59221 110.598 15.2111L111.003 14.7606C111 14.7622 106.748 12.9474 92.6603 12.0544Z" fill="white"/>
<path d="M52.2599 7.17981C52.5648 5.5398 53.4521 3.59198 55.2105 3.59198C56.9283 3.53747 57.2365 5.41315 56.9089 7.17981C56.5098 9.32643 55.5576 10.9136 53.882 10.9136C52.0263 10.9136 51.9517 8.83907 52.2599 7.17981ZM65.0211 6.45038L67.584 11.6767C66.4242 11.7215 65.2709 11.7857 64.1273 11.869L65.0211 6.45038Z" fill="#FF7124"/>
</g>
<defs>
<clipPath id="clip0_16_230">
<rect width="111" height="25.1875" fill="white" transform="translate(0 0.406372)"/>
</clipPath>
</defs>
</svg>
