<svg width="64" height="62" viewBox="0 0 64 62" fill="none" xmlns="http://www.w3.org/2000/svg">
<path d="M6.72746 23.1128C6.7082 23.1567 6.6844 23.2007 6.66967 23.2467C6.49177 23.8263 6.62888 24.3566 7.11047 24.8143C7.53086 25.2138 8.1065 25.0822 8.65834 25.0876C8.65834 24.1194 8.65834 23.1797 8.65834 22.2258C7.55806 22.0919 7.08554 22.3147 6.72746 23.1128Z" fill="white"/>
<path d="M7.10142 32.2029C7.10256 32.4016 7.10482 32.5805 7.10256 32.7605C7.09349 33.9274 7.09576 35.0976 6.75468 36.2381C6.58584 36.8068 6.30596 37.3534 6.07593 37.9078C6.93145 37.9078 7.8425 37.9078 8.76148 37.9078C8.76148 35.9834 8.76148 34.0887 8.76148 32.2029C8.19717 32.2029 7.6578 32.2029 7.10142 32.2029Z" fill="white"/>
<path d="M15.5536 32.4335C15.3915 32.1678 15.1525 31.9626 14.7491 31.945C14.3366 31.9253 14.0907 32.1316 13.906 32.383C13.472 32.9747 13.3451 33.6322 13.2771 34.3326C14.1949 34.3326 15.0663 34.3326 15.9683 34.3326C15.9717 33.6684 15.9128 33.0285 15.5536 32.4335Z" fill="white"/>
<path d="M28.9484 35.9101C28.7648 35.0528 28.0544 34.7092 26.9903 34.9277C26.9122 34.9442 26.8034 35.0418 26.8034 35.1023C26.7898 36.0134 26.7943 36.9266 26.7943 37.8521C27.8572 38.0969 28.7388 37.7005 28.9416 36.8685C29.0164 36.56 29.0141 36.2197 28.9484 35.9101Z" fill="white"/>
<path d="M62.3524 10.9103H1.64759C0.736544 10.9103 0 11.6249 0 12.5064V49.4935C0 50.3749 0.736544 51.0907 1.64759 51.0907H62.3524C63.2635 51.0907 64 50.376 64 49.4945V12.5064C64 11.6249 63.2635 10.9103 62.3524 10.9103ZM26.1144 25.7769C26.1677 25.227 26.3331 24.7033 26.7524 24.251C27.2975 23.6648 28.2969 23.554 29.0266 24.0183C28.928 24.139 28.8374 24.25 28.749 24.3564C28.7173 24.3608 28.698 24.3685 28.681 24.3641C27.7972 24.1325 27.2657 24.34 26.9983 25.0414C26.8011 25.5541 26.7592 26.0831 26.8737 26.609C27.0912 27.6233 27.9195 27.9745 29.1229 27.586C29.234 28.058 29.1705 28.1162 28.6028 28.2446C27.7994 28.4279 27.0164 28.1557 26.5666 27.5761C26.136 27.0218 26.0555 26.4081 26.1144 25.7769ZM6.55071 22.0852C6.92125 21.7679 7.37224 21.6033 7.91615 21.6055C8.30142 21.6066 8.68555 21.6055 9.07195 21.6055C9.49122 21.6066 9.49235 21.6055 9.49235 21.9316C9.49235 23.8932 9.49235 25.8548 9.49235 27.8154C9.49235 27.9339 9.49235 28.0503 9.49235 28.1886C9.2204 28.1886 8.96997 28.1886 8.68102 28.1886C8.68102 27.384 8.68102 26.5783 8.68102 25.779C8.20283 25.6902 8.1779 25.6989 7.97507 26.002C7.53541 26.6627 7.08555 27.3193 6.66176 27.9856C6.55071 28.1579 6.4272 28.2325 6.18697 28.2117C6.00567 28.1963 5.81983 28.2084 5.57847 28.2084C6.1711 27.3434 6.73654 26.5179 7.30538 25.6902C5.61246 25.2478 5.27819 23.1752 6.55071 22.0852ZM11.0448 40.3955C10.6504 40.3955 10.2697 40.3955 9.85496 40.3955C9.85496 39.8564 9.85496 39.3262 9.85496 38.7784C8.36487 38.7784 6.90652 38.7784 5.4187 38.7784C5.4187 39.3087 5.4187 39.8389 5.4187 40.3889C4.99717 40.3889 4.60737 40.3889 4.19377 40.3889C4.19377 39.5776 4.19377 38.7652 4.19377 37.9486C4.22323 37.9409 4.25269 37.9212 4.27649 37.9255C4.72974 37.998 4.90765 37.796 5.05609 37.4908C5.50482 36.561 5.72918 35.5962 5.8119 34.6126C5.90482 33.5049 5.93201 32.3929 5.98867 31.2633C7.31898 31.2633 8.68329 31.2633 10.0918 31.2633C10.0918 33.4874 10.0918 35.6916 10.0918 37.9179C10.4147 37.9179 10.7173 37.9179 11.0448 37.9179C11.0448 38.7543 11.0448 39.5688 11.0448 40.3955ZM11.5003 28.2029C11.2442 28.2029 11.0232 28.2029 10.7785 28.2029C10.7785 26.7791 10.7785 25.3587 10.7785 23.9129C11.0153 23.9129 11.2306 23.9129 11.4788 23.9129C11.4788 24.4903 11.4788 25.0623 11.4788 25.6518C11.9377 25.6518 12.3626 25.6518 12.8181 25.6518C12.8181 25.0744 12.8181 24.5024 12.8181 23.9185C13.072 23.9185 13.2929 23.9185 13.5354 23.9185C13.5354 25.3466 13.5354 26.7681 13.5354 28.2051C13.2986 28.2051 13.0776 28.2051 12.8227 28.2051C12.8227 27.5629 12.8227 26.9295 12.8227 26.2818C12.3728 26.2818 11.9535 26.2818 11.5003 26.2818C11.5003 26.9197 11.5003 27.552 11.5003 28.2029ZM13.5014 38.7181C12.885 38.425 12.5144 37.9683 12.2958 37.4436C11.5683 35.707 11.6499 33.9857 12.5994 32.3139C12.9235 31.7442 13.4051 31.2633 14.1949 31.0559C14.9552 30.8561 15.5649 30.9999 16.0714 31.4939C16.6436 32.0537 16.9201 32.7212 17.0595 33.416C17.1694 33.9715 17.1751 34.5434 17.2295 35.1307C15.9025 35.1307 14.6278 35.1307 13.3133 35.1307C13.3246 35.8377 13.3144 36.505 13.5785 37.1528C13.9207 37.9958 14.7048 38.3163 15.9048 38.0792C16.2754 38.0056 16.6244 37.8718 17.013 37.7575C17.0878 37.931 17.1717 38.133 17.2544 38.3295C16.2074 39.0408 14.536 39.2099 13.5014 38.7181ZM18.1235 29.0042C17.9309 29.0042 17.7303 29.0042 17.4924 29.0042C17.4924 28.7232 17.4924 28.4356 17.4924 28.1316C16.6436 28.1316 15.8323 28.1316 14.9847 28.1316C14.9847 28.4192 14.9847 28.7067 14.9847 29.0087C14.7467 29.0087 14.5439 29.0087 14.3173 29.0087C14.3173 28.5673 14.3173 28.1238 14.3173 27.6584C14.6765 27.7045 14.7456 27.4839 14.8385 27.2775C15.2147 26.441 15.2476 25.5661 15.2861 24.6923C15.2975 24.4409 15.2873 24.1907 15.2873 23.9119C16.0771 23.9119 16.8238 23.9119 17.6023 23.9119C17.6023 25.1534 17.6023 26.385 17.6023 27.6331C17.7881 27.6397 17.9422 27.6463 18.1235 27.6529C18.1235 28.0953 18.1235 28.541 18.1235 29.0042ZM19.1026 24.5705C19.2249 24.362 19.3994 24.1567 19.6068 23.9964C20.1586 23.5672 20.8533 23.6506 21.2544 24.1731C21.711 24.7681 21.7994 25.4224 21.7518 26.1205C21.021 26.1205 20.3048 26.1205 19.5592 26.1205C19.5433 26.587 19.5309 27.0327 19.7904 27.4476C20.0113 27.8022 20.4261 27.9273 21.0074 27.8132C21.2159 27.7725 21.4153 27.7023 21.6227 27.6442C21.8584 27.8878 21.8493 27.9922 21.5082 28.1073C21.2023 28.2106 20.8771 28.2994 20.5518 28.3324C19.8788 28.4016 19.2986 28.1227 19.0448 27.5771C18.8714 27.2061 18.7592 26.8054 18.7082 26.4113C18.6266 25.7769 18.7569 25.1534 19.1026 24.5705ZM23.6272 38.8377C23.2045 38.8377 22.7966 38.8377 22.3558 38.8377C22.3558 37.7016 22.3558 36.5709 22.3558 35.4074C21.7552 35.4074 21.1864 35.4074 20.6176 35.4074C20.017 35.4074 20.017 35.4051 20.017 35.8925C20.0159 36.7751 20.017 37.6577 20.017 38.5403C20.017 38.6336 20.017 38.7279 20.017 38.8377C19.5819 38.8377 19.1751 38.8377 18.7501 38.8377C18.7501 36.3119 18.7501 33.7936 18.7501 31.2612C19.1626 31.2612 19.5615 31.2612 20.0011 31.2612C20.0011 32.2963 20.0011 33.3151 20.0011 34.359C20.8125 34.359 21.5603 34.359 22.3467 34.359C22.3467 33.3249 22.3467 32.2963 22.3467 31.2567C22.7456 31.2567 23.1093 31.2502 23.4708 31.2645C23.5297 31.2666 23.5898 31.3512 23.6374 31.405C23.6567 31.427 23.6408 31.4665 23.6408 31.4983C23.6408 33.8705 23.6408 36.2416 23.6419 38.6149C23.6419 38.683 23.6329 38.7543 23.6272 38.8377ZM25.1105 28.103C25.0334 28.0943 24.9518 28.0009 24.9043 27.9306C24.5394 27.4081 24.1824 26.8824 23.821 26.3565C23.77 26.2818 23.7122 26.2105 23.5773 26.1304C23.532 26.2972 23.4527 26.464 23.4459 26.631C23.4278 27.1173 23.4391 27.6035 23.4391 28.1008C23.1887 28.1008 22.9745 28.1008 22.7365 28.1008C22.7365 26.7144 22.7365 25.3246 22.7365 23.9129C22.97 23.9129 23.183 23.9129 23.4289 23.9129C23.4289 24.5112 23.4289 25.0974 23.4289 25.7572C23.5377 25.655 23.5943 25.61 23.6397 25.5585C24.0385 25.0985 24.4521 24.6462 24.8249 24.172C24.9949 23.9568 25.1841 23.8592 25.4935 23.8998C25.5705 23.9096 25.6499 23.9008 25.787 23.9008C25.7144 23.9931 25.6691 24.0556 25.617 24.1172C25.1921 24.6111 24.7739 25.1084 24.3365 25.5947C24.2187 25.7253 24.2255 25.8208 24.3173 25.9525C24.8023 26.6562 25.2759 27.362 25.7836 28.1118C25.5286 28.1118 25.3167 28.1283 25.1105 28.103ZM30.4997 37.3536C30.0873 38.2669 29.2068 38.7126 28.0521 38.7938C27.2816 38.8498 26.5009 38.8048 25.6929 38.8048C25.6929 36.2383 25.6929 33.7574 25.6929 31.2612C26.051 31.2612 26.4 31.2612 26.7853 31.2612C26.7853 32.1657 26.7853 33.0768 26.7853 33.9758C27.328 33.9758 27.8402 33.9451 28.3433 33.9824C29.6204 34.0824 30.4204 34.7026 30.6323 35.7224C30.7456 36.2767 30.7411 36.8277 30.4997 37.3536ZM36.4884 32.0175C35.3235 32.0175 34.1552 32.0175 32.962 32.0175C32.962 34.3063 32.962 36.5643 32.962 38.8366C32.5666 38.8366 32.196 38.8366 31.8028 38.8366C31.8028 36.3152 31.8028 33.7925 31.8028 31.2535C33.379 31.2535 34.9246 31.2535 36.4907 31.2535C36.4907 31.5071 36.4907 31.7475 36.4884 32.0175ZM40.7467 38.8377C40.7467 37.1812 40.7467 35.5248 40.7467 33.8574C39.949 35.5314 39.1581 37.189 38.3705 38.8443C37.9399 38.8443 37.5467 38.8443 37.1263 38.8443C37.1263 36.3162 37.1263 33.7948 37.1263 31.2567C37.5467 31.2567 37.9547 31.2567 38.3943 31.2567C38.3943 32.8244 38.3943 34.3787 38.3943 35.932C38.4147 35.9353 38.4329 35.9386 38.4544 35.9419C38.6754 35.4842 38.9008 35.0286 39.1195 34.5708C39.6181 33.5259 40.1201 32.4841 40.6142 31.4379C40.6833 31.2876 40.7751 31.2316 40.979 31.2392C41.3711 31.2557 41.7654 31.2447 42.1745 31.2447C42.1745 33.7882 42.1745 36.3064 42.1756 38.8377C41.7043 38.8377 41.2431 38.8377 40.7467 38.8377ZM59.4674 38.6917C59.1955 38.908 58.8612 38.9816 58.4986 38.9816C56.8272 38.9837 55.1592 38.9816 53.4901 38.9816C51.8108 38.9816 50.1314 38.9837 48.4533 38.9816C47.6125 38.9793 47.0051 38.6105 46.7705 37.9673C46.7399 37.8794 46.7297 37.7818 46.7297 37.6884C46.7275 35.7959 46.7331 33.9045 46.7252 32.012C46.7218 31.3446 47.1127 30.877 47.8142 30.5521C50.196 29.4532 52.5779 28.3544 54.9586 27.2534C55.3484 27.0733 55.745 26.9493 56.1938 27.1052C56.5836 27.2423 56.7513 27.5069 56.7535 27.8242C56.7603 29.8275 56.7807 31.8309 56.7422 33.8321C56.7297 34.4501 56.3207 34.9419 55.5626 35.1877C53.881 35.7344 52.196 36.2701 50.5133 36.8114C50.0929 36.9463 49.6714 37.0781 49.2533 37.2208C49.1207 37.2669 48.987 37.3317 48.8839 37.4118C48.8057 37.4765 48.706 37.6093 48.7377 37.6632C48.7887 37.7422 48.9439 37.8267 49.0561 37.8267C49.3167 37.8278 49.5864 37.8004 49.8402 37.7466C52.1077 37.2702 54.3717 36.7817 56.638 36.2975C57.3666 36.1406 57.9751 35.5225 57.9773 34.9188C57.9841 33.7673 57.9887 32.6158 57.9728 31.4653C57.9705 31.2293 58.051 31.1317 58.3558 31.1624C58.5133 31.1789 58.6708 31.1624 58.8295 31.1646C59.3496 31.1712 59.7054 31.4181 59.7813 31.8298C59.8028 31.944 59.8051 32.0669 59.8051 32.1833C59.8074 34.0285 59.8074 35.8717 59.8062 37.718C59.8062 38.066 59.8221 38.4151 59.4674 38.6917Z" fill="white"/>
<path d="M53.9139 30.4783C53.3519 30.5475 52.9847 30.8143 52.8148 31.238C52.6301 31.6957 52.927 32.0591 53.4595 32.0612C54.0964 32.0624 54.7434 31.4816 54.6629 30.98C54.6097 30.6562 54.2856 30.4333 53.9139 30.4783Z" fill="white"/>
<path d="M15.9456 24.4387C15.8968 25.5265 15.9886 26.6176 15.3121 27.6308C15.847 27.6308 16.3433 27.6308 16.8713 27.6308C16.8713 26.5551 16.8713 25.5024 16.8713 24.4387C16.5541 24.4387 16.2549 24.4387 15.9456 24.4387Z" fill="white"/>
<path d="M20.7955 24.5214C20.5768 24.2107 20.1678 24.2008 19.9219 24.4983C19.6386 24.8419 19.5559 25.2305 19.5332 25.6499C20.042 25.6499 20.5292 25.6499 21.0607 25.6499C21.0697 25.2481 21.0403 24.8672 20.7955 24.5214Z" fill="white"/>
</svg>
