<svg width="120" height="118" viewBox="0 0 120 118" fill="none" xmlns="http://www.w3.org/2000/svg">
<path fill-rule="evenodd" clip-rule="evenodd" d="M50.5478 57.387L49.6171 61.3729H40.018L40.1649 60.8512H41.8788L44.181 50.6022H42.3687L42.5642 50.0329H48.3433L48.1964 50.6022H46.3356L44.034 60.8512H45.8948C47.1194 60.8512 47.6087 60.8982 48.3925 60.2342C48.9802 59.7596 49.7148 58.7156 50.0578 57.3876H50.5478V57.387ZM54.5146 61.6563C52.6539 61.6563 51.1355 60.1377 51.1355 58.1457C51.1355 55.4891 53.8292 53.3536 55.9347 53.3536C57.8447 53.3536 59.1184 55.062 59.1184 56.7224C59.1184 57.7187 58.7268 58.668 58.1391 59.569C57.0615 61.0876 55.6408 61.6563 54.5146 61.6563ZM57.3553 55.4891C57.3553 54.5875 56.9638 53.8287 55.9839 53.8287C55.2493 53.8287 54.5146 54.2557 54.1224 54.8721C53.5839 55.7737 52.8493 58.0034 52.8493 59.2843C52.8493 60.613 53.6823 61.0406 54.3677 61.0406C54.9062 61.0406 55.4939 60.8023 55.8369 60.4236C56.4246 59.7589 56.8168 58.5256 57.0615 57.4823C57.2084 56.7224 57.3553 56.153 57.3553 55.4891ZM63.7221 53.5912L63.3306 55.4891C64.0154 53.8758 65.4366 53.2588 66.6114 53.2588C67.4929 53.2588 68.3745 53.5435 68.3745 54.7298C68.3745 55.062 68.3259 55.3462 68.2773 55.6314L67.2003 59.6166C67.0534 60.3283 67.102 60.1383 67.0534 60.2813C66.955 60.7089 67.2489 60.7089 67.445 60.7089C67.7394 60.7089 67.9835 60.5195 68.131 60.3283C68.621 59.7125 68.5712 59.8548 68.964 59.1426L69.5025 59.4272C69.1097 60.2342 68.3265 61.6569 66.8081 61.6569C66.0735 61.6569 65.4379 61.1823 65.4379 60.3283C65.4379 60.0913 65.4864 59.9019 65.535 59.6166L66.5149 55.442C66.5635 55.2044 66.612 54.9674 66.6618 54.7774C66.7589 54.2558 66.2204 54.0658 65.926 54.0658C65.4373 54.0658 64.849 54.4928 64.2115 55.1568C63.2328 56.2007 62.7914 57.4817 62.5468 58.3356L61.8122 61.4199H60.0485L61.8607 54.1129H60.2446L60.2938 53.5912H63.7221ZM79.5417 59.522C78.9049 60.7082 78.1702 61.514 76.9457 61.5623C75.9658 61.6092 75.8195 60.8506 75.7697 60.3759V60.1377L75.624 60.3271C75.2312 60.897 74.3011 61.6557 73.1251 61.6557C71.8034 61.6557 70.2359 60.4223 70.2359 58.4297C70.2359 55.6302 72.8319 53.3053 74.8396 53.3053C76.0642 53.3053 76.6027 53.6846 76.8971 54.1598L77.8758 50.1269H76.0642L76.2597 49.6047H79.7858L77.4842 58.6191C77.2887 59.5214 77.1412 60.0431 77.1412 60.3753C77.1412 60.6594 77.2395 60.7547 77.4842 60.7076C77.8758 60.6594 78.0227 60.4223 78.3172 60.0906C78.4143 59.9483 78.8557 59.332 78.954 59.1897L79.5417 59.522ZM75.1826 53.8281C74.6441 53.8281 73.9095 54.0658 73.3212 55.0145C72.294 56.77 71.9995 58.0034 71.9995 59.2843C71.9995 60.4236 72.5866 60.9923 73.3212 60.9923C73.6642 60.9923 74.1056 60.8982 74.5458 60.4707C75.3302 59.806 75.624 59.048 76.1134 57.5293C77.1412 54.5398 75.9166 53.8281 75.1826 53.8281ZM83.7047 61.5623C81.8433 61.5623 80.3243 60.0913 80.3243 58.098C80.3243 55.4414 83.0187 53.3059 85.1247 53.3059C87.0833 53.3059 88.3564 54.9662 88.3564 56.6741C88.3564 57.6234 87.9648 58.6198 87.3279 59.4731C86.2509 60.9923 84.8309 61.5623 83.7047 61.5623ZM86.5454 55.4414C86.5454 54.4928 86.1538 53.7812 85.1739 53.7812C84.4393 53.7812 83.7053 54.2081 83.3125 54.8245C82.774 55.6785 82.0394 57.9557 82.0394 59.1897C82.0394 60.5653 82.8724 60.9917 83.5578 60.9917C84.0963 60.9917 84.684 60.7076 85.0264 60.3271C85.6134 59.6624 86.0063 58.4774 86.2509 57.3864C86.4464 56.6747 86.5454 56.0578 86.5454 55.4414ZM93.0099 53.5912L92.5686 55.4891C93.2546 53.8758 94.6746 53.2588 95.85 53.2588C96.7801 53.2588 97.6616 53.5435 97.6616 54.7298C97.6616 55.062 97.5645 55.3462 97.5147 55.6314L96.4863 59.6166C96.3406 60.3283 96.3406 60.1383 96.3406 60.2813C96.2422 60.7089 96.4863 60.7089 96.6824 60.7089C96.9768 60.7089 97.2221 60.5195 97.4182 60.3283C97.9082 59.7125 97.8584 59.8548 98.2499 59.1426L98.7399 59.4272C98.3969 60.2342 97.6137 61.6569 96.0467 61.6569C95.3607 61.6569 94.7238 61.1823 94.7238 60.3283C94.7238 60.0913 94.7736 59.9019 94.8222 59.6166L95.7523 55.442C95.8506 55.2044 95.8992 54.9674 95.8992 54.7774C95.9976 54.2558 95.5076 54.0658 95.1646 54.0658C94.7232 54.0658 94.1361 54.4928 93.4986 55.1568C92.52 56.2007 92.0786 57.4817 91.8339 58.3356L91.0495 61.4199H89.3363L91.1479 54.1129H89.4832L89.5318 53.5912H93.0099ZM16.8523 49.9376H17.2439L17.2931 49.5106H17.6847L17.1947 50.3169C17.1947 50.4117 17.3416 50.3646 17.44 50.3646L17.4892 50.3169V50.6963C17.0976 50.8386 16.6568 50.6963 16.6568 50.6963V50.3169C16.706 50.3646 16.9021 50.4117 16.9507 50.3169L16.4607 49.5106H16.8523V49.9376ZM8.52635 56.5801C8.62409 56.7224 8.67327 56.8647 8.72183 57.0071C8.86875 57.3394 9.01568 57.624 9.21178 57.9557L8.57553 58.478C8.91856 58.905 9.31014 59.2843 9.65254 59.7119C10.681 58.9997 11.7094 58.241 12.8363 57.6717C13.3262 57.4346 14.0116 57.624 14.5501 57.387C14.1094 57.7193 13.8647 58.1933 13.4725 58.5256C13.7178 58.8103 13.8155 59.1903 14.0116 59.5226C13.5217 59.5226 12.9832 59.5696 12.5424 59.4272C12.6402 59.6643 12.6402 60.2813 12.6893 60.5665C12.2486 60.3772 11.7586 60.2813 11.367 59.9496C11.4156 60.5665 11.1709 61.0417 10.9748 61.5634C10.6324 61.2781 10.3386 60.9935 10.1425 60.6612C9.94639 61.0888 9.50624 61.4211 9.21178 61.8475L8.57553 62.7498C8.72245 62.3691 8.77164 61.8957 8.77164 61.4681C7.54708 61.2788 6.17623 60.7095 5.68566 59.4749C5.58987 59.2327 5.54009 58.9756 5.53874 58.7163C5.88114 59.3808 6.61575 59.7596 7.3018 59.8554C6.22417 59.2385 5.39182 58.1469 5.29346 56.9136C5.63648 57.5782 6.37109 58.2422 7.05651 58.5269V58.4792C5.93032 57.4359 5.24428 56.1543 5.39182 54.6357C5.60197 55.5705 6.18224 56.3882 7.00796 56.9129C6.07725 55.7267 5.39182 54.2563 5.93095 52.6907C5.97951 54.3028 7.10632 55.7261 8.52635 56.5801ZM28.7044 56.9594C29.5859 56.4378 30.1244 55.5361 30.3697 54.6821C30.4675 56.2007 29.782 57.4817 28.6558 58.525C29.3904 58.2404 30.0765 57.6234 30.4189 56.9594C30.3697 57.7657 29.9781 58.478 29.3904 59.0944C29.0966 59.3797 28.7536 59.6631 28.4112 59.8543C28.7339 59.8026 29.0473 59.7066 29.3419 59.569C29.7046 59.3599 30.0076 59.0664 30.2234 58.715C30.1742 59.7114 29.3911 60.66 28.4604 61.0399C27.9704 61.2293 27.4811 61.3723 26.942 61.4664C26.942 61.894 26.9911 62.3674 27.1381 62.7479C26.7465 62.1309 26.2559 61.5133 25.7666 60.9447C25.6844 60.8617 25.6182 60.765 25.5711 60.6594C25.375 60.9917 25.0812 61.2764 24.7388 61.5616C24.5433 61.0399 24.298 60.5653 24.3472 59.9477C23.9556 60.3271 23.4657 60.3753 23.0249 60.5647C23.0249 60.1854 23.0249 59.8048 23.1718 59.4725C22.6333 59.5678 22.0948 59.5207 21.7026 59.5207C21.8495 59.1884 21.9964 58.8085 22.2411 58.5239C21.8003 58.1915 21.5557 57.7175 21.1635 57.3852C21.6042 57.5746 22.2903 57.4798 22.7802 57.6223C23.3199 57.9107 23.843 58.2274 24.3472 58.5709L25.6695 59.4719L26.0125 59.7101H26.0617L27.1393 58.4762L26.5516 58.0015C26.7963 57.5746 26.9924 57.0999 27.1393 56.6259C28.5593 55.7243 29.7347 54.3487 29.7839 52.6877C30.3205 54.2552 29.6351 55.7738 28.7044 56.9594Z" fill="white"/>
<path fill-rule="evenodd" clip-rule="evenodd" d="M8.42874 56.2008C8.03716 56.0108 7.69414 55.6315 7.44885 55.2992C7.49803 54.3982 7.7427 53.5912 8.1349 52.7849C7.9388 53.9706 8.1349 55.1569 8.42874 56.2008ZM28.2638 55.3462C28.0185 55.6786 27.6761 56.0108 27.2845 56.2008C27.5783 55.1569 27.7744 53.9706 27.5783 52.8319C27.9828 53.6154 28.2161 54.4714 28.2638 55.3462ZM9.31027 55.0145C9.40801 54.7299 9.50638 54.4452 9.70248 54.1605C9.70248 54.4928 9.6533 54.8722 9.8494 55.1569C10.3879 55.0622 11.0248 54.9669 11.6125 55.0622C11.3186 55.1569 10.9756 55.3944 10.8287 55.6786C10.7795 55.6309 10.7795 55.5362 10.7309 55.4892C10.584 55.4892 10.4371 55.5368 10.2902 55.5368L10.7309 55.9638C10.6817 56.2014 10.6332 56.5331 10.7309 56.7702C10.7801 56.1532 11.1225 55.5838 11.6616 55.2992C11.9555 55.1569 12.2985 55.0622 12.5923 55.2515C12.7386 55.3939 12.7878 55.5838 12.7386 55.7738C12.7386 55.6786 12.6409 55.5838 12.5432 55.5362C12.1024 55.3939 11.7594 55.7256 11.5147 56.0578C11.4655 56.1055 11.3678 56.2002 11.3678 56.2955C11.5633 56.4378 11.8086 56.3902 12.0532 56.3426C12.2493 56.2955 12.3962 56.2479 12.5923 56.1055C12.2493 56.5796 11.7102 56.7696 11.2701 56.9595L11.4164 57.1971C11.3186 57.2918 11.2209 57.3871 11.1225 57.4347L10.8287 57.0554C10.4863 57.2924 10.1432 57.4824 9.8494 57.72L10.0941 58.0517C9.99632 58.1464 9.89858 58.2417 9.80022 58.2417C8.96787 57.1978 8.331 55.6791 8.96787 54.3511L9.16397 54.0665C9.16335 54.3982 9.16335 54.7299 9.31027 55.0145ZM26.1085 58.0035L25.913 58.2411C25.8153 58.2411 25.7169 58.1458 25.6192 58.0988C25.6684 57.9564 25.8153 57.8612 25.8645 57.7194C25.5706 57.4818 25.2276 57.2924 24.8852 57.0548L24.5907 57.4341H24.5422C24.4444 57.3388 24.3461 57.2918 24.2483 57.2442C24.2975 57.1495 24.3953 57.0548 24.4444 56.9595C24.2483 56.8648 24.0522 56.8171 23.8567 56.6748C23.5629 56.5802 23.2691 56.3902 23.1221 56.1062C23.416 56.3431 23.9053 56.4379 24.3461 56.3431C24.3461 56.2485 24.2483 56.2014 24.2483 56.1062C24.003 55.7738 23.6115 55.4892 23.1707 55.5368C23.073 55.5368 23.0238 55.6315 22.9752 55.7261V55.7738C22.926 55.6786 22.926 55.4415 23.0244 55.3469C23.1713 55.1575 23.416 55.1575 23.6606 55.2045C24.1998 55.2992 24.7383 55.7738 24.8852 56.2961C24.9338 56.4385 24.9338 56.6284 24.9829 56.8178C25.0807 56.5331 25.0315 56.1532 24.9829 55.9638C25.1299 55.8215 25.2768 55.6792 25.4237 55.5844C25.2768 55.5368 25.1299 55.5368 24.9829 55.4898C24.9829 55.5374 24.9338 55.6321 24.8852 55.6792C24.7383 55.4421 24.4444 55.1575 24.1014 55.1098C24.6399 54.9675 25.3253 55.0622 25.8645 55.2045C26.0599 54.9198 26.0114 54.5399 25.9622 54.2082C26.2075 54.4452 26.3052 54.7299 26.403 55.0622C26.5499 54.7299 26.5984 54.4452 26.5499 54.0659C27.4308 55.2992 26.8923 56.9595 26.1085 58.0035Z" fill="white"/>
<path fill-rule="evenodd" clip-rule="evenodd" d="M17.1463 47.1867H17.6362V46.8068H18.077V47.1867H18.5177V46.8068H18.9585V48.2777L18.6647 48.5152V49.5593H19.497C19.5462 49.4639 19.6439 49.3693 19.7915 49.417H20.6238C20.5746 49.6545 20.4769 49.9386 20.2322 50.0815C20.1653 50.1408 20.0783 50.1745 19.9876 50.1762C20.183 50.3186 20.2322 50.5555 20.183 50.7926C20.1339 50.8879 20.0853 50.9826 19.9876 51.0302C20.183 51.3148 20.2322 51.6948 19.9876 51.9788C20.4283 52.2165 19.9876 52.5482 20.0368 52.8805C20.1837 52.9752 20.3306 53.0698 20.3798 53.2598C20.3798 53.4498 20.3306 53.6392 20.1837 53.7345C20.1345 53.7821 20.0367 53.7821 19.9882 53.7821C19.9882 53.9245 20.1351 54.0668 20.282 54.1614C20.5759 54.3508 21.0658 54.3038 21.4088 54.1614C21.5558 54.0668 21.7519 53.8768 21.8004 53.6868C21.8496 53.5922 21.8004 53.4974 21.7512 53.4022C21.6043 53.2122 21.3597 53.1646 21.1636 53.2122C21.0043 53.2629 20.8667 53.3629 20.772 53.4969C20.6251 52.9752 20.6742 52.3105 21.1636 51.9782C21.4088 51.8836 21.7512 51.8836 21.9965 52.0259C22.0457 52.0259 22.0943 52.1212 22.192 52.1682C22.1428 51.4089 22.2412 50.6026 22.9758 50.1756C23.4166 49.938 24.0528 49.9856 24.4936 50.2703L24.788 50.5079C25.0564 50.5296 25.3254 50.4735 25.5608 50.3468C25.7963 50.2201 25.9875 50.0284 26.1103 49.7962C26.2087 49.701 26.2573 49.5116 26.2573 49.3693C26.5403 49.5713 26.753 49.8521 26.8668 50.1744C26.9806 50.4966 26.9901 50.8449 26.8941 51.1725C26.8449 51.2196 26.8941 51.2672 26.9433 51.3143C27.4824 51.4096 27.874 51.0772 28.2656 50.7449C28.3148 51.5513 28.0203 52.3582 27.2371 52.7375C26.7964 52.9269 26.2087 52.8322 25.8171 52.5482C25.4255 52.2635 25.1802 51.8836 24.9848 51.5042C24.8378 51.3143 24.544 51.3619 24.2502 51.4096C23.8586 51.4572 23.4664 51.7419 23.2703 52.0741C23.2217 52.2165 23.1725 52.3112 23.1725 52.4535C23.2217 52.4535 23.3194 52.4058 23.3686 52.3582C23.7117 52.2159 24.1524 52.3105 24.3971 52.5482C24.6424 52.7858 24.6909 53.1646 24.5926 53.4498C24.4948 53.7822 24.1518 54.1138 23.858 54.2091C23.8088 53.8768 23.6127 53.7345 23.4172 53.7345C22.9272 53.6392 22.7311 54.1139 22.3887 54.3508C22.0457 54.6831 21.458 54.9201 21.5066 55.4424C21.5066 55.6794 21.6535 55.9171 21.8496 56.0588C21.9474 56.1065 22.0457 56.1535 22.1435 56.1535C21.5066 56.3911 20.6251 56.4382 20.0866 55.9641C19.9396 56.1535 20.1357 56.5334 20.1843 56.5805C20.3312 56.8651 20.5273 57.1027 20.5273 57.435C20.2335 57.1504 19.8911 57.0557 19.4503 57.1504C19.4503 57.1504 19.205 57.1504 18.0788 57.815C17.785 58.0044 17.5403 58.0997 17.5403 58.0997C17.5403 58.0997 17.4426 58.052 17.3934 58.052C17.0504 57.815 16.6588 57.625 16.3158 57.4827C16.1894 57.3551 16.1192 57.1849 16.1203 57.0081C16.1431 56.916 16.1917 56.8318 16.2608 56.7648C16.33 56.6979 16.4168 56.6508 16.5119 56.6287V56.5334L16.2672 56.154C16.0858 56.113 15.906 56.0655 15.7281 56.0117C15.0912 56.2964 14.2097 56.3911 13.5243 56.154C13.7689 56.1071 14.0142 55.9647 14.112 55.7271C14.2097 55.4901 14.2097 55.1578 14.0142 54.9678C13.6712 54.5884 13.2304 54.3514 12.9372 53.9245C12.7411 53.7821 12.4473 53.6868 12.2026 53.7351C12.1047 53.7743 12.0204 53.8399 11.9597 53.924C11.8989 54.0081 11.8642 54.1072 11.8596 54.2097C11.468 54.0674 11.0758 53.5928 11.0758 53.1657C11.0758 52.8335 11.2227 52.5964 11.468 52.4064C11.8104 52.2641 12.2518 52.2641 12.4964 52.4541C12.4964 52.1218 12.301 51.8371 12.0557 51.6471C11.7126 51.4102 11.1741 51.2679 10.7826 51.4578C10.4887 51.8848 10.2441 52.3118 9.80329 52.5964C9.41109 52.8335 8.82402 52.8811 8.38264 52.6441C7.69721 52.2647 7.40337 51.5054 7.45192 50.7462C7.69721 50.9362 7.99043 51.1731 8.28427 51.2684C8.43119 51.3154 8.72504 51.3631 8.87196 51.2208C8.77422 51.0785 8.72504 50.7937 8.72504 50.6991C8.77422 50.1774 9.01888 49.6558 9.45964 49.3235C9.45964 49.7981 9.90041 50.2721 10.3412 50.4145C10.5373 50.462 10.7328 50.5097 10.9289 50.5097C11.3204 50.1303 11.8104 49.9404 12.3489 50.0351C12.7897 50.1304 13.2304 50.5097 13.3773 50.8897C13.5243 51.269 13.5243 51.7436 13.5243 52.1706C13.7197 51.933 14.0142 51.8384 14.3566 51.933C14.6996 51.9807 14.8951 52.36 14.9443 52.6446C14.9935 52.9294 14.9935 53.2611 14.9443 53.4987C14.7974 53.3087 14.6019 53.1663 14.3074 53.214C14.1605 53.214 14.0136 53.2616 13.9158 53.4039C13.8175 53.5463 13.8667 53.7833 13.965 53.9256C14.3074 54.3526 14.9443 54.4003 15.4342 54.305C15.5812 54.2573 15.6795 54.2103 15.8258 54.1627C15.7281 54.305 15.7281 54.542 15.875 54.6843C16.365 55.1589 17.1973 55.1114 17.8335 54.969C18.3265 54.8285 18.8027 54.6379 19.2542 54.4003C18.9112 54.8272 19.3526 55.3013 19.4503 55.7283C19.5966 55.4913 19.7933 55.2537 19.8911 54.969C19.9396 55.4437 20.2335 55.8706 20.7234 56.013C20.9189 56.0606 21.1642 56.0606 21.4088 56.013C21.2134 55.7759 21.115 55.4913 21.2134 55.2066C21.2619 54.8272 21.6541 54.6373 21.7033 54.305C21.3117 54.542 20.724 54.6367 20.2827 54.4473C19.9888 54.3526 19.7442 54.0679 19.5966 53.7833C18.8134 54.4003 17.8335 54.732 16.7074 54.6373C16.8051 54.4003 16.9526 54.2103 17.0504 53.9733H16.6588L16.3158 54.5903C16.1819 54.5147 16.0784 54.3977 16.0219 54.2579C16.0219 54.1156 16.0705 53.9256 16.1682 53.831C16.1197 53.7833 16.0219 53.7833 15.9727 53.7833C15.8689 53.7524 15.7744 53.6974 15.6975 53.623C15.6207 53.5485 15.5638 53.4569 15.532 53.3563C15.532 53.1193 15.6789 52.8823 15.9242 52.8823C15.9242 52.7876 15.875 52.5977 15.9242 52.5029C15.9493 52.434 15.9957 52.3743 16.0571 52.3318C16.1184 52.2893 16.1918 52.2661 16.2672 52.2654C16.2672 52.2654 16.2672 52.2177 16.3158 52.2177V51.8853L15.7281 51.743L15.1404 50.2721C15.1404 50.2721 15.5812 49.9875 15.7773 49.8451C15.6303 49.7504 15.8265 49.6558 15.8265 49.5128L16.0711 49.2282C16.0226 48.9905 16.0711 48.7536 15.9734 48.5636C16.2187 48.6582 16.4141 48.8482 16.6594 48.8482L17.0024 48.8005V48.5159L16.7572 48.2783V46.8068H17.1487V47.1867H17.1463ZM17.8317 47.8978C17.4893 48.0401 17.5378 48.3724 17.5378 48.7041H18.1255C18.1255 48.5147 18.1741 48.3718 18.1255 48.1824C18.077 48.0877 17.9786 47.8978 17.8317 47.8978ZM16.2647 48.9894L16.3133 49.3216C16.2155 49.4639 16.068 49.5593 16.068 49.7487L16.3133 50.0809C16.3133 50.2233 16.2155 50.3656 16.1664 50.5079L16.4608 51.0772H16.7547L17.0485 51.4096L17.3424 51.0772H17.587L17.93 50.5079C17.8317 50.3656 17.7339 50.2233 17.7339 50.0809L18.0284 49.7487C17.9792 49.5593 17.8815 49.4639 17.7831 49.3216V48.9894L17.4893 49.1317C17.1867 49.037 16.8611 49.037 16.5586 49.1317L16.2647 48.9894ZM19.7417 49.6533C19.6931 49.7004 19.6439 49.748 19.5462 49.7956C19.3009 49.8433 18.9093 49.748 18.6647 49.8433C18.5663 49.891 18.5177 49.9856 18.4685 50.0809C18.4685 50.1756 18.4194 50.3179 18.5177 50.3656C18.7138 50.6503 19.1546 50.5555 19.4484 50.5555L19.5462 50.6503C19.5462 50.6978 19.497 50.7449 19.4484 50.7449H18.077C17.9792 50.9349 17.8317 51.0772 17.8317 51.3143H17.4401L17.0485 51.7888L16.6569 51.3143H16.2162V51.1725L15.8731 50.5079C15.9277 50.3836 15.9767 50.257 16.0201 50.1286L15.9223 50.0333L15.4816 50.3656L15.9223 51.5519L16.3139 51.6465V51.5519H16.5592L16.51 52.3582C16.51 52.5005 16.3637 52.4058 16.2653 52.4535C16.1184 52.5482 16.2162 52.7858 16.167 52.8805C16.2718 52.8069 16.3939 52.7597 16.5223 52.7433C16.6506 52.7267 16.7812 52.7413 16.9022 52.7858L17.1961 51.9788C17.7837 52.0265 18.4206 51.8842 18.8614 51.4572C19.0083 51.7419 19.2044 51.9788 19.4491 52.2165V52.3588C19.4491 52.5012 19.3021 52.3588 19.2038 52.4541C19.106 52.4541 19.106 52.6435 19.106 52.7388L19.3015 52.8811C19.4484 52.7864 19.6445 52.7864 19.7915 52.7864L19.9378 52.217L19.6931 51.9324C19.7908 51.8848 19.8394 51.7901 19.8886 51.6954C19.9371 51.4578 19.8886 51.2208 19.6931 51.0308C19.8886 50.9362 19.9378 50.7932 19.9378 50.6038C19.8892 50.1292 19.3015 50.3192 18.9585 50.2715C18.763 50.2715 18.763 50.0339 18.9585 50.0339C19.3015 50.0339 19.7423 50.0815 20.0361 49.9392C20.183 49.8916 20.2808 49.7498 20.2808 49.6545H19.7417V49.6533ZM9.31023 49.8904L9.26167 49.938C8.96783 50.365 8.96783 50.982 9.26167 51.4089C9.16393 51.4566 9.11475 51.5036 9.01639 51.5513C8.62481 51.6936 8.13486 51.5989 7.79184 51.3619C7.88958 51.7413 8.13486 52.1682 8.52644 52.4053C8.86947 52.5476 9.26105 52.5476 9.55489 52.3576C10.2409 51.9782 10.3387 51.3137 10.7303 50.792C10.1426 50.792 9.55489 50.4126 9.31023 49.8904ZM26.3538 49.8904C26.1576 50.4596 25.57 50.792 24.9823 50.792C25.3247 51.2666 25.423 51.8359 25.9615 52.263C26.2554 52.4529 26.5978 52.5952 26.99 52.4529C27.4799 52.3105 27.8223 51.8359 27.9207 51.3613C27.7738 51.456 27.5783 51.5506 27.3822 51.5983C27.0392 51.646 26.6962 51.5983 26.4515 51.4089C26.5007 51.3613 26.5007 51.3137 26.5499 51.2666C26.7453 50.8396 26.6962 50.2703 26.3538 49.8904ZM18.7624 51.7883L18.4194 52.0253C18.4194 52.1205 18.5171 52.1676 18.5663 52.2153C18.5663 52.263 18.5663 52.4047 18.5171 52.4047C18.4679 52.4523 18.3216 52.4047 18.2724 52.4522C18.1741 52.4522 18.1255 52.547 18.1255 52.6416C18.2724 52.6416 18.4194 52.6416 18.5171 52.7839C18.6155 52.7364 18.7132 52.6416 18.8601 52.6887C18.8601 52.5464 18.8601 52.4517 18.9579 52.3094C18.9579 52.2617 19.0562 52.2147 19.1048 52.2147C18.9755 52.0846 18.8608 51.9416 18.7624 51.7883ZM18.2731 52.8799C18.1747 52.8322 17.9792 52.8322 17.8815 52.9269C18.1268 53.0692 18.1753 53.4015 18.4692 53.4492C18.5669 53.4969 18.6653 53.4492 18.7145 53.4015C18.5663 53.2592 18.4685 53.0216 18.2731 52.8799ZM17.4893 52.8799C17.3424 52.8322 17.244 52.8799 17.1463 52.9746L17.5378 53.3539C17.6848 53.4492 17.8809 53.4963 18.0278 53.4015C17.8317 53.2116 17.6854 52.9746 17.4893 52.8799ZM18.6647 52.9269C18.8116 53.1169 18.9093 53.3063 19.1054 53.4963C19.1593 53.5198 19.2178 53.532 19.2769 53.532C19.3361 53.532 19.3945 53.5198 19.4484 53.4963C19.3015 53.3063 19.2032 53.1169 19.0569 52.9746C18.9585 52.8799 18.7624 52.8799 18.6647 52.9269ZM16.8032 52.9746C16.6563 52.9269 16.5094 52.9269 16.4116 53.0216C16.6077 53.1639 16.7547 53.3539 16.9508 53.4963C17.0485 53.5439 17.2446 53.4963 17.3424 53.4486C17.1463 53.2592 16.9993 53.0692 16.8032 52.9746ZM19.3993 53.0692C19.5462 53.2116 19.6445 53.4486 19.84 53.5439C19.9378 53.5915 20.0361 53.5915 20.0853 53.4963C20.1345 53.4486 20.1345 53.354 20.1345 53.2586C19.9869 53.0216 19.6439 52.9746 19.3993 53.0692ZM16.1178 53.1169C16.0686 53.0692 15.9709 53.1169 15.8725 53.1169C15.8233 53.1646 15.8233 53.2592 15.8233 53.3539C15.8725 53.4492 15.9217 53.5439 16.0194 53.5439C16.2149 53.5915 16.4602 53.5915 16.6071 53.4963C16.4608 53.3539 16.3139 53.1646 16.1178 53.1169ZM14.0117 54.3502C14.3547 54.7773 14.648 55.2989 14.4033 55.8212C14.3547 55.9158 14.3056 55.9635 14.257 56.0106C14.7955 56.0582 15.2363 55.9629 15.6285 55.7258C15.8731 55.8212 16.167 55.8682 16.4608 55.8682C16.7547 56.4375 17.0485 56.9592 17.244 57.5762C17.2932 57.1491 17.244 56.6745 17.1463 56.2475C17.0971 56.1058 17.0485 55.9629 16.9993 55.8682C17.3909 55.8206 17.7831 55.6782 18.1261 55.5359C18.3708 55.3936 18.6647 55.2513 18.8608 54.9665C18.2245 55.3459 17.4893 55.5359 16.6569 55.5835C16.167 55.5835 15.6285 55.5835 15.3838 55.109C15.2861 54.919 15.433 54.6819 15.4816 54.5396C14.9916 54.6825 14.4033 54.5879 14.0117 54.3502ZM12.4448 57.4821L11.0733 58.3837L9.751 59.2847H9.70244L9.01639 58.4784C9.11413 58.3837 9.26167 58.2884 9.35941 58.1937L9.751 58.6208C9.99628 58.4784 10.2409 58.2884 10.4862 58.0991C10.437 58.0044 10.2901 57.8615 10.2409 57.7667L10.7309 57.3875L11.0247 57.7667C11.27 57.5774 11.5632 57.435 11.8079 57.2921L11.7102 57.1027C11.8571 57.0074 12.004 56.9128 12.2001 56.8651L12.4448 57.4821ZM24.003 57.1022L23.9053 57.2915L24.6891 57.7661C24.7874 57.6715 24.8852 57.5291 24.9829 57.4344L25.4728 57.7661L25.2276 58.0984L25.9622 58.6678C26.1091 58.5254 26.2075 58.3831 26.3538 58.2408C26.4515 58.2878 26.5984 58.3831 26.6962 58.4778V58.5254L25.9615 59.2842L24.1985 58.0984L23.2678 57.5291L23.5131 56.8645C23.7092 56.9128 23.8561 57.0074 24.003 57.1022ZM15.1871 59.9487L15.7748 59.0477L16.3631 59.9487H15.1871ZM20.4769 59.9487H19.3507C19.5116 59.6383 19.6914 59.3374 19.8892 59.0477C20.0847 59.333 20.2808 59.6641 20.4769 59.9487ZM16.0686 61.8949C15.9709 62.0843 15.9223 62.3684 15.8731 62.6536C15.9709 62.7007 16.1184 62.6536 16.2162 62.6066H16.2653V62.8906C16.167 62.8435 16.0692 62.8435 15.9223 62.8435C15.9223 62.986 15.9709 63.1288 15.9223 63.3182H15.6285C15.6285 63.1288 15.6285 62.986 15.6777 62.8435C15.5307 62.8435 15.3838 62.8435 15.2861 62.8906V62.6066C15.3838 62.6536 15.5307 62.7007 15.6777 62.6536C15.6777 62.3684 15.5799 62.1319 15.4816 61.8949C15.5799 61.7525 15.7268 61.5626 15.7754 61.4203C15.824 61.5626 15.9709 61.752 16.0686 61.8949Z" fill="white"/>
<path fill-rule="evenodd" clip-rule="evenodd" d="M20.5254 57.7664H21.1131C21.3086 58.051 21.5539 58.3356 21.7985 58.5256C21.5047 58.9526 21.3578 59.4743 21.0154 59.9019H21.5539C21.6024 60.3765 21.6516 60.8512 21.8963 61.2305H18.664V63.5072H21.6516C21.5047 65.5945 19.8394 67.6348 17.831 68.3946C15.8233 67.6348 14.2072 65.5945 14.0603 63.5072H16.9987V61.2305H13.815C14.0603 60.8512 14.1088 60.3765 14.1088 59.9019H14.6473V59.8548C14.3043 59.4743 14.2066 59.0003 13.9127 58.5733C13.9127 58.5733 13.8635 58.5256 13.9127 58.5256C14.1509 58.2942 14.3641 58.0398 14.549 57.7664H16.2635C16.7042 57.9557 17.0958 58.1457 17.4874 58.431C18.0751 58.1463 18.6142 57.8146 19.2013 57.4823C19.4951 57.3876 19.8873 57.2923 20.1805 57.4823C20.2808 57.5764 20.4277 57.6711 20.5254 57.7664ZM20.7215 58.7627H14.991V58.952H15.5787L14.8926 60.0442C14.9418 60.1865 15.0395 60.3765 15.1864 60.4707C15.4317 60.66 15.7741 60.7089 16.068 60.613C16.3133 60.5189 16.5579 60.3277 16.6557 60.0442L16.0194 58.952H17.4886V59.3796H17.7825L17.3909 59.8542L17.8317 60.2807L18.2724 59.8542L17.8808 59.3796H18.1747L18.2239 58.952H19.6931C19.6931 58.952 19.2523 59.7119 19.007 60.0442C19.0562 60.1383 19.1539 60.2813 19.2025 60.3765C19.4478 60.6606 19.8388 60.7089 20.1818 60.6135C20.4271 60.5665 20.7209 60.2813 20.7695 60.0448L20.0834 58.9526H20.7203V58.7627H20.7215ZM16.9993 64.7888H14.6977C15.0401 65.8798 15.9223 66.9702 16.9993 67.6348V64.7888ZM18.6646 64.7888V67.6348C19.3507 67.2084 19.9377 66.6385 20.4277 65.9751C20.673 65.5945 20.8684 65.2151 21.0154 64.7888H18.6646ZM26.2554 67.3507C26.2068 67.6969 26.2068 68.0478 26.2554 68.3941H26.0107C26.1084 68.1558 26.0599 67.8241 26.0599 67.5401C25.9621 67.7771 25.913 68.0147 25.8644 68.2518H25.6677C25.6677 68.0147 25.6185 67.8241 25.5208 67.6348V68.3477L25.5699 68.3946C25.4722 68.4417 25.3738 68.4417 25.3247 68.4417L25.3738 68.3477C25.3738 68.0624 25.3738 67.7307 25.3247 67.4454C25.423 67.3984 25.5208 67.3984 25.6677 67.3984C25.6677 67.5407 25.7654 67.7307 25.7654 67.873C25.8146 67.7307 25.9123 67.5407 25.9123 67.3513H26.2554V67.3507ZM10.6325 67.5871V68.3941L10.6817 68.4881C10.5839 68.4881 10.4862 68.4411 10.3878 68.4411L10.437 68.347C10.437 68.0147 10.4862 67.6824 10.3878 67.3977L10.6817 67.4448L10.6325 67.5871ZM25.0806 67.5871C25.0314 67.9194 25.1784 68.347 24.8851 68.5364C24.7382 68.5835 24.5907 68.6304 24.4929 68.5364L24.4444 68.4411V67.7294L24.3952 67.6824C24.4444 67.6342 24.5907 67.5871 24.689 67.5871L24.5907 67.6824L24.6398 68.3941C24.7376 68.5364 24.8353 68.3941 24.8851 68.347V67.6342L24.836 67.5401C24.9337 67.493 25.0314 67.493 25.1298 67.4448L25.0806 67.5871ZM10.1426 67.5401C10.2403 67.7771 10.2403 68.0147 10.0934 68.2047C9.94645 68.4417 9.65261 68.3941 9.35876 68.3941C9.55425 68.1558 9.4565 67.7771 9.4565 67.4448C9.4565 67.3977 9.40732 67.3977 9.40732 67.3507C9.70179 67.3507 9.99563 67.3025 10.1426 67.5401ZM9.70179 67.493L9.65261 68.2518C9.75035 68.2518 9.84871 68.2517 9.89789 68.1564C9.99563 68.0153 9.99563 67.7771 9.94707 67.5877C9.89789 67.493 9.80015 67.493 9.70179 67.493ZM11.514 67.6824V67.9195C11.4157 67.8724 11.3671 67.7301 11.2202 67.7771C11.0247 67.9195 11.0733 68.1094 11.1224 68.2987C11.1224 68.3941 11.1716 68.4881 11.2694 68.537C11.3671 68.537 11.4157 68.537 11.514 68.4887V68.7269C11.2694 68.7269 11.0733 68.6799 10.9263 68.4417C10.828 68.2523 10.828 67.9201 10.9749 67.7771C11.0726 67.6348 11.2202 67.5877 11.3671 67.6348C11.4157 67.6342 11.4655 67.6824 11.514 67.6824ZM24.2968 67.8724V67.9195C24.1991 67.8724 24.1499 67.8724 24.0515 67.9195L24.0024 67.9665C24.0515 68.2047 24.0024 68.5364 24.1007 68.7734L23.8069 68.9157C23.9046 68.6304 23.8069 68.2987 23.8561 68.0147C23.7583 68.0147 23.66 68.1558 23.6108 68.2518C23.5616 68.1564 23.6108 68.0624 23.6108 67.9665C23.8069 67.8724 24.0024 67.8241 24.2476 67.6824C24.2968 67.7301 24.2968 67.8241 24.2968 67.8724ZM12.2978 68.2987C12.2486 68.2047 12.1509 68.1094 12.0525 68.1094C12.0034 68.3946 12.0034 68.7263 12.0525 68.9634L11.8072 68.8693C11.8564 68.584 11.8072 68.2994 11.8564 67.967C11.7581 67.967 11.7095 67.9201 11.6111 67.967V67.7777L12.2972 68.0629V68.2987H12.2978ZM23.4639 68.2987C23.4639 68.2518 23.3661 68.2518 23.3169 68.2518C23.259 68.2876 23.2109 68.3366 23.1768 68.3945C23.1428 68.4524 23.1238 68.5175 23.1215 68.584C23.1215 68.7263 23.1215 68.9163 23.2678 68.9634C23.3661 69.0116 23.4639 68.9163 23.513 68.8211V69.0593C23.4153 69.1063 23.2678 69.2016 23.17 69.1534C23.0939 69.1221 23.0296 69.0689 22.9858 69.0011C22.9419 68.9333 22.9206 68.8539 22.9247 68.774C22.8762 68.4887 22.9739 68.2523 23.2678 68.1094C23.3169 68.0624 23.4147 68.1094 23.4639 68.0624V68.2987ZM12.6894 68.2518L12.6402 68.347V69.0586C12.6402 69.1057 12.738 69.1528 12.7871 69.201C12.8363 69.201 12.9341 69.1528 12.9341 69.1057C12.8849 68.8687 12.9826 68.584 12.8849 68.347L13.1302 68.4881C13.0324 68.6304 13.081 68.8204 13.081 69.0111C13.081 69.4845 12.6894 69.3421 12.5917 69.248C12.4933 69.1528 12.4447 69.1057 12.4447 68.9628C12.3956 68.6787 12.4939 68.347 12.3956 68.1088L12.6894 68.2518ZM13.6693 68.6794C13.6693 68.8687 13.7185 69.0116 13.767 69.201C13.8654 69.0586 13.914 68.9157 13.9631 68.7734C14.0123 68.7734 14.1586 68.7734 14.257 68.8204L14.2078 68.9628L14.257 69.7227V69.8168C14.2078 69.8638 14.0609 69.8168 14.0117 69.8168C13.9625 69.7697 14.0609 69.7227 14.0609 69.7227V68.9628C13.9631 69.201 13.8654 69.3903 13.8156 69.5797L13.6687 69.5315C13.6687 69.2945 13.5709 69.058 13.5217 68.8198C13.4725 69.0867 13.4725 69.3599 13.5217 69.6268C13.4234 69.6268 13.3748 69.5797 13.3256 69.5797H13.2765L13.3256 69.5315C13.3748 69.2474 13.3256 68.9157 13.3256 68.6304L13.2765 68.5364L13.6693 68.6794ZM22.6315 68.4881C22.6807 68.7734 22.7784 69.0111 22.8768 69.248L22.9254 69.3421C22.8276 69.3421 22.7299 69.4374 22.6315 69.4374C22.6807 69.3421 22.6315 69.2951 22.6315 69.2004C22.5338 69.2004 22.436 69.2474 22.3377 69.2945C22.3377 69.3897 22.3377 69.4838 22.3868 69.5797C22.2885 69.6268 22.1907 69.6738 22.093 69.6738C22.2399 69.3415 22.2885 69.0104 22.3377 68.6787V68.5835C22.436 68.5364 22.5338 68.4881 22.6315 68.4881ZM22.5823 69.0586L22.4846 68.6794L22.3868 69.1057L22.5823 69.0586ZM22.0438 68.8687C22.093 68.9628 22.093 69.1528 21.9946 69.248C21.9455 69.3421 21.7985 69.3421 21.6516 69.3903C21.6516 69.5315 21.6516 69.6745 21.7008 69.7697C21.6024 69.8168 21.5047 69.7697 21.407 69.8168C21.5047 69.5315 21.4561 69.201 21.4561 68.8687L21.407 68.7734C21.6522 68.8204 21.8969 68.6311 22.0438 68.8687ZM21.6522 68.8687V69.248C21.7014 69.248 21.7992 69.248 21.7992 69.201C21.8483 69.1057 21.8483 69.0116 21.8483 68.9628C21.8477 68.8687 21.7008 68.8687 21.6522 68.8687Z" fill="white"/>
<path fill-rule="evenodd" clip-rule="evenodd" d="M13.7671 59.8547C13.8162 60.3763 13.6693 60.8509 13.3263 61.2774C13.3755 61.3726 13.4732 61.4667 13.5224 61.5143C13.7179 61.5143 13.8654 61.5626 13.9632 61.4673C14.1101 61.3733 14.2078 61.4673 14.257 61.5626C14.3547 61.5626 14.4033 61.5626 14.5017 61.5143C14.5017 61.5626 14.4531 61.6566 14.4039 61.6566C14.3554 61.705 14.3554 61.705 14.3062 61.705C14.2084 61.799 14.1593 61.8943 14.0123 61.846C13.9632 61.752 13.8654 61.799 13.7671 61.799C13.914 61.9413 14.0609 62.0842 14.257 62.1313H14.5509C14.6486 62.1784 14.6 62.3207 14.6978 62.3684H14.8441C14.7955 62.5107 14.5994 62.4636 14.501 62.5589C14.2564 62.6059 14.1586 62.3684 14.0117 62.3207L13.7664 62.1313C13.7664 62.3684 13.8648 62.5589 14.0117 62.7483C14.1095 62.7953 14.2072 62.7953 14.257 62.8424C14.3547 62.8894 14.257 63.0318 14.4033 63.0318H14.5502C14.4525 63.1741 14.2564 63.127 14.1586 63.2211C14.0609 63.2693 13.9632 63.2211 13.8648 63.1741C13.8156 63.08 13.8156 62.9847 13.8156 62.8888C13.571 62.6518 13.4726 62.3201 13.3749 62.036C13.3257 62.0831 13.2771 62.1302 13.3257 62.1771C13.3257 62.2254 13.4234 62.3195 13.3257 62.4154C13.2765 62.4624 13.3257 62.5577 13.3257 62.6047C13.2765 62.5577 13.2279 62.5094 13.1302 62.4624C13.081 62.4624 12.9347 62.3671 13.081 62.1302C13.081 61.9878 13.1794 61.8449 13.2279 61.7037C13.2279 61.6555 13.1302 61.5614 13.081 61.5132C12.4933 62.036 11.7587 62.273 11.0727 62.5577C10.9264 62.6518 10.7303 62.8418 10.6811 63.0311C10.6811 63.1264 10.7303 63.1735 10.828 63.2693C11.4157 63.4117 11.9056 62.8888 12.4933 63.2211C12.8849 63.4593 12.6894 64.0763 13.2279 64.2174C12.9827 64.3128 12.6894 64.4556 12.5917 64.7391C12.5425 65.0244 12.5425 65.452 12.738 65.6884C13.1788 66.163 14.1095 65.6884 14.3056 66.4471C14.3056 66.5894 14.3056 66.7323 14.1586 66.8276C14.1592 66.9131 14.137 66.9973 14.0941 67.0719C14.0513 67.1466 13.9892 67.2093 13.914 67.254L13.7671 67.3011C13.8162 67.207 13.8654 67.1117 13.8162 67.017C13.778 66.9324 13.7082 66.8647 13.6208 66.8276C13.6208 66.9217 13.5716 67.0646 13.523 67.1599C13.4247 67.3011 13.2777 67.3011 13.1314 67.3493C13.2292 67.207 13.2292 67.1111 13.1806 66.9688C13.1806 66.9217 13.1314 66.8276 13.0823 66.8276C12.9845 67.017 12.7884 67.207 12.5438 67.254C12.5929 67.1599 12.6415 67.0646 12.5929 66.9217C12.5929 66.7323 12.2991 66.7794 12.2499 66.5894C12.0538 66.3041 11.76 66.1147 11.4169 66.163C11.613 65.8778 11.9069 65.5931 11.76 65.2137C11.7108 65.0244 11.5153 64.8344 11.3192 64.7873H11.0254C10.9276 64.502 10.7315 64.1703 10.4377 64.1228C10.3885 64.1228 10.3885 64.0757 10.3399 64.1228C10.6338 64.502 10.683 65.1661 10.4377 65.6413C10.2422 66.21 9.55614 66.3529 9.21312 66.8276C10.8293 66.7323 12.103 67.3963 13.3761 68.0139C13.6214 68.108 13.9152 68.2033 14.2085 68.2509C14.2576 68.1086 14.2085 67.9656 14.3554 67.9186C14.8447 67.7763 15.4324 67.9186 15.8246 68.2509C16.0207 68.3932 15.9229 68.6785 15.9715 68.8679C16.167 68.962 16.4123 68.962 16.6576 69.0572C17.5883 69.1514 18.6659 69.1514 19.5474 68.962C19.596 68.9149 19.6943 68.9149 19.7429 68.8679C19.7429 68.6785 19.6943 68.4873 19.7921 68.3462C20.2329 67.9656 20.8205 67.7763 21.3597 67.9186C21.506 68.0139 21.4574 68.108 21.4574 68.2509C22.3389 68.1556 23.0244 67.6339 23.8082 67.3499C24.6405 67.0176 25.522 66.78 26.5019 66.8282C26.1103 66.3536 25.3751 66.1636 25.1796 65.4996C25.0327 65.072 25.0819 64.5033 25.3751 64.1239C25.2742 64.122 25.1749 64.1476 25.0883 64.1979C25.0018 64.2481 24.9316 64.3209 24.8858 64.408C24.788 64.5503 24.7389 64.6933 24.6897 64.7885C24.445 64.7885 24.1512 64.8356 24.0036 65.0726C23.8567 65.2619 23.8567 65.5943 24.0036 65.8325L24.2489 66.1648C23.9059 66.1166 23.612 66.3542 23.4166 66.6382C23.3188 66.8288 23.025 66.7805 23.0735 67.0188C23.0735 67.1129 23.0735 67.1612 23.1713 67.2081C23.0244 67.2081 22.8774 67.1612 22.7797 67.0188C22.6813 66.9705 22.6813 66.8295 22.5836 66.8295C22.4367 66.9235 22.4859 67.1135 22.5344 67.2558V67.3029C22.4367 67.3511 22.3383 67.3029 22.2406 67.2558C22.1488 67.131 22.0976 66.9825 22.0937 66.8295C21.9959 66.8295 21.9467 66.8764 21.8975 66.9705C21.8484 67.0188 21.8484 67.1128 21.8484 67.2087L21.8975 67.3029C21.7506 67.2558 21.5551 67.1135 21.506 66.9705V66.8295C21.4082 66.7341 21.3597 66.5442 21.4082 66.4019C21.6535 65.5478 23.0244 66.3065 23.1227 65.2626C23.1713 64.9302 23.1227 64.5979 22.7797 64.3616C22.6813 64.3145 22.5836 64.2675 22.4367 64.2193C22.9752 64.0781 22.7797 63.4135 23.3182 63.1759C23.8567 62.9389 24.3467 63.4611 24.8858 63.2229C25.0321 63.1758 25.0321 63.0818 25.0321 62.9389C24.6897 62.4642 24.102 62.4172 23.612 62.1319C23.269 61.9425 22.926 61.7996 22.6328 61.5149C22.535 61.5632 22.4859 61.6573 22.4859 61.7056C22.4859 61.8467 22.5836 61.9896 22.6328 62.179C22.7305 62.2742 22.682 62.4172 22.5836 62.4172C22.5344 62.5113 22.4367 62.5595 22.3383 62.6066C22.3875 62.5595 22.3875 62.5113 22.3875 62.4642C22.2891 62.4172 22.2891 62.3219 22.3383 62.2272C22.3875 62.179 22.3383 62.1319 22.3383 62.0849V62.0378C22.2416 62.3589 22.0929 62.6631 21.8975 62.9389C21.8975 63.0329 21.8975 63.1283 21.7998 63.1759C21.7021 63.2235 21.6037 63.2229 21.506 63.2229C21.4082 63.1288 21.2121 63.1759 21.1144 63.0335C21.2121 63.0335 21.3099 63.0335 21.3597 62.9865C21.3597 62.8912 21.4574 62.8442 21.506 62.7971C21.5551 62.7501 21.6037 62.7971 21.6529 62.7501C21.7998 62.5608 21.8975 62.3695 21.9467 62.1801H21.8975C21.7506 62.3225 21.5551 62.3695 21.359 62.5124C21.2607 62.5608 21.1629 62.5608 21.0646 62.4654C21.016 62.5124 20.8691 62.4654 20.8199 62.3701C20.8691 62.3701 20.9668 62.4184 21.016 62.3231C21.016 62.2761 21.0646 62.1807 21.1138 62.1337C21.2115 62.0867 21.3092 62.1337 21.359 62.1807C21.4076 62.1807 21.5053 62.1807 21.5545 62.0867C21.6523 62.0397 21.7992 61.8973 21.8969 61.8015C21.75 61.7073 21.6031 61.9438 21.4562 61.8015L21.407 61.7073C21.3565 61.708 21.3068 61.6949 21.2635 61.6698C21.2202 61.6447 21.185 61.6084 21.1617 61.565V61.5167C21.2109 61.5167 21.3086 61.565 21.407 61.565C21.4562 61.4698 21.5047 61.4698 21.6025 61.4698C21.6516 61.4698 21.7494 61.4698 21.7986 61.5167C21.9455 61.5167 22.0924 61.6121 22.1901 61.4698L22.3862 61.2804C22.0432 60.901 21.8471 60.3793 21.9455 59.8577C22.2393 59.8577 22.4846 59.8577 22.7785 59.8094C22.7293 60.1899 22.7293 60.6164 22.6801 60.9957C22.6801 60.9957 23.317 60.8546 24.1007 60.5222C24.1499 61.091 24.4438 61.5656 24.6393 62.0408C24.9331 61.7555 25.2755 61.5662 25.57 61.2339C26.1576 61.8497 26.7945 62.5143 27.0392 63.3212C27.1375 63.7958 27.1375 64.3646 27.676 64.6016C27.7738 64.6499 27.8721 64.6499 27.9699 64.6499C28.0676 64.6499 28.1168 64.5546 28.1168 64.5075C28.166 64.0811 27.8721 63.7958 27.7252 63.4165C27.5297 63.0842 27.4806 62.5143 27.7252 62.2302C28.0683 61.8026 28.7537 62.1349 29.0967 61.7555C29.1459 61.6603 29.1951 61.5662 29.2436 61.4703C29.2928 61.6597 29.1944 61.8497 29.1944 62.0403C29.2922 61.992 29.4391 61.9449 29.5375 61.8979L29.8313 61.6126C29.586 62.1343 29.6844 62.8931 28.9498 63.0354C28.7537 63.0354 28.5582 63.0354 28.3621 62.9883C28.2644 62.9883 28.2158 63.0354 28.1666 63.0836V63.2247C28.3621 63.7947 28.9504 64.364 28.5582 64.9809C28.3621 65.2179 28.0683 65.265 27.8236 65.218C27.5789 65.1239 27.3828 64.9809 27.1873 64.7916L27.1382 64.9327C27.089 65.6456 27.1873 66.4995 27.8728 66.8789C27.9213 66.8789 28.0191 66.926 28.0683 66.926L27.9705 67.0212V67.0683C28.3135 67.1152 28.7051 67.1152 29.0475 67.0683L29.0967 69.1555C28.5582 69.2509 27.9705 69.1555 27.4806 69.0615C27.0884 69.2985 26.9414 69.7261 26.5499 69.8672C26.4515 69.9154 26.4515 70.0096 26.5007 70.1054C26.5007 70.1525 26.5499 70.1996 26.5984 70.2478C26.4029 70.2478 26.2068 70.1054 26.1576 69.9625C26.1085 69.9154 26.1085 69.8672 26.1085 69.7731C25.9615 69.8202 25.913 69.9625 25.913 70.1054V70.1996C25.7169 70.1525 25.57 69.9154 25.57 69.7261C25.4722 69.7261 25.3739 69.8672 25.3739 69.9631L25.3247 70.0584C25.1778 69.8679 25.1292 69.3937 25.2755 69.1091L25.3732 69.0151C25.0794 69.0151 24.8347 69.1091 24.5894 69.1561C23.2672 69.4885 22.1901 70.6271 20.7209 70.2954V69.7737C20.574 69.7267 20.4756 69.8208 20.3779 69.8679V70.6747C19.888 71.1023 19.2025 71.1023 18.6149 71.1964H17.1419C16.5194 71.1542 15.9286 71.0372 15.4311 70.7701L15.3334 70.723V69.8679C15.2357 69.7737 15.1373 69.7737 14.9904 69.7267V70.2954L14.9412 70.3424C14.3535 70.4378 13.7658 70.2954 13.2273 70.1054L11.6597 69.3455C11.2682 69.2044 10.8274 69.0615 10.3374 69.0144C10.5827 69.2514 10.5827 69.7261 10.3866 70.0096V70.0578C10.3374 69.9154 10.2889 69.7725 10.142 69.6772C10.0928 69.8195 10.0928 69.9625 9.99504 70.0578C9.94586 70.1048 9.8973 70.1519 9.79956 70.1989C9.79956 70.0578 9.79956 69.8666 9.65264 69.7725C9.60408 69.9619 9.40735 70.1989 9.16332 70.2471H9.11413C9.21187 70.1519 9.26106 70.0089 9.21187 69.9148C8.82029 69.7254 8.62419 69.2503 8.2326 69.0609C7.74266 69.1549 7.20415 69.2503 6.66503 69.1549V67.0677C7.00805 67.1147 7.39963 67.1147 7.74266 67.0206L7.6443 66.9253C8.0365 66.8783 8.33034 66.4989 8.47727 66.1667C8.62419 65.739 8.62419 65.2644 8.52645 64.7909L8.2326 65.0751C7.98732 65.2174 7.59636 65.2644 7.30189 65.1233C7.20514 65.0533 7.13078 64.9582 7.08738 64.8491C7.04398 64.7399 7.03332 64.6211 7.05661 64.5063C7.10579 64.0316 7.39963 63.6524 7.59574 63.1777C7.59574 63.0836 7.54656 63.0354 7.498 62.9883C7.05723 63.0354 6.61585 63.0836 6.322 62.7513C6.02816 62.419 6.07734 61.9444 5.93042 61.6121C6.07734 61.849 6.322 61.9443 6.51811 62.0397C6.51811 61.849 6.42037 61.6591 6.46892 61.4698C6.56666 61.6591 6.76277 61.849 6.95887 61.8973C7.35045 61.9914 7.79122 61.8973 8.0365 62.2766C8.47727 63.0354 7.69348 63.6524 7.59574 64.364C7.59574 64.4592 7.59574 64.5063 7.6443 64.601C7.74266 64.6492 7.8404 64.6963 7.93876 64.6492C8.77111 64.411 8.47727 63.463 8.82029 62.893C9.16332 62.3243 9.65264 61.755 10.1426 61.2333C10.4364 61.5173 10.7303 61.755 11.0727 62.0403C11.2688 61.5656 11.5626 61.091 11.6118 60.5216C12.0526 60.711 12.5425 60.8539 12.9833 60.9951C12.9833 60.6157 12.9833 60.1894 12.9347 59.8088C13.1794 59.8547 13.4732 59.8064 13.7671 59.8547ZM9.06558 67.1612C8.91865 67.4452 8.96783 67.8246 9.01639 68.1563C9.06558 68.3468 9.21187 68.5838 9.40798 68.6309C10.3387 68.6309 11.2202 68.8202 11.9548 69.1525C12.8364 69.5319 13.6201 70.1489 14.6978 70.0547V68.5362C14.2078 68.5832 13.7179 68.488 13.2771 68.298C11.9548 67.6346 10.6817 66.9705 9.06558 67.1612ZM24.0516 67.5404L22.4846 68.2521C22.0438 68.4415 21.5539 68.5845 21.0154 68.5374V70.056C21.4562 70.103 21.8477 70.0077 22.2393 69.8654L23.7577 69.1538C24.394 68.9167 25.0308 68.7273 25.7163 68.6804C25.9124 68.6321 26.2062 68.7273 26.4023 68.585C26.4922 68.5404 26.5673 68.4723 26.6193 68.3884C26.6712 68.3045 26.6978 68.2082 26.6962 68.1103C26.7453 67.8251 26.7945 67.4458 26.6476 67.1623C25.763 67.0659 24.8678 67.1963 24.0516 67.5404ZM7.93876 67.3029C7.59574 67.3511 7.3019 67.3981 6.95887 67.3981V68.9167C7.20415 68.9167 7.498 68.9167 7.79122 68.8214C8.0365 68.442 8.13424 67.9204 8.0365 67.4458L7.93876 67.3029ZM27.7738 67.3029C27.5291 67.7775 27.6269 68.442 27.9207 68.8697C28.2152 68.9167 28.5084 68.9167 28.8029 68.9167V67.3981C28.4107 67.3981 28.1168 67.3511 27.7738 67.3029ZM15.6285 69.059V70.5777C15.7262 70.6717 15.9223 70.72 16.0692 70.767C16.9514 70.9564 17.9792 71.004 18.9099 70.8611C19.3015 70.814 19.7423 70.767 20.0853 70.5288V69.0585C19.7915 69.2008 19.4491 69.2479 19.106 69.2955C17.9786 69.4384 16.6563 69.4384 15.6285 69.059Z" fill="white"/>
<path fill-rule="evenodd" clip-rule="evenodd" d="M16.3138 69.532C16.3138 69.7226 16.363 69.8643 16.4116 70.0066C16.4607 69.8643 16.5093 69.7226 16.5093 69.5803C16.6077 69.5803 16.7546 69.5803 16.8523 69.6273L16.8031 69.7226C16.8523 70.0549 16.8031 70.3383 16.8523 70.6236H16.6077C16.6568 70.3866 16.6568 70.0549 16.6568 69.8167C16.5591 70.0061 16.4614 70.196 16.4614 70.4337C16.4614 70.4337 16.3636 70.4337 16.3144 70.3866C16.3144 70.1484 16.2167 69.959 16.1675 69.7219C16.1189 69.9885 16.1189 70.2612 16.1675 70.5277L15.972 70.4337C16.0698 70.1954 16.0212 69.912 16.0212 69.6267C15.972 69.5796 15.972 69.4844 15.972 69.4373L16.3138 69.532ZM19.7416 69.485C19.6438 69.7232 19.693 70.0549 19.693 70.3872V70.4342C19.6256 70.4932 19.5385 70.5267 19.4477 70.5283C19.4963 70.2443 19.4963 70.0066 19.4963 69.7226C19.4477 69.9596 19.35 70.1489 19.3008 70.3872C19.2516 70.4342 19.2031 70.4342 19.1539 70.4342C19.1539 70.196 19.0562 70.0066 19.007 69.8172C19.007 70.0555 18.9578 70.3872 19.0562 70.6242C18.9578 70.6242 18.86 70.6242 18.7623 70.6712C18.86 70.3872 18.8115 70.0555 18.86 69.7232L18.7623 69.6273C18.9092 69.6273 19.0076 69.6273 19.1053 69.5803C19.1545 69.6273 19.1545 69.7226 19.1545 69.7696L19.2523 70.0549C19.3014 69.8643 19.3506 69.7226 19.3506 69.532C19.4969 69.532 19.5947 69.485 19.7416 69.485ZM17.6361 69.8643C17.5384 69.7703 17.4406 69.7703 17.3423 69.8172V70.0555C17.3915 70.1025 17.4892 70.1025 17.5869 70.0555V70.2448C17.4892 70.1966 17.44 70.1966 17.3423 70.1966V70.5289C17.3915 70.5771 17.5378 70.5771 17.6361 70.5289H17.6853V70.7194C17.4892 70.7194 17.2445 70.6712 17.0484 70.6712C17.0976 70.5771 17.1462 70.4819 17.1462 70.3389C17.097 70.102 17.1954 69.8643 17.0484 69.6273L17.6361 69.6744V69.8643ZM18.6154 69.6273C18.517 69.9126 18.5662 70.2443 18.517 70.5283C18.517 70.5766 18.4678 70.6706 18.3701 70.7189C17.9785 70.8129 17.8802 70.5283 17.8802 70.5283C17.8802 70.2443 17.9293 69.9126 17.831 69.6744H18.1254C18.0277 69.9126 18.0763 70.196 18.0763 70.4812C18.1254 70.5283 18.174 70.5283 18.2232 70.5766C18.2724 70.5766 18.3701 70.5283 18.4187 70.4812C18.4187 70.196 18.4187 69.9596 18.3695 69.7226V69.6744C18.4193 69.6273 18.5176 69.6744 18.6154 69.6273ZM41.7319 67.3976C41.7319 67.54 41.7319 67.6829 41.781 67.777C41.928 68.0623 42.271 68.1563 42.6134 68.1563C42.8587 68.1563 43.2994 68.0623 43.2994 67.6829C43.2994 67.3976 43.0542 67.3024 42.1241 67.0659C41.2425 66.8289 40.2633 66.5913 40.2633 65.5474C40.2633 64.3141 41.3403 63.7923 42.4671 63.7923C43.6425 63.7923 44.7201 64.2187 44.7687 65.5003H43.1525C43.2017 65.3109 43.1033 65.168 42.9564 65.0727C42.8095 64.9829 42.6401 64.9337 42.4665 64.9304C42.2212 64.9304 41.8302 65.0257 41.8302 65.3109C41.8788 65.6903 42.6626 65.7856 43.4464 65.9756C44.2302 66.1655 44.9648 66.5442 44.9648 67.4942C44.9648 68.8698 43.6917 69.3432 42.4671 69.3432C41.8309 69.3432 40.0678 69.1062 40.0678 67.3983H41.7319V67.3976ZM46.6786 65.2621H45.1111V63.8858H49.8617V65.2621H48.344V69.2009H46.6786V65.2621ZM51.7232 66.5436C51.7232 65.3574 52.3594 65.0727 52.8002 65.0727C53.2409 65.0727 53.8778 65.358 53.8778 66.5436C53.8778 67.7293 53.2409 68.0146 52.8002 68.0146C52.3594 68.0146 51.7232 67.73 51.7232 66.5436ZM50.0093 66.5436C50.0093 68.1563 51.1355 69.3427 52.8008 69.3427C54.4661 69.3427 55.5437 68.1563 55.5437 66.5436C55.5437 64.9298 54.4661 63.7923 52.8008 63.7923C51.1355 63.7923 50.0093 64.9298 50.0093 66.5436ZM59.7553 65.8791C59.7061 65.6897 59.5592 65.0721 58.8737 65.0721C58.09 65.0721 57.7961 65.832 57.7961 66.5431C57.7961 67.2541 58.09 68.014 58.8737 68.014C59.4123 68.014 59.6569 67.6335 59.7553 67.1118H61.4206C61.4206 68.204 60.4893 69.3414 58.9223 69.3414C57.1107 69.3414 56.1308 68.1081 56.1308 66.5425C56.1308 64.8816 57.2084 63.7911 58.9223 63.7911C60.3921 63.7911 61.2251 64.5499 61.3708 65.8784H59.7553V65.8791ZM62.1066 63.8858H63.8199V65.7367L65.3383 63.8858H67.3958L65.4367 65.9743L67.7388 69.2009H65.6328L64.2613 67.1124L63.8199 67.6341V69.2009H62.1066V63.8858ZM69.9906 63.8858H74.4966V65.2621H71.6565V65.9261H74.252V67.1606H71.6565V67.824H74.595V69.2009H69.9906V63.8858ZM76.848 66.4008L75.0837 63.8858H77.0441L77.8758 65.3574L78.6602 63.8858H80.5702L78.8071 66.4008L80.7657 69.2009H78.7088L77.7787 67.6341L76.7982 69.2009H74.8882L76.848 66.4008ZM84.3895 65.8791C84.341 65.6897 84.1941 65.0721 83.508 65.0721C82.6763 65.0721 82.431 65.832 82.431 66.5431C82.431 67.2541 82.6769 68.014 83.508 68.014C84.0478 68.014 84.2924 67.6335 84.3895 67.1118H86.0069C86.0069 68.204 85.1254 69.3414 83.508 69.3414C81.7449 69.3414 80.7663 68.1081 80.7663 66.5425C80.7663 64.8816 81.8433 63.7911 83.508 63.7911C85.0264 63.7911 85.8594 64.5499 86.0069 65.8784H84.3895V65.8791ZM86.7895 63.8858H88.4554V65.7367H90.0217V63.8858H91.7356V69.2009H90.0217V67.1124H88.4554V69.2009H86.7895V63.8858ZM94.4306 67.3024L94.9691 65.6897L95.4578 67.3024H94.4306ZM92.1272 69.2009H93.7931L94.0378 68.441H95.8008L96.0468 69.2009H97.7613L95.8015 63.8865H94.1368L92.1272 69.2009ZM98.2493 63.8858H99.9638L101.531 66.733H101.58V63.8858H103.148V69.2009H101.531L99.8667 66.3054H99.8169V69.2009H98.2493V63.8858ZM108.045 68.6793C107.702 69.1056 107.115 69.3427 106.478 69.3427C104.861 69.3427 103.882 68.1093 103.882 66.5913C103.882 64.5981 105.351 63.7923 106.576 63.7923C107.996 63.7923 108.877 64.504 109.122 65.7374H107.506C107.408 65.358 107.114 65.0727 106.673 65.0727C105.547 65.0727 105.596 66.259 105.596 66.6384C105.596 67.113 105.792 68.0152 106.821 68.0152C107.212 68.0152 107.605 67.8246 107.702 67.3983H106.919V66.259H109.172V69.2015H108.094L108.045 68.6793ZM110.102 63.8858H114.657V65.2621H111.817V65.9261H114.363V67.1606H111.817V67.824H114.706V69.2009H110.102V63.8858Z" fill="white"/>
</svg>
