<svg width="64" height="62" viewBox="0 0 64 62" fill="none" xmlns="http://www.w3.org/2000/svg">
<path d="M17.055 28.3345C15.8561 28.3345 14.9372 28.7077 14.9372 28.7077L14.6833 30.1677C14.6833 30.1677 15.4414 29.8692 16.5893 29.8692C17.2408 29.8692 17.7168 29.9394 17.7168 30.4521C17.7168 30.7638 17.659 30.8791 17.659 30.8791C17.659 30.8791 17.1457 30.8384 16.9077 30.8384C15.3949 30.8384 13.8063 31.462 13.8063 33.3489C13.8063 34.8353 14.8476 35.1745 15.4947 35.1745C16.7287 35.1745 17.2612 34.3995 17.2884 34.3973L17.2306 35.0449H18.7706L19.4573 30.3796C19.4561 28.3982 17.6737 28.3345 17.055 28.3345ZM16.1915 33.7551C15.6488 33.7551 15.5071 33.3544 15.5071 33.1152C15.5071 32.6519 15.7666 32.0943 17.0482 32.0943C17.3474 32.0954 17.3791 32.125 17.4289 32.1337C17.4629 32.4192 17.2454 33.7551 16.1915 33.7551Z" fill="white"/>
<path d="M22.6164 29.899C22.8623 29.899 23.8107 29.9748 23.8107 29.9748L24.0317 28.4796C24.0317 28.4796 23.4175 28.3468 22.4181 28.3468C21.1241 28.3468 19.8119 28.8474 19.8119 30.5587C19.8119 32.4995 22.0011 32.302 22.0011 33.1209C22.0011 33.6653 21.3892 33.7104 20.9178 33.7104C20.1008 33.7104 19.3666 33.4403 19.3643 33.4513L19.1309 34.9343C19.1728 34.9453 19.626 35.1407 21.0935 35.1407C21.4867 35.1407 23.7382 35.2395 23.7382 32.9881C23.7382 30.8826 21.6544 31.2987 21.6544 30.4523C21.6544 30.0308 21.9932 29.899 22.6164 29.899Z" fill="white"/>
<path d="M26.2957 30.0901H27.2215L27.4447 28.4961H26.5722L26.7501 27.5082H25.0017C24.9631 27.5444 23.9694 33.0802 23.9694 33.7521C23.9694 34.7521 24.5484 35.1956 25.3631 35.1879C26.0011 35.1836 26.4985 35.0123 26.6742 34.9651L26.8929 33.5249C26.7728 33.5249 26.5971 33.5754 26.4419 33.5754C25.8334 33.5754 25.7665 33.2603 25.8051 33.0287L26.2957 30.0901Z" fill="white"/>
<path d="M33.6237 20.8428H30.5031C30.0838 21.3917 29.6895 21.9756 29.3325 22.5465H34.8997C34.5133 21.9515 34.0861 21.3829 33.6237 20.8428Z" fill="white"/>
<path d="M57.9728 40.007C57.9388 39.9576 57.9105 39.9202 57.8878 39.8971C57.8754 39.8862 57.8595 39.8741 57.8391 39.8687C57.8878 39.8654 57.9286 39.8478 57.9581 39.8182C57.9864 39.7885 58.0023 39.7534 58.0023 39.7128C58.0023 39.6842 57.9932 39.6568 57.9762 39.6315C57.9592 39.6063 57.9343 39.5876 57.9037 39.5778C57.8754 39.5668 57.8266 39.5613 57.7598 39.5613H57.5626V40.1156H57.6555V39.8807H57.7088C57.7405 39.8807 57.7666 39.8873 57.7813 39.9004C57.8051 39.9191 57.8391 39.962 57.8788 40.0289L57.9286 40.1168H58.0431L57.9728 40.007ZM57.7666 39.8072H57.6533V39.6403H57.7598C57.804 39.6403 57.8334 39.6436 57.8504 39.6502C57.8686 39.6568 57.8799 39.6667 57.8901 39.6787C57.8992 39.6919 57.9037 39.7062 57.9037 39.7215C57.9037 39.7468 57.8946 39.7688 57.8754 39.7841C57.8561 39.7984 57.8187 39.8072 57.7666 39.8072Z" fill="white"/>
<path d="M35.8459 24.2183H28.3592C27.881 25.0954 27.5638 25.7584 27.4742 25.9231H36.5553C36.3502 25.3369 36.1145 24.7694 35.8459 24.2183Z" fill="white"/>
<path d="M11.6634 26.9855L9.93993 31.9362L9.85041 26.9855H7.29857L5.90027 35.0526H7.58752L8.65154 28.9712L8.80792 35.0526H10.0125L12.2595 28.9712L11.2634 35.0526H13.0538L14.4328 26.9855H11.6634Z" fill="white"/>
<path d="M45.4039 28.3345C44.2028 28.3345 43.285 28.7077 43.285 28.7077L43.03 30.1677C43.03 30.1677 43.7892 29.8692 44.936 29.8692C45.5875 29.8692 46.0646 29.9394 46.0646 30.4521C46.0646 30.7638 46.0045 30.8791 46.0045 30.8791C46.0045 30.8791 45.4923 30.8384 45.2521 30.8384C43.7405 30.8384 42.153 31.462 42.153 33.3489C42.153 34.8353 43.1954 35.1745 43.8413 35.1745C45.0742 35.1745 45.6068 34.3995 45.6351 34.3973L45.5773 35.0449H47.1161L47.8028 30.3796C47.8062 28.3982 46.0226 28.3345 45.4039 28.3345ZM44.5428 33.7551C43.9988 33.7551 43.8583 33.3544 43.8583 33.1152C43.8583 32.6519 44.1178 32.0943 45.3994 32.0943C45.6974 32.0954 45.7292 32.125 45.7802 32.1337C45.813 32.4192 45.5943 33.7551 44.5428 33.7551Z" fill="white"/>
<path d="M58.0283 34.31C57.9819 34.2266 57.9139 34.1628 57.8289 34.1189C57.745 34.074 57.6589 34.052 57.5683 34.052C57.481 34.0531 57.3938 34.0751 57.3077 34.1189C57.2227 34.1628 57.1569 34.2266 57.1094 34.31C57.0618 34.3923 57.038 34.478 57.038 34.5668C57.038 34.6557 57.0618 34.7403 57.1094 34.8215C57.1558 34.9028 57.2215 34.9675 57.3054 35.0136C57.3904 35.0586 57.4776 35.0817 57.5683 35.0817C57.6612 35.0817 57.7496 35.0586 57.8323 35.0136C57.9162 34.9675 57.9819 34.9028 58.0283 34.8215C58.0771 34.7403 58.0986 34.6557 58.0986 34.5668C58.0986 34.4757 58.0759 34.3901 58.0283 34.31ZM57.9547 34.7787C57.9162 34.8468 57.8618 34.8983 57.7904 34.939C57.7201 34.9763 57.6476 34.9961 57.5717 34.9961C57.4946 34.9961 57.421 34.9763 57.3518 34.939C57.2805 34.9005 57.2272 34.8478 57.1864 34.7787C57.1456 34.7095 57.1275 34.6393 57.1275 34.5657C57.1275 34.4922 57.1467 34.4208 57.1887 34.3516C57.2283 34.2836 57.2816 34.2309 57.3541 34.1925C57.4266 34.1541 57.498 34.1376 57.5717 34.1376C57.6453 34.1376 57.7179 34.1552 57.787 34.1925C57.8595 34.2309 57.9128 34.2825 57.9524 34.3516C57.9921 34.4208 58.0136 34.4922 58.0136 34.5657C58.0136 34.6393 57.9943 34.7107 57.9547 34.7787Z" fill="white"/>
<path d="M57.7485 34.7413C57.7156 34.6897 57.6862 34.6535 57.6646 34.6315C57.651 34.6194 57.6363 34.6095 57.6159 34.6029C57.6646 34.5996 57.7043 34.5821 57.7338 34.5525C57.7621 34.5239 57.7791 34.4866 57.7791 34.4471C57.7791 34.4197 57.77 34.3911 57.7519 34.3659C57.7338 34.3417 57.71 34.3231 57.6816 34.3121C57.6533 34.3011 57.6035 34.2957 57.5366 34.2957H57.3372V34.8489H57.4301V34.614H57.4833C57.5162 34.614 57.5423 34.6206 57.5581 34.6326C57.5819 34.6523 57.6136 34.6941 57.6556 34.7633L57.7043 34.85H57.8187L57.7485 34.7413ZM57.5445 34.5382H57.4323V34.3702H57.5366C57.5819 34.3702 57.6114 34.3735 57.6295 34.3791C57.6442 34.3867 57.6578 34.3944 57.6669 34.4087C57.6771 34.4229 57.6816 34.4351 57.6816 34.4537C57.6816 34.4779 57.6714 34.4987 57.6544 34.514C57.6329 34.5327 57.5978 34.5382 57.5445 34.5382Z" fill="white"/>
<path d="M51.3462 28.4149C50.5632 28.4149 49.9819 29.4501 49.9819 29.4501L50.1383 28.4984H48.5088L47.4176 35.065H49.2125C49.7236 32.2592 49.8165 29.9836 51.0301 30.3997C51.2442 29.3151 51.4505 28.8946 51.6828 28.4369C51.6828 28.438 51.574 28.4149 51.3462 28.4149Z" fill="white"/>
<path d="M55.8561 26.9944L55.4788 29.2613C55.4788 29.2613 54.8216 28.3797 53.7904 28.3797C52.187 28.3809 50.8522 30.2525 50.8522 32.4019C50.8522 33.7905 51.5649 35.1506 53.0199 35.1506C54.068 35.1506 54.6482 34.4425 54.6482 34.4425L54.5723 35.0474H56.2731L57.6102 26.9911L55.8561 26.9944ZM53.6386 33.504C53.0085 33.504 52.7139 32.9924 52.7139 32.1889C52.7139 30.8749 53.3224 30.0087 54.0918 30.0087C54.7196 30.0099 55.0425 30.4281 55.0425 31.4139C55.0425 32.3086 54.5859 33.504 53.6386 33.504Z" fill="white"/>
<path d="M62.3524 10.6562H1.64759C0.736544 10.6562 0 11.3709 0 12.2524V49.2405C0 50.122 0.736544 50.8366 1.64759 50.8366H62.3524C63.2635 50.8366 64 50.122 64 49.2405V12.2524C64 11.3709 63.2635 10.6562 62.3524 10.6562ZM58.2538 39.833C58.2062 39.9164 58.1416 39.98 58.0578 40.0251C57.9739 40.07 57.8856 40.0931 57.7949 40.0931C57.702 40.0931 57.6136 40.07 57.5297 40.0251C57.447 39.98 57.3813 39.9164 57.3326 39.833C57.2861 39.7528 57.2623 39.6671 57.2623 39.5783C57.2623 39.4894 57.2861 39.4048 57.3337 39.3214C57.3802 39.238 57.4482 39.1754 57.532 39.1303C57.617 39.0875 57.7031 39.0645 57.7938 39.0645C57.8833 39.0645 57.9694 39.0875 58.0533 39.1303C58.1382 39.1754 58.2051 39.238 58.2516 39.3214C58.2992 39.4048 58.3218 39.4904 58.3218 39.5783C58.3218 39.6661 58.3014 39.755 58.2538 39.833ZM59.4414 30.747C59.4436 39.5343 52.0941 46.6608 43.0221 46.6631C38.7796 46.6641 34.911 45.1065 31.9966 42.5476C29.0822 45.102 25.2215 46.6586 20.9858 46.6586C11.9195 46.6586 4.56091 39.531 4.56091 30.747C4.56091 21.998 11.8618 14.8913 20.8805 14.8342C20.9156 14.8342 20.9507 14.8342 20.9858 14.8342C25.2215 14.8342 29.0833 16.3908 31.9977 18.9453C34.911 16.3897 38.7751 14.832 43.0142 14.8309C52.0861 14.8276 59.4414 21.9508 59.4436 30.7393C59.4414 30.7414 59.4414 30.7426 59.4414 30.747Z" fill="white"/>
<path d="M30.3151 41.0616C30.8352 41.6786 31.3859 42.267 31.9944 42.8005C32.008 42.7884 32.0227 42.7774 32.0363 42.7665C32.0363 42.7665 32.0352 42.7665 32.0352 42.7654H32.0386C32.6369 42.2373 33.1955 41.6688 33.7066 41.0616H30.3151Z" fill="white"/>
<path d="M32.5519 32.3283C32.5519 32.3283 32.7819 31.2305 32.7819 30.7837C32.7819 29.6673 32.2086 28.3062 30.289 28.3062C28.5304 28.3073 27.2284 30.1427 27.2284 32.2174C27.2284 34.6116 28.859 35.1802 30.2494 35.1802C31.5321 35.1802 32.0964 34.9014 32.0964 34.9014L32.4046 33.268C32.4046 33.268 31.429 33.685 30.5474 33.685C28.6698 33.685 28.9984 32.3283 28.9984 32.3283H32.5519ZM30.2947 29.8265C31.2817 29.8265 31.0992 30.9012 31.0992 30.9869H29.1581C29.1581 30.876 29.3417 29.8265 30.2947 29.8265Z" fill="white"/>
<path d="M40.7536 28.5313C41.6431 28.5313 42.3581 29.0154 42.3581 29.0154L42.6437 27.2206C42.6437 27.2206 41.5853 26.8057 40.6743 26.8057C38.6561 26.8057 36.6924 28.5028 36.6924 31.6895C36.6924 33.8027 37.7519 35.1978 39.8391 35.1978C40.4284 35.1978 41.3689 34.9662 41.3689 34.9662L41.6816 33.1177C41.6816 33.1177 40.825 33.5337 40.2357 33.5337C38.9938 33.5326 38.4963 32.6149 38.4963 31.6313C38.4963 29.6302 39.5638 28.5313 40.7536 28.5313Z" fill="white"/>
<path d="M28.1224 37.7192C28.4069 38.311 28.7377 38.8741 29.0924 39.423H34.9202C35.2737 38.8763 35.5921 38.3077 35.8765 37.7192H28.1224Z" fill="white"/>
<path d="M36.6607 28.417C35.8777 28.417 35.2975 29.4521 35.2975 29.4521L35.455 28.5004H33.8267L32.7355 35.067H34.5304C35.0392 32.2624 35.1343 29.9856 36.3479 30.4017C36.561 29.316 36.7661 28.8956 36.9984 28.4368C36.9984 28.4368 36.8896 28.4148 36.6607 28.417Z" fill="white"/>
</svg>
