<svg width="64" height="62" viewBox="0 0 64 62" fill="none" xmlns="http://www.w3.org/2000/svg">
<path d="M62.3524 10.9103H1.64759C0.736544 10.9103 0 11.6249 0 12.5064V49.4945C0 50.376 0.736544 51.0907 1.64759 51.0907H62.3524C63.2635 51.0907 64 50.376 64 49.4945V12.5064C64 11.6249 63.2635 10.9103 62.3524 10.9103ZM59.132 28.8199L58.2493 29.5916L57.4527 28.7342L58.3365 27.9625L59.132 28.8199ZM54.5858 28.0723L53.3904 26.7857L54.7184 25.6276L55.9139 26.9141L54.5858 28.0723ZM55.9411 28.2139L57.1377 29.4993L55.8096 30.6574L54.6142 29.3719L55.9411 28.2139ZM53.506 27.7879L51.736 29.3314L50.1439 27.6167L51.9139 26.0733L53.506 27.7879ZM53.1785 28.9988L54.7717 30.7134L53.0017 32.2557L51.4085 30.541L53.1785 28.9988ZM54.4374 31.9627L56.0306 33.6773L54.2606 35.2229L52.6674 33.5082L54.4374 31.9627ZM55.7484 32.0889L57.0765 30.9297L58.2731 32.2162L56.945 33.3743L55.7484 32.0889ZM58.0034 26.2709L57.1184 27.0426L56.3218 26.1852L57.2068 25.4135L58.0034 26.2709ZM9.28045 33.8607H8.36261L7.20793 29.7562H7.14788L6.0272 33.8607H5.10935L3.73371 28.0295H4.68555L5.63626 32.3809H5.69632L6.8 28.0295H7.55581L8.73654 32.3809H8.7966L9.66346 28.0295H10.6572L9.28045 33.8607ZM14.5473 31.9627H11.7802C11.7802 32.9484 12.196 33.3864 13.0708 33.3864C13.5286 33.3864 13.9535 33.2294 14.4204 32.9583V33.5829C14.0385 33.7958 13.5286 33.9616 12.9178 33.9616C11.4912 33.9616 10.9054 33.1065 10.9054 31.8056C10.9054 30.5554 11.5592 29.6519 12.8329 29.6519C13.8946 29.6519 14.5484 30.3182 14.5484 31.6607L14.5473 31.9627ZM16.9756 33.9605C16.5258 33.9605 15.8289 33.82 15.319 33.5576V27.8165L16.2017 27.6112V29.956C16.4578 29.8243 16.8895 29.6519 17.3496 29.6519C18.4023 29.6519 18.9711 30.36 18.9711 31.6761C18.9711 33.214 18.2074 33.9605 16.9756 33.9605ZM25.7496 33.8607H25.7473H24.8306V29.6322H24.7547L23.0221 33.8607H22.4793L20.7467 29.731H20.6708V33.8607H19.9071V28.0295H20.9337L22.8363 32.6278H22.8793L24.6969 28.0295H25.7496V33.8607ZM28.6187 33.9605C27.4561 33.9605 26.6822 33.2107 26.6822 31.8046C26.6822 30.3643 27.498 29.6508 28.6187 29.6508C29.7394 29.6508 30.5552 30.3666 30.5552 31.8046C30.5552 33.214 29.7824 33.9605 28.6187 33.9605ZM34.928 33.8607H34.0453V31.0712C34.0453 30.4226 33.7156 30.3073 33.2805 30.3073C32.9405 30.3073 32.5076 30.4554 32.2448 30.6036V33.8607H31.362V30.2579C31.7439 30.0361 32.5507 29.6497 33.5275 29.6497C34.5462 29.6497 34.928 30.0361 34.928 30.8836V33.8607ZM39.3609 31.9627H36.5926C36.5926 32.9484 37.0085 33.3864 37.8856 33.3864C38.3433 33.3864 38.7683 33.2294 39.234 32.9583V33.5829C38.851 33.7958 38.3433 33.9616 37.7303 33.9616C36.3037 33.9616 35.7201 33.1065 35.7201 31.8056C35.7201 30.5554 36.3739 29.6519 37.6465 29.6519C38.7094 29.6519 39.3632 30.3182 39.3632 31.6607L39.3609 31.9627ZM42.0351 33.9035C41.6102 35.0374 41.0924 35.6302 40.1178 35.6302V34.9561C40.6958 34.9561 41.0504 34.5126 41.2555 33.9035L39.6261 29.7891H40.5598L41.6465 32.8166H41.6975L42.6652 29.7891H43.5739L42.0351 33.9035ZM56.434 37.2702C55.3518 37.8685 54.0975 38.2099 52.766 38.2099C48.6674 38.2099 45.3235 34.9715 45.3235 31.001C45.3235 27.0305 48.6674 23.7911 52.766 23.7911C53.9331 23.7911 55.0414 24.0546 56.0272 24.5222C56.1824 24.5936 56.3365 24.6725 56.4895 24.7582L55.8051 25.3521L54.7762 24.3213L53.0391 25.823L52.0091 24.7318L48.7717 27.5574L50.8465 29.7738L50.0306 30.4675L52.0748 32.686L51.2635 33.3798L54.1847 36.5292L55.9161 34.9836L57.4142 36.6412C57.1173 36.8629 56.7932 37.0737 56.434 37.2702ZM58.1122 35.9705L56.9156 34.6861L58.2436 33.5269L59.4391 34.8124L58.1122 35.9705ZM59.379 32.1371L58.5824 31.2798L59.4674 30.5081L60.264 31.3654L59.379 32.1371Z" fill="white"/>
<path d="M28.6187 30.2271C28.059 30.2271 27.574 30.6948 27.574 31.8056C27.574 32.9331 28.0159 33.3853 28.6187 33.3853C29.2216 33.3853 29.6635 32.9331 29.6635 31.8056C29.6635 30.6936 29.1955 30.2271 28.6187 30.2271Z" fill="white"/>
<path d="M17.1196 30.2933C16.7819 30.2933 16.5349 30.3833 16.1949 30.5645V33.255C16.4669 33.3703 16.7627 33.3867 16.9757 33.3867C17.6046 33.3867 18.0805 33.0081 18.0805 31.6754C18.0805 30.6304 17.6884 30.2933 17.1196 30.2933Z" fill="white"/>
<path d="M37.6205 30.202C37.1015 30.202 36.7026 30.5884 36.6074 31.4106H38.5542C38.5122 30.5478 38.0782 30.202 37.6205 30.202Z" fill="white"/>
<path d="M12.8068 30.202C12.2889 30.202 11.8889 30.5884 11.796 31.4106H13.7405C13.6986 30.5478 13.2657 30.202 12.8068 30.202Z" fill="white"/>
</svg>
