<svg width="114" height="34" viewBox="0 0 114 34" fill="none" xmlns="http://www.w3.org/2000/svg">
<path d="M84.3761 22.0774C80.4423 22.0774 77.9536 19.8141 77.9536 16.302C77.9536 12.5557 80.2015 10.2924 83.8142 10.2924H84.1353C84.7775 10.2924 85.4198 10.2924 86.062 10.3704V5.84375H88.6311V21.6091C87.2663 21.9213 85.8212 22.0774 84.3761 22.0774ZM84.2958 12.2435C81.8071 12.2435 80.6029 13.5703 80.6029 16.2239C80.6029 18.6434 82.048 20.1262 84.4564 20.1262C84.9381 20.1262 85.4198 20.1262 86.1423 20.0482V12.3997C85.5001 12.3216 84.9381 12.2435 84.2958 12.2435ZM49.1325 21.7653L42.148 9.90216V21.7653H39.7395V6.78031H43.1113L50.0958 18.4873V6.78031H52.5846V21.7653H49.1325ZM71.2902 21.9994C70.0057 21.9994 68.7212 21.8432 67.4367 21.6091H67.2761V19.5019L67.517 19.58C68.6409 19.8921 69.8451 20.0482 70.9691 20.0482C71.8522 20.0482 73.9395 19.8921 73.9395 18.6434C73.9395 17.5507 72.4944 17.3166 71.3705 17.0824H71.2902L70.648 16.8483C68.962 16.4581 67.1156 15.7556 67.1156 13.5703C67.1156 11.385 68.8818 10.2144 71.9325 10.2144C73.0564 10.2144 74.1804 10.2924 75.3043 10.5265L75.7057 10.6046V12.6338H75.4649C74.4212 12.3997 73.2973 12.3216 72.2536 12.2435C71.0494 12.2435 69.6043 12.4777 69.6043 13.4923C69.6043 14.3508 70.8085 14.585 72.1733 14.8971C74.1001 15.2873 76.4282 15.8337 76.4282 18.3311C76.5085 20.6726 74.5818 21.9994 71.2902 21.9994ZM95.9367 21.9994C93.2874 21.9994 90.7987 21.5311 90.7987 18.2532C90.7987 14.663 94.6522 14.663 96.9001 14.663C97.1409 14.663 98.1846 14.741 98.5057 14.741C98.5057 12.7118 98.5057 12.2435 95.455 12.2435C94.2508 12.3216 92.9663 12.3997 91.7621 12.7118H91.5212V10.7606H91.6818C92.9663 10.5265 94.3311 10.3704 95.6958 10.3704C98.586 10.3704 101.075 10.6827 101.075 14.1947V21.8432H100.914C99.2282 21.8432 97.6226 21.9213 95.9367 21.9994ZM96.8198 16.38C94.6522 16.38 93.2874 16.6922 93.2874 18.2532C93.2874 20.0482 95.0536 20.2043 96.6592 20.2043C97.3015 20.2043 98.3451 20.1262 98.6663 20.1262V16.4581L96.8198 16.38ZM59.8099 21.9994C57.1606 21.9994 54.6719 21.5311 54.6719 18.2532C54.6719 14.663 58.5254 14.663 60.7733 14.663C61.0142 14.663 62.0578 14.741 62.3789 14.741C62.3789 12.7118 62.3789 12.2435 59.3282 12.2435C58.124 12.3216 56.8395 12.3997 55.6353 12.7118H55.3944V10.7606H55.555C56.8395 10.5265 58.2043 10.3704 59.5691 10.3704C62.4592 10.3704 64.948 10.6827 64.948 14.1947V21.8432H64.7874C63.1818 21.8432 61.4958 21.9213 59.8099 21.9994ZM60.693 16.38C58.5254 16.38 57.1606 16.6922 57.1606 18.2532C57.1606 20.0482 58.9268 20.2043 60.5325 20.2043C61.1747 20.2043 62.2184 20.1262 62.5395 20.1262V16.4581L60.693 16.38ZM111.351 26.8382V21.9213C110.709 21.9994 110.066 22.0774 109.424 22.0774C108.38 22.0774 107.337 21.8432 106.373 21.5311C104.447 20.7506 103.242 18.7214 103.242 16.1459C103.242 14.8191 103.563 12.4777 105.731 11.2289C107.016 10.5265 108.541 10.2144 110.066 10.3704C110.789 10.3704 111.672 10.4485 112.555 10.4485L114 10.5265V25.7456L111.351 26.8382ZM109.825 12.2435C107.176 12.2435 105.892 13.5703 105.892 16.0678C105.892 19.3458 107.899 20.0482 109.504 20.0482C110.147 20.0482 110.789 19.9702 111.351 19.8921V12.2435H109.825Z" fill="white"/>
</svg>
