<svg width="64" height="62" viewBox="0 0 64 62" fill="none" xmlns="http://www.w3.org/2000/svg">
<path d="M62.3524 10.9103H1.64759C0.736544 10.9103 0 11.6249 0 12.5064V49.4945C0 50.376 0.736544 51.0907 1.64759 51.0907H62.3524C63.2635 51.0907 64 50.376 64 49.4945V12.5064C64 11.6249 63.2635 10.9103 62.3524 10.9103ZM4.95524 23.0523H11.7858C12.7071 23.0863 13.4493 23.3706 13.7054 24.3246L15.1909 31.2458C13.7314 27.6255 10.2142 24.6133 4.89858 23.3663L4.95524 23.0523ZM13.2204 38.8377L9.27479 25.779C12.111 27.5376 14.5269 30.3281 15.3779 32.27L15.838 33.8825L20.153 23.2028H24.8215L17.8833 38.8344L13.2204 38.8377ZM28.2527 38.8487H23.847L26.6017 23.1863H31.0096L28.2527 38.8487ZM35.9195 39.0837C33.9445 39.0639 32.0419 38.6851 31.0108 38.2472L31.6306 34.7421L32.1983 34.9913C33.6453 35.5764 34.5824 35.8135 36.3467 35.8135C37.6125 35.8135 38.9688 35.3337 38.9813 34.2844C38.9892 33.5982 38.4136 33.1087 36.698 32.3403C35.0255 31.5915 32.8113 30.3358 32.8385 28.0865C32.8623 25.0425 35.9309 22.9184 40.2856 22.9184C41.9921 22.9184 43.3598 23.2586 44.2323 23.5759L43.6374 26.9712L43.2397 26.7901C42.4283 26.4739 41.3847 26.1688 39.9422 26.1908C38.2176 26.1908 37.4176 26.8867 37.4176 27.5376C37.4085 28.271 38.3513 28.754 39.8924 29.4806C42.434 30.5982 43.6091 31.9539 43.5932 33.7355C43.5592 36.9848 40.553 39.0837 35.9195 39.0837ZM55.013 38.8553C55.013 38.8553 54.6108 37.055 54.4771 36.5083C53.8357 36.5083 49.3394 36.5018 48.834 36.5018C48.6629 36.9244 47.9082 38.8553 47.9082 38.8553H43.2816L49.8232 24.5024C50.2878 23.4826 51.0754 23.2028 52.1314 23.2028H55.5354L59.1014 38.8542L55.013 38.8553Z" fill="white"/>
<path d="M52.7388 28.777L52.4419 27.4268C52.2175 28.0162 51.8311 28.9636 51.8561 28.9219C51.8561 28.9219 50.4634 32.3984 50.1008 33.2996H53.7598C53.583 32.5147 52.7388 28.777 52.7388 28.777Z" fill="white"/>
</svg>
