<svg width="128" height="124" viewBox="0 0 128 124" fill="none" xmlns="http://www.w3.org/2000/svg">
<path fill-rule="evenodd" clip-rule="evenodd" d="M97.2657 83.4258H98.0532V79.4817H95.1633V80.3084H97.0685V80.8816C97.0685 82.0904 96.2796 82.7902 95.0325 82.7902C93.5875 82.7902 92.6678 81.5815 92.6678 79.3538C92.6678 77.1916 93.5211 75.9828 95.0325 75.9828C96.0166 75.9828 96.6747 76.5548 97.0027 77.7635L97.9224 77.5724C97.4622 75.9828 96.5425 75.2192 95.0325 75.2192C92.9965 75.2192 91.7487 76.7458 91.7487 79.4181C91.7487 82.0266 92.9965 83.5532 95.0325 83.5532C95.9522 83.5532 96.6747 83.2355 97.1999 82.5355L97.2657 83.4258ZM100.286 83.4258H101.139V80.1817C101.467 78.9729 102.125 78.336 102.979 78.336H103.045V77.5094H102.848C102.059 77.5094 101.534 77.9539 101.14 78.9092V77.5724H100.286V83.4258ZM103.965 80.4995C103.965 82.4718 104.884 83.5525 106.46 83.5525C108.036 83.5525 108.956 82.4718 108.956 80.4995C108.956 78.5271 108.036 77.445 106.46 77.445C104.884 77.445 103.965 78.5265 103.965 80.4995ZM104.818 80.4995C104.818 78.973 105.41 78.145 106.46 78.145C107.511 78.145 108.102 78.973 108.102 80.4995C108.102 82.0261 107.511 82.8527 106.46 82.8527C105.41 82.8527 104.818 82.0261 104.818 80.4995ZM115.062 77.5717H114.275V81.963C113.683 82.5348 113.158 82.8527 112.567 82.8527C111.844 82.8527 111.583 82.4718 111.583 81.6439V77.5717H110.728V81.8993C110.728 82.9813 111.32 83.5525 112.305 83.5525C113.028 83.5525 113.684 83.2348 114.34 82.5348V83.4258H115.062V77.5717ZM117.493 85.5892H118.282V82.7896C118.675 83.2985 119.202 83.5525 119.858 83.5525C121.5 83.5525 122.354 82.4718 122.354 80.5638C122.354 78.5915 121.434 77.445 119.858 77.445C119.136 77.445 118.675 77.7629 118.282 78.2717L118.085 77.5717H117.493V85.5892ZM118.282 81.963V79.0353C118.675 78.4621 119.201 78.1444 119.857 78.1444C120.974 78.1444 121.5 78.9723 121.5 80.5632C121.5 82.0897 120.908 82.8527 119.924 82.8527C119.266 82.8527 118.74 82.5986 118.282 81.963ZM5.64709 75.2823H7.61734C8.73361 75.2823 9.58758 75.409 10.2443 75.9179C11.164 76.6178 11.7544 77.7622 11.7544 79.3531C11.7544 82.0254 10.3094 83.4252 7.42011 83.4252H5.64709V75.2823ZM6.56681 76.0452V82.5992H7.2893C8.34049 82.5992 9.12806 82.5348 9.71973 82.0261C10.4422 81.5172 10.836 80.5638 10.836 79.3538C10.836 78.0182 10.4422 77.1273 9.71973 76.5541C9.06298 76.1096 8.34049 76.0452 7.42078 76.0452H6.56681ZM18.1253 82.1528C17.5994 83.0437 16.8111 83.4896 15.6955 83.4896C14.1191 83.4896 13.2651 82.4718 13.2651 80.4351C13.2651 78.5265 14.1841 77.445 15.6298 77.445C17.0748 77.445 17.9945 78.4628 17.9945 80.3727V80.6268H14.1197V80.8179C14.1197 82.091 14.7765 82.7902 15.7619 82.7902C16.4844 82.7902 17.1412 82.4725 17.4692 81.7725L18.1253 82.1528ZM17.0748 79.9263C17.0748 78.7818 16.4838 78.1444 15.6298 78.1444C14.7107 78.1444 14.1848 78.7812 14.1191 79.9263H17.0748ZM24.0367 83.4258H23.3142V82.5348C22.6574 83.1717 22 83.4896 21.2782 83.4896C20.2934 83.4896 19.7018 82.9163 19.7018 81.8987V77.5088H20.5557V81.5808C20.5557 82.4075 20.8187 82.7896 21.5405 82.7896C22.1322 82.7896 22.6574 82.5348 23.2485 81.8987V77.5088H24.0367V83.4258ZM28.8311 83.3615C28.5024 83.4896 28.2401 83.4896 27.9114 83.4896C26.9917 83.4896 26.5322 83.1074 26.5322 82.3438V78.2087H25.6125V77.5088H26.5322V75.6001H27.3862V77.5088H28.7654V78.2087H27.3862V82.0261C27.3862 82.5992 27.5176 82.7902 28.2401 82.7902C28.4367 82.7902 28.6339 82.7259 28.8311 82.7259V83.3615ZM30.2755 81.8993C30.8014 82.5349 31.3267 82.8527 32.0485 82.8527C32.7703 82.8527 33.2305 82.4081 33.2305 81.8349C33.2305 81.072 32.5737 81.0083 31.3917 80.6262C30.3405 80.3721 29.8153 79.7996 29.8153 79.0353C29.8153 78.0819 30.6035 77.4445 31.654 77.4445C32.5737 77.4445 33.2962 77.7622 33.8872 78.3991L33.2962 78.9723C32.8367 78.3991 32.3108 78.0813 31.7198 78.0813C31.1281 78.0813 30.735 78.4621 30.735 78.9723C30.735 79.2264 30.8007 79.4168 30.9973 79.5441C31.3917 79.862 31.9827 79.9263 32.6395 80.1173C33.6243 80.4351 34.0845 80.944 34.0845 81.7719C34.0845 82.7896 33.2962 83.4896 31.917 83.4896C30.9973 83.4896 30.144 83.1074 29.6187 82.4075L30.2755 81.8993ZM37.7626 83.4896C36.1862 83.4896 35.2671 82.4718 35.2671 80.4351C35.2671 78.5265 36.2526 77.445 37.7626 77.445C38.8138 77.445 39.6021 78.0182 39.9301 78.973L39.0761 79.2907C38.8796 78.5265 38.3543 78.145 37.6969 78.145C36.7121 78.145 36.1862 78.9092 36.1862 80.4358C36.1862 82.0266 36.7121 82.7902 37.7626 82.7902C38.4194 82.7902 38.9447 82.4081 39.3391 81.6446L40.0616 82.0266C39.5357 83.0437 38.8132 83.4896 37.7626 83.4896ZM41.7031 75.2823H42.4914V78.3997C43.2138 77.6998 43.8048 77.445 44.5931 77.445C45.6436 77.445 46.2353 78.0182 46.2353 79.0359V83.4258H45.3813V79.3538C45.3813 78.5271 45.1183 78.145 44.3308 78.145C43.7398 78.145 43.083 78.3997 42.4914 79.0359V83.4258H41.7031V75.2823ZM52.8678 82.1528C52.3419 83.0437 51.5543 83.4896 50.4381 83.4896C48.8616 83.4896 47.9426 82.4718 47.9426 80.4351C47.9426 78.5265 48.9273 77.445 50.3723 77.445C51.8173 77.445 52.737 78.4628 52.737 80.3727V80.6268H48.8623V80.8179C48.8623 82.091 49.519 82.7902 50.5045 82.7902C51.227 82.7902 51.8837 82.4725 52.2124 81.7725L52.8678 82.1528ZM51.8173 79.9263C51.8173 78.7818 51.2263 78.1444 50.3723 78.1444C49.4526 78.1444 48.9273 78.7812 48.8616 79.9263H51.8173ZM58.582 75.2823H60.8803C63.0477 75.2823 64.0983 75.8542 64.0983 77.3176C64.0983 78.2087 63.6388 78.7812 62.719 79.0997C63.7045 79.4817 64.3612 80.1817 64.3612 81.1993C64.3612 82.6616 63.2443 83.4258 61.1426 83.4258H58.5813V75.2823H58.582ZM59.501 75.9822V78.7818H61.2747C62.5225 78.7818 63.1792 78.2717 63.1792 77.3183C63.1792 76.4274 62.4567 75.9828 61.0118 75.9828H59.501V75.9822ZM59.501 79.5441V82.6616H61.209C62.719 82.6616 63.3765 82.2171 63.3765 81.135C63.3765 80.053 62.654 79.5441 61.209 79.5441H59.501ZM66.8568 75.4097H67.7765V76.4274H66.8568V75.4097ZM68.6955 75.4097H69.6152V76.4274H68.6955V75.4097ZM68.2367 77.445C69.8124 77.445 70.7979 78.5271 70.7979 80.4351C70.7979 82.4075 69.8124 83.4896 68.2367 83.4896C66.6595 83.4896 65.6754 82.4075 65.6754 80.4351C65.6747 78.5265 66.6595 77.445 68.2367 77.445ZM68.2367 82.8527C69.2872 82.8527 69.8789 82.0261 69.8789 80.4995C69.8789 78.9086 69.2872 78.145 68.2367 78.145C67.1861 78.145 66.5945 78.9092 66.5945 80.4358C66.5945 82.0261 67.1861 82.8527 68.2367 82.8527ZM72.5052 77.5088H73.3598V78.8442C73.8187 77.8909 74.3439 77.4445 75.1328 77.4445H75.3301V78.2711H75.2636C74.4103 78.2711 73.7529 78.9079 73.3598 80.1167V83.4252H72.5052V77.5088ZM76.6422 81.8993C77.1024 82.5349 77.6927 82.8527 78.3502 82.8527C79.1391 82.8527 79.5979 82.4081 79.5979 81.8349C79.5979 81.072 78.9418 81.0083 77.7585 80.6262C76.708 80.3721 76.1827 79.7996 76.1827 79.0353C76.1827 78.0819 76.9703 77.4445 78.0221 77.4445C78.9418 77.4445 79.6643 77.7622 80.1896 78.3991L79.6643 78.9723C79.2041 78.3991 78.6789 78.0813 78.0872 78.0813C77.4311 78.0813 77.0367 78.4621 77.0367 78.9723C77.0367 79.2264 77.1675 79.4168 77.3647 79.5441C77.7592 79.862 78.3502 79.9263 78.9418 80.1173C79.9924 80.4351 80.4512 80.944 80.4512 81.7719C80.4512 82.7896 79.5979 83.4896 78.2838 83.4896C77.2996 83.4896 76.4443 83.1074 75.9855 82.4075L76.6422 81.8993ZM86.5605 82.1528C86.0352 83.0437 85.2463 83.4896 84.1301 83.4896C82.5543 83.4896 81.6346 82.4718 81.6346 80.4351C81.6346 78.5265 82.6187 77.445 84.0637 77.445C85.5086 77.445 86.4284 78.4628 86.4284 80.3727V80.6268H82.5543V80.8179C82.5543 82.091 83.2104 82.7902 84.1965 82.7902C84.919 82.7902 85.575 82.4725 85.9031 81.7725L86.5605 82.1528ZM85.5086 79.9263C85.5086 78.7818 84.9183 78.1444 84.0637 78.1444C83.144 78.1444 82.6187 78.7812 82.5543 79.9263H85.5086Z" fill="white"/>
<path fill-rule="evenodd" clip-rule="evenodd" d="M17.9287 57.531L5.64709 64.2748V71.528L24.4962 61.0936L17.9287 57.531Z" fill="white"/>
<path fill-rule="evenodd" clip-rule="evenodd" d="M37.6312 60.0765L32.0485 56.9591H18.9136L31.0637 63.6398L37.6312 60.0765Z" fill="white"/>
<path fill-rule="evenodd" clip-rule="evenodd" d="M57.465 50.1505L32.0485 64.2117H45.2498L63.9017 53.8411L57.465 50.1505Z" fill="white"/>
<path fill-rule="evenodd" clip-rule="evenodd" d="M77.1675 52.7589L71.4546 49.6415H58.3848L70.5349 56.4495L77.1675 52.7589Z" fill="white"/>
<path fill-rule="evenodd" clip-rule="evenodd" d="M122.353 36.09L84.6547 56.9586H71.5204L122.353 28.9004V36.09Z" fill="white"/>
</svg>
