<svg width="35" height="35" viewBox="0 0 35 35" fill="none" xmlns="http://www.w3.org/2000/svg">
<g clip-path="url(#clip0_17_294)">
<path d="M34.2857 17.1429C34.2857 21.6894 32.4796 26.0498 29.2647 29.2647C26.0498 32.4796 21.6894 34.2857 17.1429 34.2857C12.5963 34.2857 8.23594 32.4796 5.02103 29.2647C1.80612 26.0498 0 21.6894 0 17.1429C0 12.5963 1.80612 8.23594 5.02103 5.02103C8.23594 1.80612 12.5963 0 17.1429 0C21.6894 0 26.0498 1.80612 29.2647 5.02103C32.4796 8.23594 34.2857 12.5963 34.2857 17.1429ZM14.55 10.9136C14.3898 10.7995 14.2013 10.7317 14.0051 10.7177C13.809 10.7036 13.6127 10.7438 13.4379 10.8339C13.263 10.924 13.1164 11.0604 13.0139 11.2283C12.9115 11.3962 12.8573 11.589 12.8571 11.7857V22.5C12.8573 22.6967 12.9115 22.8895 13.0139 23.0574C13.1164 23.2253 13.263 23.3617 13.4379 23.4518C13.6127 23.5419 13.809 23.5821 14.0051 23.568C14.2013 23.554 14.3898 23.4862 14.55 23.3721L22.05 18.015C22.1889 17.9159 22.3021 17.785 22.3802 17.6333C22.4583 17.4816 22.4991 17.3135 22.4991 17.1429C22.4991 16.9722 22.4583 16.8041 22.3802 16.6524C22.3021 16.5007 22.1889 16.3698 22.05 16.2707L14.55 10.9136Z" fill="#FE6613"/>
</g>
<defs>
<clipPath id="clip0_17_294">
<rect width="34.2857" height="34.2857" fill="white"/>
</clipPath>
</defs>
</svg>
